<svg width="119" height="199" viewBox="0 0 119 199" fill="none" xmlns="http://www.w3.org/2000/svg">
<path d="M95.651 193.726C94.6203 195.023 94.8364 196.91 96.1336 197.941C97.4309 198.971 99.318 198.755 100.349 197.458L97.9999 195.592L95.651 193.726ZM62.8721 99.0055L63.0536 102V102L62.8721 99.0055ZM47.6563 116.536L44.8022 117.46V117.46L47.6563 116.536ZM65.6829 125.415L66.4616 128.312V128.312L65.6829 125.415ZM0.878669 19.9706C-0.292906 21.1421 -0.292905 23.0416 0.878669 24.2132L19.9706 43.3051C21.1421 44.4767 23.0416 44.4767 24.2132 43.3051C25.3848 42.1335 25.3848 40.234 24.2132 39.0624L7.24263 22.0919L24.2132 5.12132C25.3848 3.94975 25.3848 2.05026 24.2132 0.87868C23.0416 -0.292898 21.1421 -0.292891 19.9705 0.878686L0.878669 19.9706ZM97.9999 195.592L100.349 197.458C115.3 178.641 120.337 158.392 117.144 140.804C113.949 123.201 102.544 108.546 85.238 101.027L84.0426 103.779L82.8472 106.53C98.3314 113.258 108.406 126.26 111.241 141.876C114.079 157.508 109.7 176.043 95.651 193.726L97.9999 195.592ZM84.0426 103.779L85.238 101.027C84.9498 100.902 84.7017 100.797 84.4908 100.711C84.2847 100.627 84.0922 100.552 83.9213 100.492C83.8362 100.462 83.7349 100.428 83.6266 100.396C83.5715 100.38 83.5031 100.362 83.4256 100.344C83.3524 100.327 83.2422 100.304 83.109 100.286C83.0408 100.277 82.9524 100.267 82.8493 100.262C82.7493 100.257 82.6084 100.255 82.441 100.269C82.281 100.282 82.0325 100.315 81.7429 100.41C81.457 100.505 81.0281 100.694 80.6185 101.08C80.4089 101.278 80.2134 101.519 80.054 101.806C79.8942 102.093 79.788 102.395 79.7297 102.696C79.6146 103.29 79.7016 103.792 79.7969 104.116C79.8917 104.439 80.0222 104.683 80.1127 104.832C80.2074 104.989 80.3002 105.11 80.3681 105.192C80.5 105.352 80.6224 105.468 80.691 105.529C80.7674 105.598 80.8357 105.654 80.8857 105.692C80.9841 105.769 81.0748 105.831 81.139 105.874C81.2698 105.962 81.4067 106.044 81.5245 106.113C81.7667 106.255 82.0525 106.41 82.3271 106.553C82.6032 106.697 82.8983 106.844 83.1629 106.968C83.2941 107.029 83.4354 107.092 83.5731 107.149C83.6423 107.177 83.7231 107.209 83.8098 107.241C83.8879 107.269 84.0159 107.313 84.1689 107.352C84.2461 107.371 84.3652 107.399 84.5108 107.42C84.5855 107.43 84.6826 107.442 84.7962 107.447C84.9067 107.453 85.0617 107.455 85.2454 107.437C85.4227 107.42 85.6896 107.379 85.9962 107.267C86.3053 107.154 86.7262 106.942 87.1149 106.544C87.311 106.344 87.4862 106.108 87.6269 105.841C87.7675 105.573 87.8608 105.298 87.9144 105.028C88.0204 104.496 87.9623 104.041 87.8881 103.734C87.8142 103.427 87.706 103.19 87.6257 103.037C87.5426 102.878 87.459 102.753 87.3957 102.665C87.2726 102.495 87.1557 102.37 87.0869 102.299C87.0114 102.222 86.9426 102.16 86.8909 102.114C86.8373 102.067 86.7871 102.026 86.7438 101.992C86.6586 101.924 86.5739 101.861 86.4976 101.806C86.4193 101.75 86.3363 101.693 86.2506 101.635C86.08 101.52 85.8768 101.388 85.6409 101.24L84.0426 103.779L82.4443 106.317C82.6479 106.446 82.795 106.541 82.897 106.61C82.9475 106.644 82.9814 106.668 83.002 106.683C83.0246 106.699 83.0208 106.697 83 106.68C82.9889 106.671 82.9668 106.653 82.9374 106.628C82.9097 106.603 82.8612 106.56 82.802 106.499C82.7497 106.446 82.6454 106.335 82.5314 106.178C82.4725 106.096 82.3926 105.977 82.3122 105.823C82.2347 105.676 82.1284 105.443 82.0554 105.141C81.9823 104.837 81.9244 104.387 82.0297 103.857C82.0831 103.589 82.1757 103.316 82.3156 103.049C82.4556 102.783 82.6299 102.549 82.8248 102.35C83.2112 101.954 83.629 101.744 83.9342 101.632C84.237 101.522 84.4992 101.482 84.6711 101.465C84.8494 101.448 84.9981 101.45 85.1017 101.455C85.2084 101.461 85.2979 101.471 85.3642 101.481C85.493 101.499 85.5925 101.523 85.6474 101.537C85.7558 101.564 85.8284 101.59 85.8419 101.595C85.864 101.603 85.871 101.606 85.8584 101.601C85.8326 101.591 85.7791 101.567 85.6958 101.529C85.5313 101.452 85.3183 101.346 85.1001 101.233C84.8803 101.118 84.6855 101.011 84.5534 100.934C84.4841 100.893 84.4605 100.877 84.469 100.883C84.472 100.885 84.5111 100.911 84.5689 100.956C84.5985 100.979 84.6493 101.02 84.711 101.075C84.765 101.124 84.8757 101.227 84.999 101.377C85.0626 101.454 85.1519 101.571 85.2439 101.723C85.3317 101.867 85.4602 102.107 85.554 102.426C85.6481 102.747 85.7349 103.245 85.6203 103.836C85.5623 104.136 85.4566 104.436 85.2975 104.722C85.1389 105.008 84.9442 105.248 84.7358 105.445C84.3285 105.829 83.9027 106.016 83.6209 106.109C83.3353 106.203 83.0918 106.235 82.9377 106.248C82.7761 106.261 82.642 106.259 82.5496 106.255C82.4543 106.25 82.3745 106.241 82.3158 106.233C82.2019 106.218 82.1147 106.199 82.0685 106.188C82.018 106.177 81.9807 106.166 81.9609 106.161C81.9231 106.15 81.9091 106.144 81.9294 106.151C81.9697 106.165 82.0612 106.2 82.2236 106.266C82.3813 106.33 82.5863 106.417 82.8472 106.53L84.0426 103.779ZM84.0426 103.779L85.6409 101.24C78.9515 97.0286 71.2151 95.4942 62.6905 96.011L62.8721 99.0055L63.0536 102C70.6224 101.541 77.0436 102.917 82.4443 106.317L84.0426 103.779ZM62.8721 99.0055L62.6905 96.011C57.4951 96.326 52.1835 98.5411 48.5489 102.212C44.8194 105.979 42.8271 111.362 44.8022 117.46L47.6563 116.536L50.5103 115.611C49.3294 111.965 50.4118 108.858 52.8126 106.433C55.3084 103.913 59.1827 102.235 63.0536 102L62.8721 99.0055ZM47.6563 116.536L44.8022 117.46C47.8745 126.946 57.8632 130.623 66.4616 128.312L65.6829 125.415L64.9043 122.518C58.6858 124.189 52.3873 121.406 50.5103 115.611L47.6563 116.536ZM65.6829 125.415L66.4616 128.312C78.1456 125.172 84.1328 114.45 86.9286 104.598L84.0426 103.779L81.1566 102.96C78.5542 112.13 73.4877 120.211 64.9043 122.518L65.6829 125.415ZM84.0426 103.779L86.5891 105.365C89.3053 101.004 91.1642 93.4182 91.1477 84.7462C91.131 75.974 89.2003 65.7276 83.9437 55.9477C73.3104 36.1643 49.5459 19.0919 2.99999 19.0919L2.99999 22.0919L2.99999 25.0919C47.9541 25.0919 69.3341 41.4398 78.6587 58.7883C83.3811 67.5743 85.1326 76.8218 85.1477 84.7576C85.163 92.7938 83.4031 99.1308 81.4961 102.193L84.0426 103.779Z" fill="#EFA229"/>
</svg>
