<svg width="116" height="167" viewBox="0 0 116 167" fill="none" xmlns="http://www.w3.org/2000/svg">
<path d="M10.1362 87.5048L7.48026 88.8998H7.48026L10.1362 87.5048ZM38.3893 101.573L39.0756 104.493H39.0756L38.3893 101.573ZM47.5834 87.5048L50.0565 85.8065V85.8065L47.5834 87.5048ZM31.5837 84.1152L30.3933 81.3615H30.3933L31.5837 84.1152ZM20.5325 105.88L17.5373 106.049V106.049L20.5325 105.88ZM114.721 146.621C115.893 145.45 115.893 143.55 114.721 142.379L95.6292 123.287C94.4576 122.115 92.5581 122.115 91.3866 123.287C90.215 124.458 90.215 126.358 91.3866 127.529L108.357 144.5L91.3866 161.471C90.215 162.642 90.215 164.542 91.3866 165.713C92.5581 166.885 94.4576 166.885 95.6292 165.713L114.721 146.621ZM28.706 5.13631C29.8859 3.97308 29.8993 2.07363 28.7361 0.893779C27.5729 -0.286074 25.6734 -0.299546 24.4936 0.863688L26.5998 3L28.706 5.13631ZM10.1362 87.5048L7.48026 88.8998C10.7522 95.1293 14.7581 99.4138 19.2718 102.057L20.7877 99.4678L22.3035 96.8789C18.9384 94.9086 15.6488 91.5486 12.7921 86.1098L10.1362 87.5048ZM20.7877 99.4678L19.2718 102.057C25.6736 105.805 32.6527 106.002 39.0756 104.493L38.3893 101.573L37.7029 98.6521C32.3227 99.9165 27.0208 99.6409 22.3035 96.8789L20.7877 99.4678ZM38.3893 101.573L39.0756 104.493C43.1956 103.525 47.2152 101.226 49.6491 98.0194C50.8864 96.3891 51.7741 94.437 51.9265 92.2629C52.0814 90.0532 51.4586 87.8484 50.0565 85.8065L47.5834 87.5048L45.1104 89.203C45.8142 90.2279 45.993 91.104 45.9412 91.8433C45.8869 92.6181 45.5596 93.4832 44.8697 94.3921C43.4493 96.2636 40.7659 97.9323 37.7029 98.6521L38.3893 101.573ZM47.5834 87.5048L50.0565 85.8065C45.6864 79.4426 36.8494 78.5706 30.3933 81.3615L31.5837 84.1152L32.7741 86.8689C37.5257 84.8149 42.8755 85.9486 45.1104 89.203L47.5834 87.5048ZM31.5837 84.1152L30.3933 81.3615C22.1739 84.9147 18.8003 92.2136 17.8182 99.0406L20.7877 99.4678L23.7571 99.8949C24.5593 94.3184 27.1181 89.3139 32.7741 86.8689L31.5837 84.1152ZM20.7877 99.4678L17.8182 99.0406C17.473 101.44 17.4121 103.824 17.5373 106.049L20.5325 105.88L23.5278 105.712C23.4217 103.827 23.4763 101.847 23.7571 99.8949L20.7877 99.4678ZM20.5325 105.88L17.5373 106.049C17.6981 108.905 19.4596 112.89 22.6866 117.081C25.9998 121.384 31.0794 126.202 38.3778 130.709C52.9877 139.73 76.4701 147.5 112.6 147.5V144.5V141.5C77.3183 141.5 54.9897 133.915 41.5301 125.604C34.7937 121.444 30.274 117.101 27.4407 113.421C24.5215 109.63 23.5896 106.81 23.5278 105.712L20.5325 105.88ZM26.5998 3L24.4936 0.863688C-12.3704 37.2084 1.76191 78.0125 7.48026 88.8998L10.1362 87.5048L12.7921 86.1098C7.64247 76.3053 -5.43006 38.7916 28.706 5.13631L26.5998 3Z" fill="#EFA229"/>
</svg>
