<svg width="75" height="71" viewBox="0 0 75 71" fill="none" xmlns="http://www.w3.org/2000/svg">
<path d="M25.253 19.8147C27.2152 26.1011 26.8019 26.017 29.5658 32.0127C25.7344 32.917 19.2777 32.0171 15.5599 31.2854C12.462 30.6758 9.31024 30.4274 6.22473 29.7484C5.16634 29.5155 2.51255 28.0061 3.07816 28.9305C4.55525 31.3445 8.51451 33.7521 10.6452 35.4335C14.3668 38.3704 19.0346 40.7147 23.5527 42.2703C23.9388 42.4032 25.6144 42.6168 25.276 43.2696C22.6779 48.282 19.4106 53.4884 18.9182 59.282C18.8385 60.2192 18.2218 65.6031 20.5036 63.8688C24.4421 60.8752 26.6175 57.6571 30.1326 54.1893C31.8595 52.4856 33.0992 51.3651 34.5954 49.4534C35.0073 48.9272 35.5337 47.8201 36.2332 47.5555C37.225 47.1803 37.9832 48.7498 38.41 49.3237C41.2741 53.1751 45.142 58.2992 48.6172 61.5703C49.6167 62.5111 54.2919 67.3887 55.9604 67.3387C57.4576 67.2938 54.7527 61.4449 54.6046 61.1247L54.6024 61.1198C52.6246 56.8415 52.043 49.6056 49.2661 45.8087C48.9756 45.4114 45.6213 41.9585 46.3455 41.8131C53.0471 40.4675 60.0802 41.545 66.8699 40.0894C67.3664 39.983 73.4852 39.0356 70.3627 37.6683C67.935 36.6052 65.2953 35.7463 62.7565 35.0053C58.8255 33.8581 54.9116 32.761 50.8851 32.0052C48.4456 31.5472 48.6139 31.4538 49.122 29.207C50.2586 24.1814 50.3355 18.7452 50.4961 13.6185C50.6008 10.2742 51.4499 7.03689 51.5694 3.73197C51.6651 1.08825 48.1712 6.43618 47.997 6.70925C45.0312 11.356 42.0228 16.1609 40.3729 21.4584C40.3388 21.5679 39.2646 27.3438 38.8536 27.2676C37.33 26.985 35.4292 24.1015 34.6156 23.1264C30.5026 18.1971 26.7653 13.0427 23.0598 7.80716C22.8517 7.5131 19.673 2.84174 19.9843 4.04235C21.3701 9.38797 23.6082 14.5452 25.253 19.8147Z" stroke="#EFA229" stroke-width="6" stroke-linecap="round" stroke-linejoin="round"/>
</svg>
