<svg width="1300" height="1228" viewBox="0 0 1300 1228" fill="none" xmlns="http://www.w3.org/2000/svg">
<path d="M831.716 650.97L522.773 837.254C520.742 838.478 520.868 841.465 522.996 842.514L846.184 1001.81C847.11 1002.27 848.206 1002.22 849.085 1001.68L1191.06 790.866C1193.18 789.56 1192.88 786.388 1190.55 785.507L834.327 650.733C833.466 650.407 832.504 650.495 831.716 650.97Z" fill="#112705" stroke="#20450D" stroke-width="6"/>
<path d="M847.672 1003.22L995.423 908.949L840.318 850.784L712.624 936.36L847.672 1003.22Z" fill="#20450D"/>
<path d="M1195.76 790.665L838.312 652.891M839.649 851.453L993.417 910.286" stroke="#20450D" stroke-width="3.13637" stroke-linecap="round" stroke-linejoin="round"/>
<path d="M517.405 1056.7V842.69C517.405 840.66 518.469 838.78 520.209 837.735L831.565 650.793C835.416 648.48 840.318 651.255 840.318 655.747V848.351C840.318 850.288 839.347 852.097 837.733 853.167L713.292 935.691" stroke="#20450D" stroke-width="5.22728" stroke-linecap="round" stroke-linejoin="round"/>
<path d="M854.187 713.159C959.327 703.117 1067.94 678.811 1105.18 647.754C1131.71 625.623 1125.7 566.396 1048.72 570.507C987.312 573.786 932.259 618.67 840.384 637.732C758.308 654.761 629.908 654.484 629.908 654.484L623.2 700.767C623.2 700.767 764.263 721.748 854.187 713.159Z" fill="#E9DECD" stroke="#20450D" stroke-width="5.22728" stroke-linecap="round" stroke-linejoin="round"/>
<path d="M1058.75 862.467C987.851 909.023 935.208 921.991 935.208 921.991L872.773 738.802C872.773 738.802 871.672 726.707 890.564 718.998C900.488 714.949 913.653 711.608 913.653 711.608C913.653 711.608 901.032 689.977 921.153 662.816C943.201 633.055 981.107 627.337 981.107 627.337C981.107 627.337 983.555 617.794 1005.23 613.949C1013.52 608.191 1024.33 601.551 1025.95 595.367C1028.16 586.909 1026.12 572.979 1026.12 572.979L1103.36 536.917C1103.36 536.917 1128.87 558.348 1142.36 574.716C1169.59 607.762 1221.63 623.82 1225.17 666.495C1228.57 707.51 1222.69 727.116 1200.78 761.951C1180.92 793.521 1103.11 833.336 1058.75 862.467Z" fill="#EFA229"/>
<path d="M913.653 711.608C913.653 711.608 901.032 689.977 921.153 662.816C943.201 633.055 981.107 627.337 981.107 627.337C981.107 627.337 983.555 617.794 1005.23 613.949C1013.52 608.191 1024.33 601.551 1025.95 595.367C1028.16 586.909 1026.12 572.979 1026.12 572.979L1103.36 536.917C1103.36 536.917 1128.87 558.348 1142.36 574.716C1169.59 607.762 1221.63 623.82 1225.17 666.495C1228.57 707.51 1222.69 727.116 1200.78 761.951C1180.92 793.521 1103.11 833.336 1058.75 862.467C987.851 909.023 935.208 921.991 935.208 921.991L872.773 738.802C872.773 738.802 871.672 726.707 890.564 718.998C900.488 714.949 913.653 711.608 913.653 711.608ZM913.653 711.608C913.653 711.608 924.438 730.731 947.256 731.49" stroke="#20450D" stroke-width="5.22728" stroke-linecap="round" stroke-linejoin="round"/>
<path opacity="0.4" d="M1131.41 811.856C1131.41 811.856 1115.51 687.801 1058.49 649.529C1034.24 633.256 1001.44 620.802 1001.44 620.802M958.405 911.342C958.405 911.342 950.067 843.492 931.911 803.318C915.847 767.774 882.437 733.12 882.437 733.12M979.918 902.268C979.918 902.268 980.24 828.4 958.405 785.936C940.568 751.248 897.146 722.423 897.146 722.423M1009.74 888.575C1009.74 888.575 1000.61 805.472 976.035 757.856C956.683 720.366 919.208 710.238 919.208 710.238M1039.68 871.623C1039.68 871.623 1029.79 775.507 992.515 729.018C968.113 698.589 919.208 678.966 919.208 678.966M1064.69 855.323C1064.69 855.323 1053.87 757.654 1015.83 710.238C991.416 679.816 936.59 656.236 936.59 656.236M1083.95 840.463C1083.95 840.463 1075.25 737.621 1032.63 691.094C1006.84 662.943 955.979 642.196 955.979 642.196M1104.81 826.472C1104.81 826.472 1096.4 717.428 1049.8 673.029C1024.25 648.688 986.064 631.499 986.064 631.499M1215.88 652.224C1215.88 652.224 1162.62 588.957 1119.52 580.583C1058.73 568.771 1034.2 576.009 1034.2 576.009M1159.22 791.953C1159.22 791.953 1140.9 673.483 1094.45 647.462C1061.6 629.058 1021.5 609.295 1021.5 609.295M1185.29 771.227C1185.29 771.227 1172.58 643.919 1113.79 630.158C1057.12 616.894 1030.86 599.408 1030.86 599.408M1213.37 724.428C1213.37 724.428 1184.57 618.43 1124.28 609.295C1069.08 600.933 1032.63 586.037 1032.63 586.037" stroke="#E9DECD" stroke-width="5.80228" stroke-linecap="round" stroke-linejoin="round"/>
<path d="M1155.17 579.067C1152.46 566.181 1157.02 545.395 1157.02 545.395L1078.9 530.445C1078.9 530.445 1075.17 546.622 1068.89 555.076C1066.99 557.643 1061.18 563.728 1061.18 563.728C1061.18 563.728 1043.56 603.01 1084.05 612.748C1123.17 622.156 1161.18 593.041 1161.18 593.041C1161.18 593.041 1157.31 589.199 1155.17 579.067Z" fill="#E9DECD" stroke="#20450D" stroke-width="5.22728" stroke-linecap="round" stroke-linejoin="round"/>
<path d="M1226.69 388.99C1218.24 337.256 1173.74 336.141 1173.74 336.141C1173.74 336.141 1163.19 317.543 1135.4 321.01C1091.41 326.498 1059.66 352.672 1036.01 381.975C1018.6 403.554 1007.2 428.113 1007.2 428.113C1007.2 428.113 988.444 430.822 984.863 450.624C982.236 465.145 992.492 471.652 992.492 471.652C992.492 471.652 991.538 459.976 994.778 456.575C1000.01 451.082 1006.77 456.63 1006.77 456.63C1006.77 456.63 1009.26 466.088 1007.68 478.587C1006.45 488.331 999.905 494.144 1000.73 503.931C1001.39 511.731 1010.48 517.227 1010.48 517.227C1010.48 517.227 1004.97 523.894 1001.44 524.911C996.429 526.358 993.712 522.791 993.712 522.791C993.712 522.791 991.828 529.664 1006.38 531.344C1015.55 532.404 1020.35 530.093 1020.35 530.093C1020.35 530.093 1022 542.181 1033.38 545.026C1050.46 549.296 1056.15 545.026 1056.15 545.026C1056.15 545.026 1056.15 557.582 1104.8 545.026C1121.94 540.603 1150.05 547.838 1150.05 547.838L1157.82 557.624C1157.82 557.624 1161.76 565.169 1170.69 571.315C1185.85 581.735 1193.03 577.439 1193.03 577.439C1193.03 577.439 1183.76 572.693 1181.44 569.18C1176.22 561.282 1184.62 557.582 1184.62 557.582C1184.62 557.582 1188.83 563.22 1199.5 563.97C1210.82 564.766 1215.4 558.17 1215.4 558.17C1215.4 558.17 1205.63 556.229 1202.44 553.231C1196.2 547.362 1202.69 542.214 1202.69 542.214C1202.69 542.214 1260.6 502.151 1256.97 468.882C1253.71 438.889 1235.13 440.725 1226.69 388.99Z" fill="#20450D"/>
<path d="M1173.74 336.141C1173.74 336.141 1218.24 337.256 1226.69 388.99C1235.13 440.725 1253.71 438.889 1256.97 468.882C1260.6 502.151 1202.69 542.214 1202.69 542.214C1202.69 542.214 1196.2 547.362 1202.44 553.231C1205.63 556.229 1215.4 558.17 1215.4 558.17C1215.4 558.17 1210.82 564.766 1199.5 563.97C1188.83 563.22 1184.62 557.582 1184.62 557.582C1184.62 557.582 1176.22 561.282 1181.44 569.18C1183.76 572.693 1193.03 577.439 1193.03 577.439C1193.03 577.439 1185.85 581.735 1170.69 571.315C1161.76 565.169 1157.82 557.624 1157.82 557.624L1150.05 547.838C1150.05 547.838 1121.94 540.603 1104.8 545.026C1056.15 557.582 1056.15 545.026 1056.15 545.026C1056.15 545.026 1050.46 549.296 1033.38 545.026C1022 542.181 1020.35 530.093 1020.35 530.093C1020.35 530.093 1015.55 532.404 1006.38 531.344C991.828 529.664 993.712 522.791 993.712 522.791C993.712 522.791 996.429 526.358 1001.44 524.911C1004.97 523.894 1010.48 517.227 1010.48 517.227C1010.48 517.227 1001.39 511.731 1000.73 503.931C999.905 494.144 1006.45 488.331 1007.68 478.587C1009.26 466.088 1006.77 456.63 1006.77 456.63C1006.77 456.63 1000.01 451.082 994.778 456.575C991.538 459.976 992.492 471.652 992.492 471.652C992.492 471.652 982.236 465.145 984.863 450.624C988.444 430.822 1007.2 428.113 1007.2 428.113C1007.2 428.113 1018.6 403.554 1036.01 381.975C1059.66 352.672 1091.41 326.498 1135.4 321.01C1163.19 317.543 1173.74 336.141 1173.74 336.141ZM1173.74 336.141C1173.74 336.141 1147.31 358.451 1142.83 374.775M1175.57 374.975C1188.61 376.242 1187.86 407.323 1196.67 426.023C1205.2 444.115 1227.79 448.279 1225.76 468.176C1224.46 480.894 1204.14 506.587 1204.14 506.587M1193.21 359.489C1204.84 365.912 1205.09 396.725 1213.68 414.522C1218.5 424.514 1229.35 438.217 1229.35 438.217M1144.55 341.532C1132.34 332.178 1096.42 347.872 1083.23 363.053C1071.44 376.617 1077.2 391.123 1067.66 406.356C1057.07 423.274 1029.97 434.355 1029.97 434.355M1025.65 510.762C1025.65 510.762 1020.78 502.273 1024.42 493.338C1028.65 482.951 1032.65 473.424 1036.18 460.537" stroke="#20450D" stroke-width="3.13637" stroke-linecap="round" stroke-linejoin="round"/>
<path d="M1173.74 336.141C1173.74 336.141 1147.31 358.451 1142.83 374.775M1175.57 374.975C1188.61 376.242 1187.86 407.323 1196.67 426.023C1205.2 444.115 1227.79 448.279 1225.76 468.176C1224.46 480.894 1204.14 506.587 1204.14 506.587M1193.21 359.489C1204.84 365.912 1205.09 396.725 1213.68 414.522C1218.5 424.514 1229.35 438.217 1229.35 438.217M1144.55 341.532C1132.34 332.178 1096.42 347.872 1083.23 363.053C1071.44 376.617 1077.2 391.123 1067.66 406.356C1057.07 423.274 1029.97 434.355 1029.97 434.355M1025.65 510.762C1025.65 510.762 1020.78 502.273 1024.42 493.338C1028.65 482.951 1032.65 473.424 1036.18 460.537" stroke="#46742E" stroke-width="3.13637" stroke-linecap="round" stroke-linejoin="round"/>
<path d="M1165.9 391.722C1155.92 383.432 1137.89 387.739 1137.89 387.739C1137.89 387.739 1120.32 372.806 1103.68 381.13C1087.03 389.454 1089.04 407.507 1081.2 424.384C1068.82 451.01 1070.16 440.923 1061.34 461.431C1057.45 470.471 1052.03 477.76 1052.01 487.046C1051.99 491.199 1058.27 518.406 1064.17 531.949C1072.11 550.159 1076.24 563.455 1095.89 567.894C1106.67 570.332 1123.16 565.672 1137.46 559.433C1148.55 554.598 1157.56 548.079 1163.1 543.526C1167.23 540.135 1169.94 535.405 1171.67 530.351C1174.36 522.521 1179.57 508.384 1188.93 486.254C1196.79 467.67 1181.07 468.773 1176.48 449.124C1168.88 416.556 1181.66 404.83 1165.9 391.722Z" fill="#E9DECD" stroke="#20450D" stroke-width="5.22728" stroke-linecap="round" stroke-linejoin="round"/>
<path d="M1092.88 501.745C1092.88 501.745 1094.14 501.027 1096.61 501.705C1100.46 502.759 1100.36 505.925 1104.21 506.979C1108.05 508.034 1110.43 504.23 1114.13 505.71C1115.92 506.429 1115.65 507.904 1118.1 508.662C1121.53 509.723 1129.4 504.313 1121.54 494.18M1124.19 465.118C1124.19 465.118 1118.69 471.59 1120.26 479.465" stroke="#20450D" stroke-width="3.13637" stroke-linecap="round" stroke-linejoin="round"/>
<path d="M1082.52 436.001C1085.08 436.016 1100.45 440.209 1100.45 440.209C1100.45 440.209 1101.47 441.241 1101.46 442.267L1101.45 443.293C1101.45 443.293 1089.52 439.163 1081.48 438.047C1076.12 437.303 1067.64 436.428 1067.64 436.428C1067.64 436.428 1075.43 435.96 1082.52 436.001Z" fill="#20450D"/>
<path d="M1105.04 444.853C1105.04 444.853 1106.07 442.807 1105.58 440.239M1108.62 445.9C1108.62 445.9 1109.65 444.88 1109.67 442.828M1101.45 443.293C1101.45 443.293 1101.45 443.293 1101.46 442.267C1101.47 441.241 1100.45 440.209 1100.45 440.209C1100.45 440.209 1085.08 436.016 1082.52 436.001C1075.43 435.96 1067.64 436.428 1067.64 436.428C1067.64 436.428 1076.12 437.303 1081.48 438.047C1089.52 439.163 1101.45 443.293 1101.45 443.293Z" stroke="#20450D" stroke-width="3.13637" stroke-linecap="round" stroke-linejoin="round"/>
<path d="M1163.93 451.464C1161.59 450.409 1145.88 447.814 1145.88 447.814C1145.88 447.814 1144.52 448.327 1144.1 449.262L1143.68 450.197C1143.68 450.197 1156.25 451.419 1164.02 453.757C1169.21 455.316 1177.28 458.056 1177.28 458.056C1177.28 458.056 1170.39 454.38 1163.93 451.464Z" fill="#20450D"/>
<path d="M1139.77 450.121C1139.77 450.121 1139.68 447.829 1141.21 445.703M1136.08 449.578C1136.08 449.578 1135.56 448.221 1136.41 446.351M1143.68 450.197C1143.68 450.197 1143.68 450.197 1144.1 449.262C1144.52 448.327 1145.88 447.814 1145.88 447.814C1145.88 447.814 1161.59 450.409 1163.93 451.464C1170.39 454.38 1177.28 458.056 1177.28 458.056C1177.28 458.056 1169.21 455.316 1164.02 453.757C1156.25 451.419 1143.68 450.197 1143.68 450.197Z" stroke="#20450D" stroke-width="3.13637" stroke-linecap="round" stroke-linejoin="round"/>
<path d="M1131.78 525.199C1102.92 531.972 1086.38 523.139 1086.38 523.139M1129.57 521.884C1132.19 523.61 1132.06 526.418 1131.58 529.611" stroke="#20450D" stroke-width="3.13637" stroke-linecap="round" stroke-linejoin="round"/>
<path d="M1104.93 536.062C1104.93 536.062 1102.4 537.174 1099.39 535.795" stroke="#20450D" stroke-width="3.13637" stroke-linecap="round" stroke-linejoin="round"/>
<path d="M1142 470.406C1141.84 473.518 1144.24 476.172 1147.35 476.333C1150.46 476.494 1153.11 474.102 1153.27 470.99C1153.44 467.878 1151.99 466.814 1148.88 466.653C1145.76 466.492 1142.17 467.294 1142 470.406Z" fill="#20450D"/>
<path d="M1132.99 472.206C1132.99 472.206 1142.31 466.624 1150.03 467.476C1158.78 468.442 1163.59 474.567 1163.59 474.567L1169.69 473.446L1161.28 472.302" stroke="#20450D" stroke-width="3.13637" stroke-linecap="round" stroke-linejoin="round"/>
<path d="M1160.23 477.428C1160.23 477.428 1163.87 478.759 1164.71 480.663" stroke="#20450D" stroke-width="3.13637" stroke-linecap="round" stroke-linejoin="round"/>
<path d="M1155.26 480.415C1155.26 480.415 1157.4 481.373 1157.75 483.152" stroke="#20450D" stroke-width="3.13637" stroke-linecap="round" stroke-linejoin="round"/>
<path d="M1091.95 460.854C1090.81 463.755 1087.53 465.185 1084.63 464.048C1081.73 462.91 1080.3 459.636 1081.44 456.735C1082.58 453.833 1084.33 453.462 1087.24 454.599C1090.14 455.737 1093.08 457.952 1091.95 460.854Z" fill="#20450D"/>
<path d="M1098.64 467.155C1098.64 467.155 1093.25 457.717 1086.1 454.675C1078.01 451.228 1070.81 454.205 1070.81 454.205L1066.04 450.239L1073.93 453.365" stroke="#20450D" stroke-width="3.13637" stroke-linecap="round" stroke-linejoin="round"/>
<path d="M1072.33 458.347C1072.33 458.347 1068.51 457.725 1066.84 458.969" stroke="#20450D" stroke-width="3.13637" stroke-linecap="round" stroke-linejoin="round"/>
<path d="M1075.2 463.389C1075.2 463.389 1072.87 463.174 1071.69 464.554" stroke="#20450D" stroke-width="3.13637" stroke-linecap="round" stroke-linejoin="round"/>
<circle cx="1.02596" cy="1.02596" r="1.02596" transform="matrix(-0.964409 -0.264414 -0.264414 0.964409 1088.05 478.614)" fill="#20450D"/>
<circle cx="1.02596" cy="1.02596" r="1.02596" transform="matrix(-0.964409 -0.264414 -0.264414 0.964409 1065.32 467.14)" fill="#20450D"/>
<circle cx="1.02596" cy="1.02596" r="1.02596" transform="matrix(-0.964409 -0.264414 -0.264414 0.964409 1073.42 481.371)" fill="#20450D"/>
<circle cx="1.02596" cy="1.02596" r="1.02596" transform="matrix(-0.964409 -0.264414 -0.264414 0.964409 1077.37 507.394)" fill="#20450D"/>
<circle cx="1.02596" cy="1.02596" r="1.02596" transform="matrix(-0.964409 -0.264414 -0.264414 0.964409 1058.57 488.382)" fill="#20450D"/>
<circle cx="1.02596" cy="1.02596" r="1.02596" transform="matrix(-0.964409 -0.264414 -0.264414 0.964409 1126.7 442.403)" fill="#20450D"/>
<circle cx="1.02596" cy="1.02596" r="1.02596" transform="matrix(-0.964409 -0.264414 -0.264414 0.964409 1074.57 497.389)" fill="#20450D"/>
<circle cx="1.02596" cy="1.02596" r="1.02596" transform="matrix(-0.964409 -0.264414 -0.264414 0.964409 1111.32 477.906)" fill="#20450D"/>
<circle cx="1.02596" cy="1.02596" r="1.02596" transform="matrix(-0.964409 -0.264414 -0.264414 0.964409 1115.98 454.356)" fill="#20450D"/>
<circle cx="1.02596" cy="1.02596" r="1.02596" transform="matrix(-0.964409 -0.264414 -0.264414 0.964409 1116.92 489.721)" fill="#20450D"/>
<circle cx="1.02596" cy="1.02596" r="1.02596" transform="matrix(-0.964409 -0.264414 -0.264414 0.964409 1135.91 486.417)" fill="#20450D"/>
<circle cx="1.02596" cy="1.02596" r="1.02596" transform="matrix(-0.964409 -0.264414 -0.264414 0.964409 1169.47 488.171)" fill="#20450D"/>
<circle cx="1.02596" cy="1.02596" r="1.02596" transform="matrix(-0.964409 -0.264414 -0.264414 0.964409 1165.13 497.277)" fill="#20450D"/>
<circle cx="1.02596" cy="1.02596" r="1.02596" transform="matrix(-0.964409 -0.264414 -0.264414 0.964409 1149.76 490.214)" fill="#20450D"/>
<circle cx="1.02596" cy="1.02596" r="1.02596" transform="matrix(-0.964409 -0.264414 -0.264414 0.964409 1142.46 505.841)" fill="#20450D"/>
<circle cx="1.02596" cy="1.02596" r="1.02596" transform="matrix(-0.964409 -0.264414 -0.264414 0.964409 1161.43 517.508)" fill="#20450D"/>
<path d="M1125.42 465.968C1125.42 465.968 1124.48 486.996 1132.87 495.579C1142.02 504.945 1153.27 507.139 1165.7 502.998C1179.1 498.532 1187.44 474.397 1187.44 474.397M1125.42 465.968C1125.42 465.968 1132.54 456.965 1161.07 458.385C1189.6 459.805 1189.6 464.831 1189.6 464.831M1125.42 465.968C1125.42 465.968 1123.62 463.887 1117.7 462.549C1111.78 461.211 1109.27 462.319 1109.27 462.319M1189.6 464.831L1187.44 474.397M1189.6 464.831L1192.83 465.561L1190.66 475.127L1187.44 474.397M1051.81 433.697L1049.65 443.262M1051.81 433.697C1051.81 433.697 1053.97 429.157 1080.34 440.142C1106.71 451.127 1109.27 462.319 1109.27 462.319M1051.81 433.697L1048.58 432.967L1046.42 442.533L1049.65 443.262M1049.65 443.262C1049.65 443.262 1046.8 468.635 1056.98 478.431C1066.42 487.514 1077.52 490.37 1089.81 485.85C1101.07 481.707 1109.27 462.319 1109.27 462.319" stroke="#EFA229" stroke-width="5.22728" stroke-linecap="round" stroke-linejoin="round"/>
<path d="M759.322 397.708L653.83 282.414L582.357 314.683L619.554 398.72L759.322 397.708Z" fill="#E9DECD" stroke="#20450D" stroke-width="5.22728" stroke-linejoin="round"/>
<path d="M671.385 367.011L660.446 366.979" stroke="#20450D" stroke-width="5.22728" stroke-linecap="round" stroke-linejoin="round"/>
<path d="M671.387 294.139L669.674 301.456" stroke="#20450D" stroke-width="5.22728" stroke-linecap="round" stroke-linejoin="round"/>
<path d="M608.941 372.617L601.275 375.513" stroke="#20450D" stroke-width="5.22728" stroke-linecap="round" stroke-linejoin="round"/>
<path d="M623.463 291.125L621.272 301.382" stroke="#20450D" stroke-width="5.22728" stroke-linecap="round" stroke-linejoin="round"/>
<path d="M709.097 332.458L705.067 339.01" stroke="#20450D" stroke-width="5.22728" stroke-linecap="round" stroke-linejoin="round"/>
<path d="M588.455 328.138L584.425 334.69" stroke="#20450D" stroke-width="5.22728" stroke-linecap="round" stroke-linejoin="round"/>
<path d="M644.382 328.718L636.829 330.175" stroke="#20450D" stroke-width="5.22728" stroke-linecap="round" stroke-linejoin="round"/>
<path d="M814.558 779.443C814.199 785.139 814.45 794.142 805.903 800.14L663.653 501.983L649.99 473.346C649.99 473.346 621.36 460.924 620.347 451.057C619.733 445.08 625.946 439.971 625.946 439.971C617.136 417.722 607.097 388.95 607.097 388.95C607.097 388.95 712.16 363.584 751.808 361.288C792.529 358.931 811.213 365.025 811.213 365.025C811.213 365.025 795.827 383.184 807.016 431.751C822.429 498.655 859.665 563.169 864.372 597.938C866.604 614.418 831.622 715.974 831.622 715.974C840.619 728.797 838.781 739.674 837.359 741.661C823.924 760.426 815.111 770.64 814.558 779.443Z" fill="#20450D"/>
<path d="M844.039 570.518C844.039 570.518 821.822 547.062 782.92 529.092M759.884 518.657C688.078 491.265 663.653 501.983 663.653 501.983M663.653 501.983L649.99 473.346C649.99 473.346 621.36 460.924 620.347 451.057C619.733 445.08 625.946 439.971 625.946 439.971C617.136 417.722 607.097 388.95 607.097 388.95C607.097 388.95 712.16 363.584 751.808 361.288C792.529 358.931 811.213 365.025 811.213 365.025C811.213 365.025 795.827 383.184 807.016 431.751C822.429 498.655 859.665 563.169 864.372 597.938C866.604 614.418 831.622 715.974 831.622 715.974C840.619 728.797 838.781 739.674 837.359 741.661C823.924 760.426 815.111 770.64 814.558 779.443C814.199 785.139 814.45 794.142 805.903 800.14L663.653 501.983Z" stroke="#20450D" stroke-width="5.22728" stroke-linecap="round" stroke-linejoin="round"/>
<path d="M801.434 221.746C801.434 221.746 790.632 234.716 768.571 237.655C747.071 240.519 734.384 233.621 713.031 237.429C685.974 242.254 651.118 273.567 651.118 273.567M651.118 273.567C651.118 273.567 679.674 234.625 690.358 208.226C702.934 177.153 671.333 165.361 663.151 199.161C653.217 240.203 651.118 273.567 651.118 273.567C651.118 273.567 696.978 282.168 728.881 284.175C760.784 286.181 761.846 266.641 730.11 264.645C698.373 262.648 651.118 273.567 651.118 273.567Z" stroke="#EFA229" stroke-width="5.22728" stroke-linecap="round" stroke-linejoin="round"/>
<path d="M654.035 279.159L579.967 313.715C579.967 313.715 562.221 287.241 548.246 272.505C535.274 258.826 524.989 254.315 511.842 240.804C487.286 215.567 482.516 187.489 482.516 187.489L712.873 45.1184C712.873 45.1184 729.854 60.8922 725.269 81.8452C721.989 96.8316 709.749 109.63 696.645 121.276C682.836 133.549 668.068 144.542 661.815 155.467C651.435 173.605 627.615 217.858 632.335 234.494C636.348 248.635 654.035 279.159 654.035 279.159Z" fill="#20450D"/>
<path d="M696.645 121.276C682.836 133.549 668.068 144.542 661.815 155.467C651.435 173.605 627.615 217.858 632.335 234.494C636.348 248.635 654.035 279.159 654.035 279.159L579.967 313.715C579.967 313.715 562.221 287.241 548.246 272.505C535.274 258.826 524.989 254.315 511.842 240.804C487.286 215.567 482.516 187.489 482.516 187.489L712.873 45.1184C712.873 45.1184 729.854 60.8922 725.269 81.8453C721.989 96.8316 709.749 109.63 696.645 121.276ZM696.645 121.276C696.645 121.276 679.882 128.009 655.143 118.666" stroke="#20450D" stroke-width="5.22728" stroke-linecap="round" stroke-linejoin="round"/>
<path d="M706.381 33.0032L714.209 45.1578L488.595 183.496C480.722 188.323 470.399 185.115 466.649 176.675C465.774 174.705 466.421 172.391 468.192 171.161L528.783 129.068C529.936 128.268 531.526 128.622 532.229 129.836C533.13 131.39 535.124 131.903 536.654 130.962C546.024 125.196 576.861 106.094 595.175 93.2253C629.513 69.0947 684.139 39.4694 699.593 31.2094C701.982 29.9326 704.914 30.726 706.381 33.0032Z" fill="#E9DECD" stroke="#20450D" stroke-width="5.22728" stroke-linecap="round" stroke-linejoin="round"/>
<circle cx="4.07685" cy="4.07685" r="4.07685" transform="matrix(-0.998028 -0.0627755 -0.0627755 0.998028 635.682 259.214)" fill="#EFA229"/>
<circle cx="4.07685" cy="4.07685" r="4.07685" transform="matrix(-0.998028 -0.0627755 -0.0627755 0.998028 626.029 230.83)" fill="#EFA229"/>
<circle cx="4.07685" cy="4.07685" r="4.07685" transform="matrix(-0.998028 -0.0627755 -0.0627755 0.998028 631.127 201.739)" fill="#EFA229"/>
<circle cx="4.07685" cy="4.07685" r="4.07685" transform="matrix(-0.998028 -0.0627755 -0.0627755 0.998028 640.8 177.838)" fill="#EFA229"/>
<circle cx="4.07685" cy="4.07685" r="4.07685" transform="matrix(-0.998028 -0.0627755 -0.0627755 0.998028 655.356 154.244)" fill="#EFA229"/>
<path d="M630.492 263.79L643.824 246.655" stroke="#EFA229" stroke-width="5.22728" stroke-linecap="round" stroke-linejoin="round"/>
<path d="M620.84 235.405L636.864 227.426" stroke="#EFA229" stroke-width="5.22728" stroke-linecap="round" stroke-linejoin="round"/>
<path d="M625.937 206.314L642.212 207.338" stroke="#EFA229" stroke-width="5.22728" stroke-linecap="round" stroke-linejoin="round"/>
<path d="M635.611 182.414L649.951 188.218" stroke="#EFA229" stroke-width="5.22728" stroke-linecap="round" stroke-linejoin="round"/>
<path d="M650.166 158.819L662.879 164.521" stroke="#EFA229" stroke-width="5.22728" stroke-linecap="round" stroke-linejoin="round"/>
<path d="M871.757 738.165L836.757 748.665C836.757 748.665 867.113 785.472 882.068 827.25C894.477 861.917 905.59 929.44 905.59 929.44L936.04 921.479C936.04 921.479 934.456 854.159 912.257 803.165C897.193 768.563 871.757 738.165 871.757 738.165Z" fill="#E9DECD" stroke="#20450D" stroke-width="3.13637" stroke-linecap="round" stroke-linejoin="round"/>
<path d="M359.71 656.925C417.236 753.842 557.93 751.949 557.93 751.949L482.388 672.303C482.388 672.303 348.427 637.914 359.71 656.925Z" fill="#20450D" stroke="#E9DECD" stroke-width="5.22728" stroke-linejoin="round"/>
<path d="M593.431 655.599L373.888 639.468C373.888 639.468 354.938 660.156 341.902 672.509C324.064 689.412 293.75 713.02 293.75 713.02L337.253 769.783L593.431 655.599Z" fill="#E9DECD" stroke="#20450D" stroke-width="5.22728" stroke-linejoin="round"/>
<path d="M431.704 724.534L428.376 734.955" stroke="#20450D" stroke-width="5.22728" stroke-linecap="round" stroke-linejoin="round"/>
<path d="M350.27 659.791L356.73 663.63" stroke="#20450D" stroke-width="5.22728" stroke-linecap="round" stroke-linejoin="round"/>
<path d="M358.682 759.017L359.131 767.199" stroke="#20450D" stroke-width="5.22728" stroke-linecap="round" stroke-linejoin="round"/>
<path d="M371.409 682.713L371.859 690.895" stroke="#20450D" stroke-width="5.22728" stroke-linecap="round" stroke-linejoin="round"/>
<path d="M369.774 724.28L374.806 730.098" stroke="#20450D" stroke-width="5.22728" stroke-linecap="round" stroke-linejoin="round"/>
<path d="M394.948 668.544L399.981 674.361" stroke="#20450D" stroke-width="5.22728" stroke-linecap="round" stroke-linejoin="round"/>
<path d="M327.713 727.633L329.722 721.444" stroke="#20450D" stroke-width="5.22728" stroke-linecap="round" stroke-linejoin="round"/>
<path d="M314.351 688.355L313.464 695.996" stroke="#20450D" stroke-width="5.22728" stroke-linecap="round" stroke-linejoin="round"/>
<path d="M448.014 689.542L447.127 697.183" stroke="#20450D" stroke-width="5.22728" stroke-linecap="round" stroke-linejoin="round"/>
<path d="M834.992 1013.12C894.537 993.295 925.955 918.766 925.955 918.766C925.955 918.766 906.319 853.212 889.589 820.411C869.426 780.882 836.756 747.045 836.756 747.045C815.318 745.53 809.076 757.425 809.076 757.425C809.076 757.425 805.415 745.366 797.809 742.278C790.953 739.494 783.198 743.665 783.198 743.665L747.155 657.35C747.155 657.35 750.887 636.274 744.527 629.67C739.71 624.668 732.315 621.82 732.315 621.82C732.315 621.82 702.56 566.403 679.208 528.304C665.639 506.167 651.544 490.207 631.989 479.55C612.393 468.871 605.08 466.972 583.552 469.734C553.726 473.56 501.67 513.082 501.67 513.082C501.67 513.082 493.334 511.553 483.398 519.049C467.347 531.158 443.722 584.241 443.722 584.241C443.722 584.241 433.431 585.483 421.587 592.649C377.439 619.365 356.489 657.504 356.489 657.504C356.489 657.504 409.634 673.781 453.313 685.25C503.712 698.484 557.853 751.138 557.853 751.138L562.302 737.611C562.302 737.611 569.957 731.97 571.195 727.757C572.433 723.544 568.747 719.224 568.747 719.224L579.687 713.681L576.623 724.539C576.623 724.539 571.931 737.321 575.241 744.491C577.499 749.382 583.479 753.619 583.479 753.619C583.479 753.619 577.245 765.465 581.286 773.648C584.258 779.666 590.505 784.485 590.505 784.485C590.505 784.485 597.408 839.933 611.424 892.659C624.497 941.84 644.099 978.012 693.989 1011.77C733.023 1038.18 775.447 1032.95 834.992 1013.12Z" fill="#46742E"/>
<path d="M559.76 624.577C560.074 662.387 579.988 692.93 579.687 713.681L576.623 724.539C576.623 724.539 571.931 737.321 575.241 744.491C577.499 749.382 583.479 753.619 583.479 753.619C583.479 753.619 577.245 765.465 581.286 773.648C584.258 779.666 590.505 784.485 590.505 784.485C590.505 784.485 597.408 839.933 611.424 892.659C624.497 941.84 644.099 978.012 693.989 1011.77C733.023 1038.18 775.447 1032.95 834.992 1013.12C894.537 993.295 925.955 918.766 925.955 918.766C925.955 918.766 906.319 853.212 889.589 820.411C869.426 780.882 836.756 747.045 836.756 747.045C815.318 745.53 809.076 757.425 809.076 757.425M579.687 713.681L568.747 719.224M579.687 713.681C579.687 713.681 572.481 637.785 619.053 567.593M579.687 713.681C579.687 713.681 571.148 649.623 582.09 583.716M493.572 626.195C537.728 654.193 568.747 719.224 568.747 719.224C568.747 719.224 572.433 723.544 571.195 727.757C569.957 731.97 562.302 737.611 562.302 737.611L557.853 751.138C557.853 751.138 503.712 698.484 453.313 685.25C409.634 673.781 356.489 657.504 356.489 657.504C356.489 657.504 377.439 619.365 421.587 592.649C433.431 585.483 443.722 584.241 443.722 584.241C443.722 584.241 467.347 531.158 483.398 519.049C493.334 511.553 501.67 513.082 501.67 513.082C501.67 513.082 553.726 473.56 583.552 469.734C605.08 466.972 612.393 468.871 631.989 479.55C651.544 490.207 665.639 506.167 679.208 528.304C702.56 566.403 732.315 621.82 732.315 621.82C732.315 621.82 739.71 624.668 744.527 629.67C750.887 636.274 747.155 657.35 747.155 657.35L783.198 743.665M568.747 719.224C568.747 719.224 544.77 656.471 502.732 601.901M783.198 743.665C783.198 743.665 790.953 739.494 797.809 742.278C805.415 745.366 809.076 757.425 809.076 757.425M783.198 743.665L791.811 765.371M809.076 757.425C809.076 757.425 806.188 790.097 804.337 811.031" stroke="#20450D" stroke-width="5.22728" stroke-linecap="round" stroke-linejoin="round"/>
<path d="M227.907 632.392C233.599 653.322 247.578 648.302 254.187 668.961C262.56 695.138 288.381 709.056 288.381 709.056M288.381 709.056C288.381 709.056 245.994 685.922 218.41 678.837C185.943 670.497 178.45 703.384 213.037 707.006C255.034 711.405 288.381 709.056 288.381 709.056C288.381 709.056 295.485 686.654 293.239 654.766C290.993 622.879 271.484 624.42 273.718 656.141C275.952 687.862 288.381 709.056 288.381 709.056Z" stroke="#EFA229" stroke-width="5.22728" stroke-linecap="round" stroke-linejoin="round"/>
<path d="M293.537 705.423L337.619 774.249C337.619 774.249 313.735 795.352 300.984 811.159C289.148 825.832 286.042 836.626 274.396 851.449C252.641 879.138 225.446 887.592 225.446 887.592L53.7577 678.171C53.7577 678.171 67.1379 659.247 88.5143 661.011C103.803 662.272 118.113 672.705 131.396 684.147C145.393 696.205 158.249 709.383 169.907 714.13C189.262 722.011 236.285 739.747 252.148 732.86C265.631 727.006 293.537 705.423 293.537 705.423Z" fill="#20450D"/>
<path d="M131.396 684.147C145.393 696.205 158.249 709.383 169.907 714.13C189.262 722.011 236.285 739.747 252.148 732.86C265.631 727.006 293.537 705.423 293.537 705.423L337.619 774.249C337.619 774.249 313.735 795.352 300.984 811.159C289.148 825.832 286.042 836.626 274.396 851.449C252.641 879.138 225.446 887.592 225.446 887.592L53.7577 678.171C53.7577 678.171 67.1379 659.247 88.5143 661.011C103.803 662.272 118.113 672.705 131.396 684.147ZM131.396 684.147C131.396 684.147 140.294 699.868 134.317 725.628" stroke="#20450D" stroke-width="5.22728" stroke-linecap="round" stroke-linejoin="round"/>
<path d="M44.0633 687.295L55.0712 677.922L222.132 883.178C227.962 890.34 226.152 900.998 218.285 905.835C216.448 906.964 214.069 906.629 212.615 905.038L162.852 850.569C161.906 849.533 162.046 847.91 163.155 847.052C164.576 845.953 164.82 843.909 163.684 842.517C156.726 833.995 133.7 805.966 118.514 789.523C90.0385 758.691 53.4245 708.481 43.1863 694.26C41.6037 692.062 42.0009 689.051 44.0633 687.295Z" fill="#E9DECD" stroke="#20450D" stroke-width="5.22728" stroke-linecap="round" stroke-linejoin="round"/>
<circle cx="4.07685" cy="4.07685" r="4.07685" transform="matrix(0.0702542 0.997529 0.997529 -0.0702542 276.205 726.262)" fill="#EFA229"/>
<circle cx="4.07685" cy="4.07685" r="4.07685" transform="matrix(0.0702542 0.997529 0.997529 -0.0702542 249.353 739.596)" fill="#EFA229"/>
<circle cx="4.07685" cy="4.07685" r="4.07685" transform="matrix(0.0702542 0.997529 0.997529 -0.0702542 219.843 738.405)" fill="#EFA229"/>
<circle cx="4.07685" cy="4.07685" r="4.07685" transform="matrix(0.0702542 0.997529 0.997529 -0.0702542 194.869 731.99)" fill="#EFA229"/>
<circle cx="4.07685" cy="4.07685" r="4.07685" transform="matrix(0.0702542 0.997529 0.997529 -0.0702542 169.552 720.695)" fill="#EFA229"/>
<path d="M281.429 730.798L262.676 719.858" stroke="#EFA229" stroke-width="5.22728" stroke-linecap="round" stroke-linejoin="round"/>
<path d="M254.577 744.133L244.541 729.309" stroke="#EFA229" stroke-width="5.22728" stroke-linecap="round" stroke-linejoin="round"/>
<path d="M225.066 742.941L223.921 726.674" stroke="#EFA229" stroke-width="5.22728" stroke-linecap="round" stroke-linejoin="round"/>
<path d="M200.093 736.527L203.942 721.543" stroke="#EFA229" stroke-width="5.22728" stroke-linecap="round" stroke-linejoin="round"/>
<path d="M174.776 725.231L178.74 711.874" stroke="#EFA229" stroke-width="5.22728" stroke-linecap="round" stroke-linejoin="round"/>
<circle cx="29.3533" cy="29.3533" r="29.3533" transform="matrix(-0.997529 0.0702541 0.0702541 0.997529 261.507 784.512)" fill="#EFA229"/>
<path d="M227.748 827.045C228.526 822.809 228.243 822.883 229.614 818.802C226.828 818.382 222.366 819.271 219.818 819.924C217.694 820.469 215.498 820.777 213.389 821.366C212.666 821.568 210.942 822.686 211.252 822.05C212.06 820.39 214.618 818.621 215.957 817.414C218.297 815.307 221.359 813.546 224.393 812.313C224.652 812.208 225.812 811.99 225.511 811.575C223.199 808.388 220.397 805.105 219.494 801.306C219.347 800.692 218.396 797.169 220.17 798.209C223.232 800.002 225.073 802.025 227.882 804.151C229.263 805.195 230.243 805.877 231.481 807.069C231.822 807.397 232.299 808.103 232.817 808.246C233.552 808.448 233.935 807.378 234.181 806.98C235.828 804.308 238.061 800.751 240.194 798.435C240.808 797.768 243.633 794.337 244.813 794.294C245.872 794.254 244.528 798.236 244.455 798.454L244.454 798.457C243.471 801.37 243.757 806.168 242.166 808.8C241.999 809.075 239.968 811.506 240.492 811.569C245.342 812.149 250.193 811.116 255.116 811.764C255.476 811.812 259.877 812.156 257.809 813.201C256.201 814.013 254.424 814.701 252.707 815.306C250.048 816.243 247.396 817.146 244.632 817.829C242.958 818.243 243.085 818.297 243.659 819.755C244.943 823.018 245.519 826.599 246.125 829.973C246.52 832.174 247.429 834.27 247.831 836.444C248.152 838.183 245.177 834.817 245.028 834.645C242.493 831.716 239.912 828.685 238.241 825.267C238.206 825.196 236.894 821.436 236.612 821.506C235.566 821.762 234.504 823.751 234.025 824.431C231.601 827.871 229.464 831.442 227.356 835.064C227.238 835.268 225.448 838.495 225.552 837.688C226.014 834.099 227.095 830.595 227.748 827.045Z" fill="#20450D" stroke="#20450D" stroke-width="5.22728" stroke-linecap="round" stroke-linejoin="round"/>
<path d="M1196.66 989.176V792.62L1187.3 787.94L849.678 1002.55L847.672 1215.15L857.7 1221.16L1196.66 989.176Z" fill="#7EAA00"/>
<path d="M849.678 1218.49L848.341 1001.88L518.742 841.424V1058.04L849.678 1218.49Z" fill="#7EAA00"/>
<path d="M554.367 949.266C554.367 941.943 555.555 964.281 553.942 971.229M542.094 941.956C540.19 950.462 542.094 960.872 542.094 968.72M566.637 967.047C564.772 980.802 559.173 995.044 547.038 991.623C540.05 989.653 532.022 982.109 531.092 971.915" stroke="#46742E" stroke-width="5.22728" stroke-linecap="round"/>
<path d="M898.778 1172.88C898.169 1170.2 896.824 1166.94 895.225 1163.41M895.225 1163.41C893.774 1160.2 892.113 1156.77 890.602 1153.34M895.225 1163.41C896.596 1163.92 897.941 1164.57 899.265 1165.35C901.162 1166.48 902.05 1167.45 903.433 1168.93C903.942 1169.48 902.576 1167.71 902.203 1167.06C899.115 1161.7 896.52 1156.1 893.961 1150.47C893.956 1150.46 893.951 1150.45 893.945 1150.44M895.225 1163.41C891.827 1162.13 888.269 1161.7 884.458 1162.13C881.658 1162.43 880.46 1162.98 878.063 1163.84C876.661 1164.35 877.339 1164.17 878.873 1163C882.896 1159.91 886.768 1156.65 890.602 1153.34M890.602 1153.34C889.38 1150.56 888.255 1147.79 887.419 1145.14C882.823 1130.59 893.057 1148.54 893.945 1150.44M890.602 1153.34C891.718 1152.37 892.832 1151.41 893.945 1150.44M893.945 1150.44C894.832 1149.67 895.719 1148.89 896.607 1148.12C902.204 1143.27 907.794 1138.77 913.701 1134.38" stroke="#46742E" stroke-width="5.22728" stroke-linecap="round"/>
<path d="M587.59 1014.27C590.175 1022.54 589.631 1022.43 593.272 1030.32C588.224 1031.51 579.718 1030.33 574.82 1029.37C570.739 1028.56 566.587 1028.24 562.522 1027.34C561.128 1027.04 557.631 1025.05 558.377 1026.27C560.322 1029.44 565.539 1032.61 568.345 1034.83C573.248 1038.69 579.398 1041.78 585.35 1043.82C585.859 1044 588.066 1044.28 587.621 1045.14C584.198 1051.74 579.893 1058.59 579.245 1066.22C579.14 1067.45 578.327 1074.53 581.333 1072.25C586.522 1068.31 589.388 1064.08 594.019 1059.51C596.294 1057.27 597.927 1055.8 599.898 1053.28C600.441 1052.59 601.134 1051.13 602.056 1050.78C603.362 1050.29 604.361 1052.35 604.924 1053.11C608.697 1058.18 613.792 1064.92 618.371 1069.23C619.688 1070.47 625.847 1076.89 628.045 1076.82C630.017 1076.76 626.454 1069.06 626.259 1068.64L626.256 1068.63C623.65 1063 622.884 1053.48 619.226 1048.48C618.843 1047.96 614.424 1043.41 615.378 1043.22C624.207 1041.45 633.472 1042.87 642.417 1040.95C643.071 1040.81 651.132 1039.57 647.019 1037.77C643.821 1036.37 640.343 1035.24 636.998 1034.26C631.82 1032.75 626.663 1031.31 621.359 1030.31C618.145 1029.71 618.366 1029.59 619.036 1026.63C620.533 1020.02 620.635 1012.86 620.846 1006.11C620.984 1001.71 622.103 997.451 622.26 993.101C622.386 989.621 617.783 996.66 617.554 997.02C613.647 1003.14 609.683 1009.46 607.51 1016.43C607.465 1016.58 606.049 1024.18 605.508 1024.08C603.501 1023.71 600.997 1019.91 599.925 1018.63C594.506 1012.14 589.583 1005.36 584.701 998.465C584.427 998.078 580.239 991.929 580.649 993.51C582.475 1000.55 585.423 1007.33 587.59 1014.27Z" stroke="#46742E" stroke-width="5.22728" stroke-linecap="round" stroke-linejoin="round"/>
<path d="M851.709 1000.18L1188.47 788.168C1192.32 785.745 1197.33 788.511 1197.33 793.058V985.462C1197.33 987.368 1196.39 989.151 1194.82 990.229L858.054 1220.98C854.219 1223.61 849.009 1220.87 849.009 1216.22V1005.07C849.009 1003.08 850.029 1001.24 851.709 1000.18Z" stroke="#20450D" stroke-width="5.22728" stroke-linecap="round" stroke-linejoin="round"/>
<path d="M1106.15 983.805L1082.77 975.192C1080.5 974.355 1078.99 972.19 1078.99 969.769V960.144C1078.99 956.09 1083.06 953.296 1086.84 954.749L1132.48 972.264C1143.48 976.488 1145.24 991.324 1135.52 997.995L1065.56 1046.02C1059.35 1050.29 1051.65 1051.78 1044.29 1050.15L987.916 1037.65C985.271 1037.06 983.389 1034.71 983.389 1032.01V1021.82C983.389 1018.11 986.834 1015.37 990.451 1016.19L1039.85 1027.44C1046.93 1029.05 1054.36 1027.76 1060.48 1023.87L1107.26 994.102C1111.29 991.535 1110.64 985.458 1106.15 983.805Z" fill="#20450D" stroke="#20450D" stroke-width="3.13637" stroke-linecap="round" stroke-linejoin="round"/>
<path d="M848.341 1002.55L519.411 841.424M517.405 1056.7L853.021 1219.83" stroke="#20450D" stroke-width="5.22728" stroke-linecap="round" stroke-linejoin="round"/>
<path d="M1040.4 898.619C1128.01 838.531 1199.09 752.567 1216.44 704.375C1222.36 687.921 1217.47 666.706 1203.53 653.559C1188.38 639.267 1162.54 634.51 1128.29 655.773C1075.84 688.338 1065.46 756.128 994.018 818.702C954.104 853.662 822.017 936.42 822.017 936.42C822.017 936.42 808.002 928.623 788.335 919.737C768.668 910.851 751.693 904.647 751.693 904.647C751.693 904.647 705.686 915.491 703.11 922.035C700.042 929.828 705.971 946.546 705.971 946.546C705.971 946.546 700.392 953.204 702.057 957.635C707.251 971.458 716.546 971.621 716.546 971.621C716.546 971.621 722.037 979.6 727.071 983.249C732.105 986.899 743.316 990.901 743.316 990.901C743.316 990.901 747.564 994.485 751.445 996.408C758.181 999.744 758.102 998.082 762.521 996.959C768.843 995.354 779.656 978.306 779.656 978.306C779.656 978.306 802.436 988.984 819.045 987.65C836.999 986.208 866.436 968.883 866.436 968.883C866.436 968.883 993.826 930.559 1040.4 898.619Z" fill="#E9DECD" stroke="#20450D" stroke-width="5.22728" stroke-linecap="round" stroke-linejoin="round"/>
<path d="M751.858 948.351C751.858 948.351 751.726 956.332 750.917 961.209C749.33 970.784 739.813 980.421 740.518 983.199C741.224 985.977 741.619 987.534 742.325 990.312M737.971 936.736C737.971 936.736 736.509 940.461 736.215 943.071C734.808 955.54 715.41 955.657 717.324 968.059C717.567 969.632 718.328 972.01 718.328 972.01M704.993 949.318C704.993 949.318 706.766 947.614 708.342 945.944C713.071 940.93 721.277 933.94 721.277 933.94C721.277 933.94 741.044 912.4 747.366 910.794C751.954 909.629 756.862 911.747 758.656 915.498M717.963 927.516C721.136 930.075 721.277 933.94 721.277 933.94M778.075 978.707C771.941 977.742 767.777 974.593 767.777 974.593M767.777 974.593C767.777 974.593 768.387 981.76 768.015 985.469C767.643 989.177 765.87 993.585 765.87 993.585M767.777 974.593C767.777 974.593 763.06 982.521 753 989.283M767.777 974.593C767.777 974.593 772.506 970.027 775.654 965.862M767.777 974.593C767.777 974.593 767.563 970.441 764.967 963.529M757.63 924.706C757.63 924.706 765.016 923.978 769.231 940.574" stroke="#20450D" stroke-width="5.22728" stroke-linecap="round" stroke-linejoin="round"/>
</svg>
