<svg width="88" height="71" viewBox="0 0 88 71" fill="none" xmlns="http://www.w3.org/2000/svg">
<path d="M33.001 67.8624C33.8191 62.9201 33.8025 56.487 33.5475 49.4133M33.5475 49.4133C33.3162 42.9958 32.8887 36.0512 32.7102 29.2143M33.5475 49.4133C35.4946 51.2273 37.3037 53.2542 38.9856 55.4967C41.3944 58.7085 42.2142 60.9685 43.5152 64.4266C43.9949 65.7015 42.9192 61.7647 42.7387 60.4146C41.2428 49.2241 40.7375 37.9732 40.3121 26.7011C40.3113 26.679 40.3102 26.6554 40.309 26.6304M33.5475 49.4133C28.722 44.9173 23.0497 41.7285 16.3697 39.8047C11.4598 38.3906 9.07375 38.4889 4.4632 38.284C1.76603 38.1642 3.02473 38.3339 6.40447 37.4105C15.2699 34.9882 24.0062 32.1515 32.7102 29.2143M32.7102 29.2143C32.5658 23.6862 32.5843 18.2285 33.001 13.1768C35.2903 -14.5778 40.1207 22.8203 40.309 26.6304M32.7102 29.2143C35.2451 28.3589 37.7772 27.495 40.309 26.6304M40.309 26.6304C42.3266 25.9413 44.344 25.2518 46.3624 24.5657C59.0853 20.2409 71.5543 16.4996 84.4762 13.1768" stroke="#EFA229" stroke-width="6" stroke-linecap="round"/>
</svg>
