<svg width="44" height="44" viewBox="0 0 44 44" fill="none" xmlns="http://www.w3.org/2000/svg">
<path fill-rule="evenodd" clip-rule="evenodd" d="M11 21.8328V28.6656H14.7778C19.0456 28.6656 19.9994 28.4907 21.1011 27.5064C21.9264 26.7688 22.2511 25.9934 22.2511 24.7594C22.2511 23.3993 21.697 22.3201 20.6904 21.72L19.8907 21.2429L20.4768 20.8409C20.8302 20.5985 21.2051 20.0899 21.421 19.5599C21.7391 18.7787 21.7551 18.563 21.5649 17.6253C21.4092 16.857 21.2038 16.434 20.8104 16.0713C19.8533 15.1887 18.7748 15 14.6871 15H11V21.8328ZM25.336 16.5697V17.216H28.0581H30.7801V16.5697V15.9233H28.0581H25.336V16.5697ZM13.9035 18.9863V20.5719L16.0067 20.5098C17.9613 20.4522 18.1346 20.4169 18.4566 20.0118C18.9509 19.39 18.906 18.412 18.3576 17.8541C17.9386 17.4275 17.794 17.4007 15.9078 17.4007H13.9035V18.9863ZM27.2131 18.6943C25.6044 19.0326 24.6307 19.7831 23.86 21.2788C23.2882 22.3881 23.2357 25.2459 23.7685 26.2649C24.2418 27.1701 25.1223 28.0794 25.942 28.5092C26.9447 29.0349 28.8652 29.1616 29.9807 28.7754C31.2592 28.333 32.3188 27.2907 32.6739 26.1264C32.7962 25.7256 32.7597 25.7109 31.6526 25.7109C30.6874 25.7109 30.4671 25.7718 30.2694 26.0939C29.7864 26.8809 28.0896 27.248 27.1562 26.7673C26.5844 26.4728 25.8804 25.4163 25.8804 24.8525V24.4182H29.4401H33L32.927 23.264C32.8459 21.9794 32.3124 20.6758 31.5432 19.8834C30.5725 18.8836 28.725 18.3761 27.2131 18.6943ZM27.2415 20.797C26.5637 21.1041 26.1459 21.5894 25.992 22.2483L25.8735 22.7561H28.0546C30.442 22.7561 30.5079 22.7194 29.9789 21.6786C29.5363 20.8075 28.1809 20.3711 27.2415 20.797ZM13.9035 24.5105V26.4495L15.945 26.4488C17.6485 26.4482 18.0825 26.3886 18.5665 26.0883C19.4967 25.511 19.6158 23.9354 18.7885 23.1511C18.2992 22.6873 17.663 22.5715 15.6048 22.5715H13.9035V24.5105Z" fill="#E9DECD"/>
<circle cx="22" cy="22" r="20" stroke="#E9DECD" stroke-width="2.22222"/>
</svg>
