<svg width="104" height="104" viewBox="0 0 104 104" fill="none" xmlns="http://www.w3.org/2000/svg">
<path d="M51.781 15.0399C48.1148 22.9347 43.4823 26.096 42.5577 35.3359C36.628 33.7562 36.621 31.0524 32.7066 28.4808C28.8929 25.9753 27.0604 23.8451 22.784 22.3259C19.9511 21.3195 15.2063 19.2826 15.2539 20.8049C15.3781 24.7801 18.0237 29.0571 20.4787 34.0247C23.5324 40.2037 24.9225 43.8597 29.8633 48.9174C30.0439 49.1023 29.3411 50.2918 22.784 51.9052C12.9773 54.3182 3.78494 54.8722 3.22869 55.1918C-1.70366 58.0262 9.47536 61.2889 14.4861 63.1992C21.5203 65.8809 29.2262 63.7153 33.6932 63.1992C37.3857 62.7725 28.1473 72.9264 25.4533 79.5724C23.0965 85.3863 16.568 95.7898 20.4787 94.87C24.1657 94.0028 38.508 85.0886 41.1207 82.3212C45.1827 78.0187 46.8441 70.2052 48.0046 70.3724C49.65 70.6093 49.4551 73.0524 49.5878 74.0503C50.4777 80.7478 52.7614 82.8701 54.9382 89.2881C55.5644 91.134 59.095 100.678 61.4083 101.785C63.484 102.778 63.9109 100.2 64.9826 96.8414C66.7927 91.1694 68.2776 86.1545 68.2776 78.5442C68.1924 77.8568 68.1127 71.3019 69.2136 71.6316C78.7258 78.1014 81.4716 77.1444 91.8648 80.1229C92.6248 80.3407 103.309 82.3957 100.123 78.5442C97.6462 75.5498 94.7205 72.6557 91.84 69.976C87.3798 65.8268 80.5437 60.5444 75.6471 56.8052C72.6805 54.5398 73.1964 56.1953 75.6471 53.8134C81.1288 48.4853 86.0799 48.1671 91.84 43.2406C96.0057 39.6776 98.8943 37.085 101.643 33.1418C103.843 29.9874 95.3576 30.0344 90.1932 31.3491C83.6616 33.0117 75.164 34.0247 71.5663 35.3359C68.4328 36.4779 65.1035 38.482 64.603 38.1015C64.2886 37.8625 64.4898 35.4092 64.603 33.6198C65.1959 24.2478 62.4242 16.7099 59.9536 8.67444C59.1813 6.16242 58.287 0.631663 57.7717 2.3124C55.8772 3.18644 54.095 10.0568 51.781 15.0399Z" fill="#EFA229" stroke="#EFA229" stroke-width="4" stroke-linecap="round" stroke-linejoin="round"/>
</svg>
