<svg width="893" height="868" viewBox="0 0 893 868" fill="none" xmlns="http://www.w3.org/2000/svg">
<path d="M444.518 124.536C412.928 190.594 373.012 217.046 365.045 294.359C313.951 281.141 313.891 258.517 280.162 237C247.301 216.036 231.511 198.212 194.663 185.5C170.253 177.079 129.369 160.036 129.779 172.773C130.849 206.035 153.646 241.823 174.8 283.388C201.112 335.09 213.089 365.68 255.662 408C257.218 409.547 251.163 419.5 194.663 433C110.163 453.19 30.956 457.825 26.1631 460.5C-16.3369 484.216 79.988 511.516 123.163 527.5C183.775 549.939 250.173 531.819 288.663 527.5C320.48 523.93 240.877 608.891 217.663 664.5C197.356 713.147 141.102 800.196 174.8 792.5C206.568 785.244 330.15 710.656 352.663 687.5C387.663 651.5 401.979 586.122 411.978 587.52C426.156 589.503 424.477 609.945 425.62 618.295C433.288 674.335 452.966 692.093 471.723 745.794C477.118 761.24 507.54 841.096 527.472 850.357C545.358 858.668 549.037 837.094 558.271 808.996C573.868 761.536 586.662 719.575 586.662 655.897C585.929 650.145 585.242 595.299 594.728 598.057C676.69 652.192 700.349 644.184 789.904 669.107C796.452 670.929 888.514 688.123 861.062 655.897C839.719 630.842 814.51 606.626 789.69 584.204C751.258 549.487 692.354 505.287 650.162 474C624.6 455.045 629.046 468.897 650.162 448.966C697.396 404.384 740.057 401.722 789.69 360.5C825.584 330.688 850.474 308.994 874.162 276C893.111 249.607 820 250 775.5 261C719.22 274.912 646 283.388 615 294.359C588 303.914 559.312 320.684 555 317.5C552.291 315.5 554.025 294.972 555 280C560.109 201.581 536.226 138.509 514.938 71.274C508.283 50.2551 500.578 3.97744 496.138 18.0407C479.814 25.3541 464.457 82.8409 444.518 124.536Z" stroke="#46742E" stroke-width="30" stroke-linecap="round" stroke-linejoin="round"/>
</svg>
