<svg width="44" height="44" viewBox="0 0 44 44" fill="none" xmlns="http://www.w3.org/2000/svg">
<path d="M22.1136 16.4136C18.9606 16.4136 16.4174 18.9574 16.4174 22.1111C16.4174 25.2648 18.9606 27.8086 22.1136 27.8086C25.2666 27.8086 27.8098 25.2648 27.8098 22.1111C27.8098 18.9574 25.2666 16.4136 22.1136 16.4136ZM22.1136 25.8152C20.076 25.8152 18.4103 24.1541 18.4103 22.1111C18.4103 20.0681 20.0711 18.407 22.1136 18.407C24.1561 18.407 25.8169 20.0681 25.8169 22.1111C25.8169 24.1541 24.1511 25.8152 22.1136 25.8152ZM29.3714 16.1806C29.3714 16.9194 28.7765 17.5095 28.0428 17.5095C27.3041 17.5095 26.7142 16.9144 26.7142 16.1806C26.7142 15.4467 27.3091 14.8516 28.0428 14.8516C28.7765 14.8516 29.3714 15.4467 29.3714 16.1806ZM33.1441 17.5293C33.0599 15.7492 32.6533 14.1723 31.3495 12.8731C30.0506 11.574 28.4741 11.1674 26.6944 11.0781C24.8601 10.974 19.3621 10.974 17.5279 11.0781C15.7531 11.1624 14.1766 11.569 12.8727 12.8682C11.5689 14.1673 11.1673 15.7442 11.0781 17.5244C10.974 19.3591 10.974 24.8582 11.0781 26.6929C11.1624 28.4731 11.5689 30.0499 12.8727 31.3491C14.1766 32.6483 15.7481 33.0549 17.5279 33.1441C19.3621 33.2483 24.8601 33.2483 26.6944 33.1441C28.4741 33.0598 30.0506 32.6532 31.3495 31.3491C32.6484 30.0499 33.0549 28.4731 33.1441 26.6929C33.2483 24.8582 33.2483 19.364 33.1441 17.5293ZM30.7744 28.6615C30.3877 29.6334 29.6392 30.3822 28.6625 30.7739C27.2 31.354 23.7298 31.2202 22.1136 31.2202C20.4974 31.2202 17.0222 31.3491 15.5647 30.7739C14.593 30.3871 13.8444 29.6384 13.4527 28.6615C12.8727 27.1987 13.0066 23.7276 13.0066 22.1111C13.0066 20.4946 12.8777 17.0186 13.4527 15.5607C13.8394 14.5888 14.588 13.8401 15.5647 13.4483C17.0271 12.8682 20.4974 13.0021 22.1136 13.0021C23.7298 13.0021 27.205 12.8731 28.6625 13.4483C29.6342 13.8351 30.3828 14.5839 30.7744 15.5607C31.3545 17.0235 31.2206 20.4946 31.2206 22.1111C31.2206 23.7276 31.3545 27.2037 30.7744 28.6615Z" fill="#E9DECD"/>
<circle cx="22" cy="22" r="20" stroke="#E9DECD" stroke-width="2.22222"/>
</svg>
