<svg width="44" height="44" viewBox="0 0 44 44" fill="none" xmlns="http://www.w3.org/2000/svg">
<path d="M19.9486 28.9998V18.8667L23.1486 18.8669V19.9335C23.1486 19.9335 25.2817 17.2669 28.4819 18.8668C30.6152 19.9333 30.6152 22.6001 30.6152 22.6001V29H27.4152V23.1335C27.4152 21.9553 26.4601 21.0002 25.2819 21.0002C24.1037 21.0002 23.1486 21.9553 23.1486 23.1335V29L19.9486 28.9998Z" fill="#E9DECD"/>
<path d="M15.1486 28.9997V18.8665H18.3486V28.9997H15.1486Z" fill="#E9DECD"/>
<path d="M18.8819 15.1333C18.8819 16.3115 17.9268 17.2666 16.7486 17.2666C15.5704 17.2666 14.6152 16.3115 14.6152 15.1333C14.6152 13.9551 15.5704 13 16.7486 13C17.9268 13 18.8819 13.9551 18.8819 15.1333Z" fill="#E9DECD"/>
<circle cx="22" cy="22" r="20" stroke="#E9DECD" stroke-width="2.22222"/>
</svg>
