<svg width="599" height="13" viewBox="0 0 599 13" fill="none" xmlns="http://www.w3.org/2000/svg">
<path d="M549.381 7.21326C550.761 7.24762 551.844 8.39427 551.798 9.77439C551.753 11.1545 550.597 12.2455 549.217 12.2111L549.299 9.71218L549.381 7.21326ZM305.165 3.93126L305.126 6.43087L305.165 3.93126ZM239.013 5.31083L239.056 2.81124L239.013 5.31083ZM386.185 3.86312L386.176 6.36279L386.185 3.86312ZM578.586 4.76115L578.586 2.26153L578.586 4.76115ZM594.883 4.03732L595.662 1.65575L594.883 4.03732ZM553.694 3.28843L553.662 5.78809L553.694 3.28843ZM332.196 2.64737L332.168 5.14705L332.196 2.64737ZM58.4351 4.00211L58.4113 1.50279L58.4351 4.00211ZM2.64259 8.35878C1.26399 8.44825 0.0826211 7.40399 0.00403993 6.02635C-0.0746022 4.64871 0.97926 3.45938 2.35793 3.3699L2.50026 5.86434L2.64259 8.35878ZM549.299 9.71218L549.217 12.2111C467.789 10.1839 386.581 7.07156 305.126 6.43087L305.165 3.93126L305.205 1.43164C386.715 2.07275 468.044 5.18832 549.381 7.21326L549.299 9.71218ZM305.165 3.93126L305.126 6.43087C294.118 6.34429 272.087 6.63775 255.552 6.97895C247.28 7.14963 240.42 7.33155 237.013 7.48248C236.156 7.52048 235.555 7.55494 235.213 7.58398C234.994 7.60264 235.019 7.60848 235.135 7.58286C235.164 7.57642 235.314 7.54411 235.503 7.46725C235.591 7.43133 235.8 7.34135 236.034 7.16956C236.217 7.03553 236.794 6.57945 236.995 5.71262C237.241 4.65494 236.759 3.84514 236.396 3.4561C236.082 3.12036 235.755 2.96125 235.643 2.90926C235.388 2.79009 235.175 2.74745 235.147 2.74141C234.996 2.7092 234.94 2.71601 235.184 2.73032C235.358 2.74056 235.614 2.75116 235.965 2.76135C236.664 2.78163 237.681 2.79861 239.056 2.81124L239.013 5.31083L238.97 7.81042C237.584 7.79768 236.529 7.78034 235.78 7.75863C235.408 7.74782 235.096 7.73551 234.851 7.72109C234.675 7.71074 234.348 7.69114 234.066 7.63092C234.005 7.61788 233.768 7.56815 233.498 7.44178C233.378 7.38619 233.046 7.22345 232.729 6.88407C232.362 6.49138 231.878 5.67791 232.125 4.61654C232.328 3.74602 232.907 3.28622 233.095 3.14845C233.334 2.97292 233.55 2.87917 233.648 2.83946C233.855 2.75503 234.032 2.71506 234.096 2.70086C234.354 2.64422 234.652 2.61762 234.829 2.60257C235.281 2.5642 235.969 2.5262 236.831 2.48799C240.305 2.33408 247.222 2.1512 255.488 1.98063C272.028 1.63933 294.12 1.34445 305.205 1.43164L305.165 3.93126ZM239.013 5.31083L239.056 2.81124C288.114 3.26181 337.038 1.5813 386.194 1.36345L386.185 3.86312L386.176 6.36279C337.284 6.57947 288.009 8.26081 238.97 7.81042L239.013 5.31083ZM386.185 3.86312L386.194 1.36345C418.272 1.22129 450.373 1.57334 482.445 1.89696C514.523 2.22065 546.573 2.51592 578.586 2.26153L578.586 4.76115L578.586 7.26076C546.523 7.51556 514.43 7.21975 482.355 6.8961C450.273 6.57237 418.211 6.22082 386.176 6.36279L386.185 3.86312ZM578.586 4.76115L578.586 2.26153C579.995 2.25033 582.021 2.29106 584.143 2.33375C586.287 2.37687 588.552 2.42263 590.502 2.42514C592.521 2.42774 593.993 2.38119 594.664 2.28149C594.837 2.2558 594.792 2.24849 594.648 2.30374C594.586 2.32723 594.325 2.4283 594.039 2.67469C593.73 2.93978 593.187 3.57048 593.205 4.54783C593.222 5.4375 593.701 5.98335 593.879 6.16148C594.081 6.36305 594.258 6.45985 594.29 6.47702C594.365 6.51825 594.339 6.49371 594.105 6.41888L594.883 4.03732L595.662 1.65575C595.993 1.76155 596.377 1.90038 596.721 2.08918C596.887 2.18014 597.164 2.34678 597.431 2.61442C597.675 2.85864 598.187 3.4668 598.205 4.4152C598.224 5.45128 597.651 6.13715 597.282 6.45399C596.935 6.75215 596.584 6.90158 596.405 6.97023C596.025 7.11579 595.633 7.18595 595.361 7.22636C594.254 7.39106 592.394 7.42702 590.456 7.42452C588.45 7.42194 586.134 7.37499 584.003 7.33212C581.851 7.28882 579.909 7.25025 578.586 7.26076L578.586 4.76115ZM594.883 4.03732L594.105 6.41888C592.967 6.05508 590.214 5.76551 586.279 5.60277C582.476 5.44552 577.904 5.41388 573.377 5.4424C564.5 5.49832 555.423 5.79661 553.662 5.78809L553.694 3.28843L553.725 0.788762C555.608 0.797866 564.094 0.501631 573.385 0.443108C577.942 0.414403 582.605 0.445566 586.525 0.607653C590.312 0.764264 593.768 1.05058 595.662 1.65575L594.883 4.03732ZM553.694 3.28843L553.662 5.78809C479.831 5.43111 406.011 5.40323 332.168 5.14705L332.196 2.64737L332.225 0.147693C406.04 0.403779 479.897 0.431787 553.725 0.788762L553.694 3.28843ZM332.196 2.64737L332.168 5.14705C240.904 4.83043 149.587 4.91367 58.459 6.50142L58.4351 4.00211L58.4113 1.50279C149.591 -0.0858636 240.949 -0.168967 332.225 0.147693L332.196 2.64737ZM58.4351 4.00211L58.459 6.50142C39.8071 6.8264 21.044 7.16452 2.64259 8.35878L2.50026 5.86434L2.35793 3.3699C20.8969 2.16671 39.7777 1.82745 58.4113 1.50279L58.4351 4.00211Z" fill="#EFA229"/>
</svg>
