<svg width="774" height="12" viewBox="0 0 774 12" fill="none" xmlns="http://www.w3.org/2000/svg">
<path d="M701.352 5.86241C702.733 5.85204 703.852 4.72434 703.852 3.34361C703.852 1.96287 702.732 0.85197 701.352 0.862331L701.352 3.36237L701.352 5.86241ZM441.794 4.54927L441.766 7.04936L441.794 4.54927ZM150.237 5.31327L150.267 7.8129L150.281 7.81263L150.295 7.81221L150.237 5.31327ZM2.49985 8.92233L2.44988 6.42316C1.08039 6.46067 -0.0120354 7.59319 5.97493e-05 8.9629C0.0121549 10.3326 1.12426 11.4293 2.49403 11.4224L2.49985 8.92233ZM130.111 8.27989L130.102 10.78L130.111 8.27989ZM485.639 2.58901L485.627 5.08911L485.639 2.58901ZM722.965 3.66256L723.021 1.16274L722.965 3.66256ZM771.274 7.54809C772.652 7.62472 773.839 6.56924 773.926 5.19059C774.013 3.81195 772.966 2.63222 771.588 2.55558L771.431 5.05184L771.274 7.54809ZM701.352 3.36237L701.352 0.862331C658.816 1.18155 484.305 2.22266 441.823 2.04918L441.794 4.54927L441.766 7.04936C484.283 7.22298 658.827 6.18155 701.352 5.86241L701.352 3.36237ZM441.794 4.54927L441.823 2.04918C386.277 1.82236 214.925 0.83444 150.179 2.81433L150.237 5.31327L150.295 7.81221C214.928 5.83577 386.15 6.82225 441.766 7.04936L441.794 4.54927ZM150.237 5.31327L150.207 2.81363C122.517 3.3531 85.576 4.25553 55.5615 5.02299C40.5535 5.40674 27.2758 5.75677 17.7501 6.01087C12.9872 6.13792 9.16224 6.24099 6.52799 6.3123C5.21086 6.34795 4.19139 6.37566 3.50118 6.39447C3.15607 6.40387 2.89328 6.41104 2.71675 6.41586C2.62848 6.41827 2.56178 6.4201 2.51714 6.42132C2.49481 6.42193 2.47801 6.42239 2.46678 6.42269C2.46116 6.42285 2.45694 6.42296 2.45412 6.42304C2.45271 6.42308 2.45165 6.42311 2.45095 6.42313C2.45024 6.42315 2.44988 6.42316 2.49985 8.92233C2.54983 11.4215 2.55018 11.4215 2.55087 11.4215C2.55158 11.4214 2.55263 11.4214 2.55403 11.4214C2.55683 11.4213 2.56104 11.4212 2.56664 11.421C2.57783 11.4207 2.59461 11.4203 2.6169 11.4197C2.66148 11.4184 2.72812 11.4166 2.81632 11.4142C2.99272 11.4094 3.25538 11.4022 3.60035 11.3928C4.2903 11.374 5.30948 11.3463 6.62631 11.3107C9.25998 11.2394 13.0842 11.1363 17.8464 11.0093C27.3708 10.7552 40.6466 10.4053 55.6524 10.0216C85.6655 9.25415 122.593 8.35205 150.267 7.8129L150.237 5.31327ZM2.49985 8.92233C2.49403 11.4224 2.4945 11.4224 2.49545 11.4224C2.4964 11.4224 2.49782 11.4224 2.49971 11.4224C2.50349 11.4224 2.50916 11.4223 2.5167 11.4223C2.53177 11.4222 2.55432 11.4221 2.58424 11.4219C2.64407 11.4216 2.73334 11.4212 2.85113 11.4206C3.0867 11.4194 3.4363 11.4176 3.89244 11.4153C4.80472 11.4107 6.14314 11.4039 7.84771 11.3953C11.2568 11.378 16.1306 11.3534 21.9889 11.3237C33.7056 11.2644 49.3607 11.1852 65.1146 11.1057C96.6242 10.9466 128.524 10.786 130.102 10.78L130.111 8.27989L130.12 5.7798C128.538 5.78582 96.6322 5.94644 65.1263 6.10554C49.3724 6.18509 33.7173 6.26427 22.0006 6.32356C16.1422 6.35321 11.2685 6.37788 7.85938 6.39514C6.15481 6.40377 4.81639 6.41055 3.9041 6.41517C3.44796 6.41748 3.09836 6.41925 2.86279 6.42044C2.745 6.42104 2.65573 6.42149 2.5959 6.42179C2.56598 6.42195 2.54343 6.42206 2.52836 6.42214C2.52082 6.42217 2.51515 6.4222 2.51137 6.42222C2.50948 6.42223 2.50805 6.42224 2.50711 6.42224C2.50616 6.42225 2.50568 6.42225 2.49985 8.92233ZM130.111 8.27989L130.102 10.78C162.133 10.6581 235.039 9.2771 307.904 7.90621C380.796 6.53481 453.647 5.17359 485.627 5.08911L485.639 2.58901L485.651 0.0889137C453.618 0.173526 380.712 1.53599 307.847 2.90688C234.955 4.27828 162.102 5.65814 130.12 5.7798L130.111 8.27989ZM485.639 2.58901L485.627 5.08911C564.757 4.88009 643.926 4.96616 722.908 6.16238L722.965 3.66256L723.021 1.16274C643.994 -0.0341561 564.79 -0.12013 485.651 0.0889137L485.639 2.58901ZM722.965 3.66256L722.908 6.16238C739.074 6.40722 755.337 6.6618 771.274 7.54809L771.431 5.05184L771.588 2.55558C755.535 1.66278 739.171 1.40734 723.021 1.16274L722.965 3.66256Z" fill="#EFA229"/>
</svg>
