<svg width="129" height="13" viewBox="0 0 129 13" fill="none" xmlns="http://www.w3.org/2000/svg">
<path d="M115.126 8.92874C116.507 8.92619 117.614 7.8051 117.599 6.42472C117.583 5.04433 116.451 3.92738 115.07 3.92992L115.098 6.42933L115.126 8.92874ZM73.239 5.3509L72.9956 7.83608V7.83608L73.239 5.3509ZM26.1936 3.27516L26.5024 5.7582L26.6295 5.74357L26.7543 5.71602L26.1936 3.27516ZM2.50071 7.11568L2.01104 4.66023C0.755746 4.89915 -0.107542 6.04873 0.010843 7.32376C0.129228 8.59879 1.19105 9.5875 2.47104 9.61454L2.50071 7.11568ZM23.0779 7.55645L23.0186 10.0545L23.0779 7.55645ZM80.2302 2.86095L80.1436 5.35795L80.2302 2.86095ZM118.602 7.12503L119.095 4.67934V4.67934L118.602 7.12503ZM125.246 11.9289C126.444 12.6268 127.973 12.2271 128.66 11.0362C129.347 9.84524 128.933 8.314 127.735 7.61607L126.491 9.77247L125.246 11.9289ZM115.098 6.42933L115.07 3.92992C108.169 3.94265 80.1879 3.58325 73.4824 2.86571L73.239 5.3509L72.9956 7.83608C80.0313 8.58895 108.32 8.94129 115.126 8.92874L115.098 6.42933ZM73.239 5.3509L73.4824 2.86571C69.0263 2.38888 59.7888 1.29107 50.3902 0.602581C45.6882 0.258128 40.9095 0.013145 36.6342 0.000569099C32.4015 -0.011882 28.5013 0.201219 25.6329 0.834307L26.1936 3.27516L26.7543 5.71602C29.0642 5.20621 32.5106 4.98715 36.6658 4.99937C40.7785 5.01147 45.4292 5.248 50.0707 5.58802C59.3594 6.26846 68.4664 7.35141 72.9956 7.83608L73.239 5.3509ZM26.1936 3.27516L25.8849 0.792122C21.3642 1.31245 15.3818 2.2831 10.5645 3.11625C8.14835 3.53413 6.01171 3.9198 4.47891 4.20104C3.71237 4.34168 3.09647 4.45628 2.67172 4.53581C2.45934 4.57557 2.29472 4.60657 2.18292 4.62768C2.12702 4.63824 2.08433 4.64633 2.05547 4.6518C2.04104 4.65453 2.03007 4.65662 2.02264 4.65803C2.01892 4.65873 2.01609 4.65927 2.01415 4.65964C2.01319 4.65982 2.01244 4.65997 2.01192 4.66006C2.01166 4.66011 2.01144 4.66016 2.01131 4.66018C2.01114 4.66021 2.01104 4.66023 2.50071 7.11568C2.99039 9.57113 2.9904 9.57113 2.99046 9.57112C2.99055 9.5711 2.99067 9.57108 2.99086 9.57105C2.99124 9.57097 2.99185 9.57086 2.99268 9.5707C2.99433 9.57039 2.99688 9.5699 3.00031 9.56925C3.00718 9.56794 3.01757 9.56597 3.03142 9.56335C3.05912 9.55809 3.10063 9.55023 3.15531 9.53991C3.26468 9.51925 3.42675 9.48873 3.63646 9.44947C4.05591 9.37093 4.66586 9.25744 5.4259 9.11799C6.94627 8.83903 9.06576 8.45646 11.4615 8.04212C16.2678 7.21085 22.1319 6.26124 26.5024 5.7582L26.1936 3.27516ZM2.50071 7.11568C2.47104 9.61454 2.47111 9.61454 2.47127 9.61454C2.47142 9.61454 2.47165 9.61455 2.47195 9.61456C2.47256 9.61457 2.47347 9.61459 2.47469 9.61461C2.47712 9.61467 2.48075 9.61474 2.48558 9.61484C2.49522 9.61505 2.50962 9.61535 2.52861 9.61575C2.56659 9.61656 2.62296 9.61775 2.6965 9.6193C2.8436 9.62241 3.05941 9.62697 3.33426 9.63279C3.88395 9.64441 4.66981 9.66104 5.61443 9.68104C7.50368 9.72105 10.028 9.77456 12.5682 9.82861C15.1084 9.88265 17.6643 9.93722 19.617 9.97932C20.5933 10.0004 21.4185 10.0183 22.0153 10.0315C22.3138 10.0381 22.5546 10.0435 22.7284 10.0475C22.8154 10.0495 22.8848 10.0511 22.936 10.0524C22.9616 10.053 22.9818 10.0535 22.997 10.0539C23.0138 10.0544 23.0195 10.0545 23.0186 10.0545L23.0779 7.55645L23.1373 5.0584C22.8629 5.04935 17.6912 4.93863 12.6283 4.83092C10.0878 4.77687 7.56338 4.72335 5.67404 4.68334C4.72936 4.66333 3.94346 4.64671 3.39372 4.63508C3.11885 4.62927 2.90302 4.62471 2.75591 4.6216C2.68235 4.62004 2.62598 4.61885 2.58799 4.61805C2.56899 4.61765 2.5546 4.61734 2.54495 4.61714C2.54012 4.61704 2.53648 4.61696 2.53405 4.61691C2.53284 4.61688 2.53192 4.61686 2.53131 4.61685C2.53101 4.61684 2.53078 4.61684 2.53062 4.61684C2.53047 4.61683 2.53039 4.61683 2.50071 7.11568ZM23.0779 7.55645L23.0186 10.0545C28.4103 10.2324 40.3668 8.91049 51.9462 7.65111C63.7807 6.36397 75.2243 5.14188 80.1436 5.35795L80.2302 2.86095L80.3169 0.363952C74.9072 0.126335 62.9375 1.42234 51.3597 2.68156C39.5266 3.96853 28.0714 5.22121 23.1373 5.0584L23.0779 7.55645ZM80.2302 2.86095L80.1436 5.35795C92.8636 5.91667 105.496 6.91875 118.109 9.57071L118.602 7.12503L119.095 4.67934C106.084 1.94382 93.1349 0.926971 80.3169 0.363952L80.2302 2.86095ZM118.602 7.12503L118.109 9.57071C120.755 10.127 123.021 10.6321 125.246 11.9289L126.491 9.77247L127.735 7.61607C124.715 5.85638 121.689 5.22486 119.095 4.67934L118.602 7.12503Z" fill="#EFA229"/>
</svg>
