<svg width="241" height="115" viewBox="0 0 241 115" fill="none" xmlns="http://www.w3.org/2000/svg">
<path d="M1.44637 16.5676C-0.496207 18.5302 -0.479959 21.696 1.48266 23.6385C3.44527 25.5811 6.61106 25.5649 8.55363 23.6022L5 20.0849L1.44637 16.5676ZM80.4647 14.4304L78.0126 18.7879L78.0126 18.7879L80.4647 14.4304ZM93.2765 40.4151L98.2105 41.225V41.225L93.2765 40.4151ZM74.2798 53.5699L72.1406 58.0892H72.1406L74.2798 53.5699ZM67.3447 34.2276L72.0183 36.0046V36.0046L67.3447 34.2276ZM96.0758 16.4808L96.276 21.4768V21.4768L96.0758 16.4808ZM204.349 113.478C206.494 115.216 209.643 114.886 211.382 112.741L239.714 77.7796C241.452 75.6342 241.122 72.4856 238.977 70.747C236.832 69.0084 233.683 69.3382 231.944 71.4836L206.76 102.56L175.684 77.3763C173.538 75.6377 170.39 75.9675 168.651 78.1129C166.912 80.2583 167.242 83.4069 169.388 85.1455L204.349 113.478ZM5 20.0849L8.55363 23.6022C20.08 11.9569 34.5819 9.18586 47.9258 10.1867C61.3684 11.195 73.0939 16.02 78.0126 18.7879L80.4647 14.4304L82.9167 10.073C76.9316 6.70503 63.7999 1.34928 48.6738 0.214738C33.4489 -0.927211 15.6703 2.19685 1.44637 16.5676L5 20.0849ZM80.4647 14.4304L78.0126 18.7879C79.1243 19.4134 80.5231 20.4417 81.9526 21.8568L85.4702 18.3033L88.9877 14.7499C87.003 12.7852 84.8998 11.1889 82.9167 10.073L80.4647 14.4304ZM85.4702 18.3033L81.9526 21.8568C86.0904 25.9528 89.5452 32.2785 88.3426 39.6052L93.2765 40.4151L98.2105 41.225C100.108 29.6643 94.5613 20.2672 88.9877 14.7499L85.4702 18.3033ZM93.2765 40.4151L88.3426 39.6052C87.7726 43.0779 85.9202 46.3079 83.6072 48.1512C81.4933 49.836 79.1359 50.3367 76.419 49.0507L74.2798 53.5699L72.1406 58.0892C78.7704 61.2275 85.1651 59.697 89.8398 55.9714C94.3154 52.4044 97.2881 46.8448 98.2105 41.225L93.2765 40.4151ZM74.2798 53.5699L76.419 49.0507C71.9401 46.9306 69.988 41.3441 72.0183 36.0046L67.3447 34.2276L62.6712 32.4505C59.1999 41.5797 61.9625 53.2713 72.1406 58.0892L74.2798 53.5699ZM67.3447 34.2276L72.0183 36.0046C74.5097 29.4523 80.1167 25.2326 86.9728 23.0722L85.4702 18.3033L83.9675 13.5345C75.1265 16.3203 66.5558 22.2343 62.6712 32.4505L67.3447 34.2276ZM85.4702 18.3033L86.9728 23.0722C89.9965 22.1194 93.1821 21.6008 96.276 21.4768L96.0758 16.4808L95.8756 11.4848C91.9651 11.6415 87.8981 12.2959 83.9675 13.5345L85.4702 18.3033ZM96.0758 16.4808L96.276 21.4768C101.385 21.2721 126.061 22.4121 150.409 34.2646C174.472 45.9781 198.118 68.0479 202.524 110.114L207.497 109.593L212.47 109.072C207.632 62.8807 181.271 38.1659 154.786 25.2733C128.587 12.5197 102.174 11.2324 95.8756 11.4848L96.0758 16.4808Z" fill="#EFA229"/>
</svg>
