<svg width="172" height="16" viewBox="0 0 172 16" fill="none" xmlns="http://www.w3.org/2000/svg">
<path d="M15.4469 10.8866C14.0727 11.0287 13.0657 12.2575 13.1977 13.6311C13.3296 15.0048 14.5505 16.0031 15.9247 15.8609L15.6858 13.3738L15.4469 10.8866ZM84.1171 6.76027L84.1198 9.26065L84.1171 6.76027ZM102.743 9.57205L102.722 7.07189L102.743 9.57205ZM61.3511 5.85051L61.1833 8.3465L61.3511 5.85051ZM7.31757 5.34626L7.53368 2.85363L7.31757 5.34626ZM2.71816 4.05353L0.5355 2.85119L0.5355 2.85119L2.71816 4.05353ZM14.2701 3.29161L14.2306 5.79199L14.2701 3.29161ZM76.486 4.4859L76.4276 6.98605L76.486 4.4859ZM153.443 9.31725L153.788 6.83822L153.443 9.31725ZM168.281 15.1097C169.562 15.6141 171.018 14.9809 171.531 13.6954C172.045 12.4098 171.423 10.9588 170.141 10.4543L169.211 12.782L168.281 15.1097ZM15.6858 13.3738L15.9247 15.8609C38.9865 13.4755 61.3951 9.45304 84.1198 9.26065L84.1171 6.76027L84.1144 4.25989C61.0869 4.45485 38.0029 8.5534 15.4469 10.8866L15.6858 13.3738ZM84.1171 6.76027L84.1198 9.26065C87.0089 9.23619 93.048 9.88703 97.6935 10.5827C100.033 10.933 101.828 11.2672 102.63 11.492C102.849 11.5535 102.836 11.5644 102.721 11.5068C102.719 11.5055 102.356 11.3397 102.028 10.9359C101.841 10.7059 101.535 10.2367 101.495 9.55527C101.45 8.8065 101.747 8.19926 102.078 7.8101C102.368 7.46833 102.677 7.29455 102.819 7.22214C102.981 7.1403 103.112 7.09831 103.176 7.07975C103.299 7.04337 103.368 7.03801 103.328 7.04304C103.261 7.05158 103.077 7.06628 102.722 7.07189L102.743 9.57205L102.764 12.0722C103.184 12.0656 103.581 12.0472 103.919 12.0044C104.082 11.9838 104.309 11.9483 104.55 11.8775C104.654 11.8471 105.34 11.6644 105.877 11.0317C106.226 10.6214 106.531 9.99192 106.485 9.22003C106.443 8.51547 106.126 8.02219 105.919 7.76734C105.551 7.31363 105.11 7.09438 104.995 7.03647C104.656 6.86567 104.278 6.75062 104.012 6.67596C102.872 6.35614 100.786 5.98368 98.4693 5.63672C93.8022 4.93786 87.4278 4.23184 84.1144 4.25989L84.1171 6.76027ZM102.743 9.57205L102.722 7.07189C96.0231 7.1778 89.2667 6.47358 82.3763 5.62091C75.5363 4.77447 68.512 3.77346 61.5189 3.35451L61.3511 5.85051L61.1833 8.3465C67.9706 8.75313 74.7579 9.72173 81.7265 10.5841C88.6448 11.4402 95.694 12.184 102.764 12.0722L102.743 9.57205ZM61.3511 5.85051L61.5189 3.35451C52.3868 2.80741 43.2735 3.04304 34.2991 3.23021C25.2871 3.41817 16.4015 3.55794 7.53368 2.85363L7.31757 5.34626L7.10147 7.8389C16.2514 8.56561 25.3716 8.41766 34.3664 8.23006C43.3989 8.04167 52.2935 7.81392 61.1833 8.3465L61.3511 5.85051ZM7.31757 5.34626L7.53368 2.85363C6.9083 2.80396 6.11926 2.87143 5.6049 2.91092C4.96994 2.95966 4.46801 2.99588 4.06928 2.98466C3.97941 2.98214 3.91029 2.97739 3.85941 2.97209C3.80737 2.96666 3.78759 2.96198 3.79321 2.96325C3.79691 2.96408 3.85035 2.97595 3.93509 3.01253C4.0193 3.04888 4.16549 3.123 4.32826 3.2613C4.72587 3.59914 4.99077 4.12464 4.99899 4.68436C5.00534 5.11647 4.85417 5.33985 4.90083 5.25587L2.71816 4.05353L0.5355 2.85119C0.274738 3.32055 -0.0112725 3.99552 0.000462864 4.79474C0.014072 5.72156 0.424598 6.52968 1.07573 7.08293C1.63438 7.5576 2.25564 7.75132 2.66271 7.84285C3.09764 7.94064 3.52974 7.97344 3.8919 7.98362C4.60469 8.00367 5.38715 7.94044 5.95075 7.89718C6.63496 7.84465 6.95865 7.82755 7.10147 7.8389L7.31757 5.34626ZM2.71816 4.05353L4.90083 5.25587C4.7619 5.50594 4.68792 5.30092 5.53698 5.1349C6.29923 4.98586 7.34156 4.96665 8.53532 5.05054C9.70123 5.13248 10.8727 5.30144 11.8515 5.45856C12.0949 5.49764 12.3238 5.53554 12.5384 5.57117C12.7501 5.60632 12.9538 5.64025 13.1344 5.66919C13.405 5.71255 13.871 5.78897 14.2306 5.79199L14.2701 3.29161L14.3095 0.79123C14.4133 0.792102 14.378 0.797954 13.9607 0.731071C13.7973 0.704892 13.6105 0.673777 13.3923 0.637556C13.177 0.60182 12.9368 0.562019 12.6791 0.520655C11.6536 0.356031 10.3103 0.159441 8.9223 0.061893C7.56214 -0.0336982 6.01143 -0.0463397 4.61297 0.227103C3.30134 0.48357 1.499 1.11696 0.5355 2.85119L2.71816 4.05353ZM14.2701 3.29161L14.2306 5.79199C34.9714 5.96618 55.6142 6.65309 76.4276 6.98605L76.486 4.4859L76.5445 1.98576C55.8847 1.65525 35.0363 0.965306 14.3095 0.79123L14.2701 3.29161ZM76.486 4.4859L76.4276 6.98605C102.03 7.39562 127.583 8.42928 153.098 11.7963L153.443 9.31725L153.788 6.83822C127.99 3.43385 102.213 2.39638 76.5445 1.98576L76.486 4.4859ZM153.443 9.31725L153.098 11.7963C158.378 12.493 163.382 13.1808 168.281 15.1097L169.211 12.782L170.141 10.4543C164.594 8.27035 159.002 7.52635 153.788 6.83822L153.443 9.31725Z" fill="#EFA229"/>
</svg>
