<svg width="344" height="10" viewBox="0 0 344 10" fill="none" xmlns="http://www.w3.org/2000/svg">
<path d="M310.315 7.43473C311.696 7.43081 312.797 6.30856 312.775 4.92811C312.754 3.54766 311.616 2.43177 310.236 2.43569L310.275 4.93521L310.315 7.43473ZM195.946 4.40317L195.912 6.9018L195.946 4.40317ZM67.5087 3.16465L67.6249 5.66278L67.6602 5.6616L67.6956 5.65941L67.5087 3.16465ZM2.50043 6.16455L2.33383 3.66862C0.983641 3.74118 -0.0498295 4.87511 0.00177765 6.22737C0.0533848 7.57963 1.17134 8.65947 2.52447 8.66406L2.50043 6.16455ZM58.7087 6.35981L58.7247 8.85929L58.7087 6.35981ZM215.219 2.51177L215.227 5.01119L215.219 2.51177ZM319.804 5.42877L319.909 2.93302L319.804 5.42877ZM340.83 9.81054C342.197 10.0265 343.465 9.09623 343.664 7.73277C343.862 6.36931 342.915 5.08896 341.548 4.87302L341.189 7.34178L340.83 9.81054ZM310.275 4.93521L310.236 2.43569C291.492 2.48895 214.664 2.40464 195.98 1.90454L195.946 4.40317L195.912 6.9018C214.685 7.40433 291.597 7.48791 310.315 7.43473L310.275 4.93521ZM195.946 4.40317L195.98 1.90454C171.577 1.25132 95.9222 -1.10054 67.3218 0.669892L67.5087 3.16465L67.6956 5.65941C96.0076 3.90683 171.329 6.24379 195.912 6.9018L195.946 4.40317ZM67.5087 3.16465L67.3925 0.666521C55.1879 1.07515 38.9194 1.82595 25.7117 2.47402C19.1057 2.79816 13.2618 3.09678 9.06922 3.31437C6.97291 3.42317 5.28936 3.51172 4.12976 3.57307C3.54995 3.60375 3.10113 3.62763 2.79717 3.64384C2.6452 3.65195 2.52944 3.65814 2.45164 3.6623C2.41274 3.66439 2.38332 3.66596 2.36361 3.66702C2.35376 3.66755 2.34633 3.66795 2.34136 3.66821C2.33887 3.66835 2.337 3.66845 2.33574 3.66852C2.33512 3.66855 2.33464 3.66858 2.33432 3.66859C2.334 3.66861 2.33383 3.66862 2.50043 6.16455C2.66703 8.66048 2.66717 8.66047 2.66747 8.66046C2.66777 8.66044 2.66822 8.66042 2.66883 8.66038C2.67005 8.66032 2.67188 8.66022 2.67433 8.66009C2.67922 8.65983 2.68657 8.65943 2.69634 8.65891C2.71589 8.65786 2.74514 8.65629 2.78388 8.65422C2.86135 8.65007 2.97677 8.6439 3.12841 8.63581C3.43167 8.61963 3.87978 8.59579 4.45883 8.56515C5.61693 8.50388 7.2988 8.41542 9.39328 8.30672C13.5823 8.08931 19.4215 7.79093 26.0216 7.46708C39.2261 6.81916 55.4617 6.07002 67.6249 5.66278L67.5087 3.16465ZM2.50043 6.16455C2.52447 8.66406 2.52468 8.66407 2.5251 8.66407C2.52552 8.66407 2.52614 8.66407 2.52697 8.66407C2.52864 8.66408 2.53114 8.66409 2.53446 8.6641C2.5411 8.66412 2.55103 8.66415 2.56421 8.6642C2.59056 8.66429 2.62988 8.66442 2.68176 8.6646C2.78552 8.66495 2.93951 8.66547 3.14042 8.66616C3.54225 8.66752 4.13177 8.66952 4.88258 8.67208C6.38418 8.67718 8.53088 8.68449 11.1113 8.69328C16.2721 8.71086 23.1676 8.73441 30.1066 8.75824C43.9895 8.80592 58.0341 8.85472 58.7247 8.85929L58.7087 6.35981L58.6928 3.86034C57.9916 3.8557 43.9321 3.80686 30.0587 3.75921C23.1197 3.73538 16.2241 3.71184 11.0633 3.69425C8.48285 3.68546 6.33613 3.67815 4.83452 3.67305C4.08371 3.67049 3.49418 3.66849 3.09235 3.66713C2.89143 3.66644 2.73744 3.66592 2.63368 3.66557C2.5818 3.66539 2.54248 3.66526 2.51612 3.66517C2.50295 3.66513 2.49301 3.66509 2.48637 3.66507C2.48305 3.66506 2.48056 3.66505 2.47889 3.66504C2.47806 3.66504 2.47743 3.66504 2.47701 3.66504C2.4766 3.66504 2.47639 3.66504 2.50043 6.16455ZM58.7087 6.35981L58.7247 8.85929C72.8857 8.95301 105.032 7.92069 137.075 6.90265C169.188 5.8824 201.194 4.87662 215.227 5.01119L215.219 2.51177L215.21 0.0123574C201.044 -0.123483 168.894 0.888075 136.851 1.90611C104.739 2.92634 72.7297 3.95324 58.6928 3.86034L58.7087 6.35981ZM215.219 2.51177L215.227 5.01119C250.075 5.34535 284.921 6.01176 319.699 7.92452L319.804 5.42877L319.909 2.93302C285.018 1.01404 250.083 0.346763 215.21 0.0123574L215.219 2.51177ZM319.804 5.42877L319.699 7.92452C326.843 8.31738 333.909 8.71705 340.83 9.81054L341.189 7.34178L341.548 4.87302C334.334 3.73321 327.015 3.32381 319.909 2.93302L319.804 5.42877Z" fill="#EFA229"/>
</svg>
