<svg width="806" height="19" viewBox="0 0 806 19" fill="none" xmlns="http://www.w3.org/2000/svg">
<path d="M75.457 14.5777C74.0764 14.5921 72.9261 13.4848 72.8877 12.1046C72.8493 10.7243 73.9374 9.59375 75.3179 9.57938L75.3875 12.0785L75.457 14.5777ZM345.642 8.10849L345.754 10.6069L345.642 8.10849ZM649.192 2.78459L649.218 5.28383L649.198 5.28368L649.177 5.28321L649.192 2.78459ZM803.135 4.97949L803.138 2.48063C804.503 2.50599 805.615 3.62081 805.635 4.98526C805.656 6.34972 804.578 7.45948 803.213 7.47855L803.135 4.97949ZM670.263 6.84191L670.346 9.3409L670.263 6.84191ZM299.92 6.10684L300.007 8.60576L299.92 6.10684ZM52.9001 13.015L52.748 10.5181L52.9001 13.015ZM2.79926 18.6888C1.42797 18.8297 0.182821 17.8307 0.018067 16.4576C-0.146748 15.0845 0.831285 13.8571 2.20251 13.7163L2.50088 16.2026L2.79926 18.6888ZM75.3875 12.0785L75.3179 9.57938C119.614 9.11813 301.32 6.81812 345.53 5.61012L345.642 8.10849L345.754 10.6069C301.491 11.8163 119.738 14.1166 75.457 14.5777L75.3875 12.0785ZM345.642 8.10849L345.53 5.61012C403.332 4.03077 581.701 -1.28119 649.207 0.285969L649.192 2.78459L649.177 5.28321C581.837 3.71988 403.657 9.02471 345.754 10.6069L345.642 8.10849ZM649.192 2.78459L649.166 0.285357C678.017 0.48877 716.512 1.03765 747.789 1.53556C763.429 1.78453 777.266 2.0208 787.193 2.19481C792.156 2.28183 796.142 2.35328 798.888 2.40298C800.26 2.42782 801.323 2.44724 802.042 2.46044C802.402 2.46704 802.676 2.47208 802.86 2.47548C802.952 2.47718 803.021 2.47847 803.068 2.47933C803.091 2.47976 803.108 2.48009 803.12 2.4803C803.126 2.48041 803.13 2.48049 803.133 2.48055C803.135 2.48057 803.136 2.4806 803.137 2.48061C803.137 2.48062 803.138 2.48063 803.135 4.97949C803.132 7.47836 803.131 7.47835 803.131 7.47834C803.13 7.47832 803.129 7.4783 803.127 7.47828C803.125 7.47822 803.12 7.47814 803.114 7.47803C803.103 7.47782 803.085 7.47749 803.062 7.47706C803.016 7.4762 802.946 7.47492 802.854 7.47322C802.67 7.46983 802.397 7.46478 802.037 7.45819C801.318 7.44499 800.256 7.42559 798.884 7.40075C796.14 7.35106 792.154 7.27963 787.192 7.19264C777.267 7.01865 763.433 6.78244 747.796 6.53352C716.521 6.03564 678.045 5.48707 649.218 5.28383L649.192 2.78459ZM803.135 4.97949C803.213 7.47855 803.213 7.47855 803.212 7.47857C803.211 7.47858 803.209 7.4786 803.207 7.47863C803.203 7.47868 803.197 7.47877 803.19 7.47888C803.174 7.4791 803.15 7.47942 803.119 7.47986C803.057 7.48073 802.964 7.48203 802.841 7.48374C802.596 7.48717 802.232 7.49225 801.757 7.49889C800.807 7.51216 799.414 7.53164 797.639 7.55644C794.089 7.60604 789.014 7.67697 782.915 7.76223C770.715 7.93277 754.414 8.1607 738.011 8.39025C705.201 8.84939 671.987 9.31494 670.346 9.3409L670.263 6.84191L670.18 4.34293C671.828 4.31687 705.05 3.85121 737.854 3.39215C754.257 3.16259 770.558 2.93467 782.758 2.76413C788.858 2.67886 793.932 2.60794 797.482 2.55833C799.257 2.53353 800.65 2.51406 801.6 2.50079C802.075 2.49415 802.439 2.48906 802.685 2.48564C802.807 2.48392 802.9 2.48262 802.962 2.48175C802.994 2.48132 803.017 2.48099 803.033 2.48077C803.041 2.48066 803.047 2.48058 803.05 2.48052C803.052 2.4805 803.054 2.48048 803.055 2.48046C803.056 2.48045 803.056 2.48044 803.135 4.97949ZM670.263 6.84191L670.346 9.3409C636.985 9.86839 561.022 9.3925 485.118 8.93126C409.174 8.46979 333.292 8.023 300.007 8.60576L299.92 6.10684L299.833 3.60793C333.194 3.02384 409.158 3.47153 485.061 3.93276C561.005 4.39424 636.89 4.8693 670.18 4.34293L670.263 6.84191ZM299.92 6.10684L300.007 8.60576C217.625 10.0481 135.218 11.9394 53.0521 15.512L52.9001 13.015L52.748 10.5181C134.978 6.94267 217.436 5.05054 299.833 3.60793L299.92 6.10684ZM52.9001 13.015L53.0521 15.512C36.2298 16.2434 19.3302 16.991 2.79926 18.6888L2.50088 16.2026L2.20251 13.7163C18.903 12.0011 35.9481 11.2486 52.748 10.5181L52.9001 13.015Z" fill="#EFA229"/>
</svg>
