<svg width="292" height="309" viewBox="0 0 292 309" fill="none" xmlns="http://www.w3.org/2000/svg">
<path d="M76.8157 205.061C104.471 196.905 104.075 198.708 130.513 187.022C134.207 203.857 129.822 232.061 126.363 248.286C123.48 261.806 122.175 275.586 118.99 289.047C117.897 293.664 111.106 305.178 115.192 302.765C125.862 296.466 136.675 279.299 144.183 270.088C157.296 253.998 167.881 233.726 175.003 214.054C175.611 212.373 176.662 205.052 179.497 206.578C201.26 218.298 223.827 232.961 249.156 235.516C253.253 235.93 276.78 239.001 269.345 228.892C256.512 211.444 242.574 201.699 227.635 186.071C220.296 178.393 215.476 172.89 207.211 166.207C204.935 164.368 200.125 161.987 199.015 158.907C197.441 154.539 204.364 151.328 206.906 149.499C223.964 137.227 246.663 120.648 261.222 105.66C265.41 101.349 287.085 81.2189 286.982 73.9111C286.889 67.3538 261.098 78.7913 259.685 79.4178L259.664 79.4273C240.798 87.7903 209.081 89.8371 192.267 101.732C190.508 102.976 175.161 117.422 174.574 114.241C169.146 84.811 174.348 54.0964 168.444 24.2723C168.013 22.0916 164.288 -4.76023 158.086 8.81485C153.265 19.369 149.323 30.8657 145.904 41.9287C140.611 59.0585 135.538 76.1168 131.951 93.6918C129.778 104.34 129.38 103.596 119.58 101.217C97.6572 95.8946 73.8644 95.1825 51.4324 94.1261C36.7992 93.437 22.6856 89.4964 8.22579 88.745C-3.34112 88.1439 19.8296 103.808 21.013 104.59C41.1505 117.893 61.9778 131.395 85.055 138.983C85.5318 139.14 110.743 144.242 110.381 146.035C109.039 152.686 96.2843 160.808 91.9598 164.302C70.0966 181.968 47.274 197.973 24.0987 213.833C22.7971 214.724 2.12777 228.317 7.40519 227.038C30.9025 221.34 53.6339 211.898 76.8157 205.061Z" stroke="#EFA229" stroke-width="10" stroke-linecap="round" stroke-linejoin="round"/>
</svg>
