<svg width="146" height="10" viewBox="0 0 146 10" fill="none" xmlns="http://www.w3.org/2000/svg">
<path d="M130.552 6.68306C131.933 6.65823 133.04 5.51879 133.025 4.13804C133.011 2.7573 131.88 1.65811 130.499 1.68294L130.526 4.183L130.552 6.68306ZM82.9575 4.27745L82.8263 6.77537L82.9575 4.27745ZM29.5129 3.81445L29.7024 6.30625L29.7773 6.3L29.8518 6.28926L29.5129 3.81445ZM2.49962 6.801L2.20332 4.32043C0.891138 4.48683 -0.0723783 5.64535 0.00429386 6.96452C0.080966 8.28369 1.17133 9.30762 2.49283 9.30144L2.49962 6.801ZM25.8851 6.69568L25.8611 9.19614L25.8851 6.69568ZM90.9556 2.50215L90.9158 5.00253L90.9556 2.50215ZM134.495 4.57406L134.775 2.08732L134.495 4.57406ZM142.625 8.54623C143.935 8.97093 145.35 8.24996 145.784 6.93592C146.218 5.62187 145.508 4.21235 144.198 3.78766L143.411 6.16694L142.625 8.54623ZM130.526 4.183L130.499 1.68294C122.68 1.82358 90.7891 2.12752 83.0887 1.77953L82.9575 4.27745L82.8263 6.77537C90.7191 7.13206 122.788 6.82271 130.552 6.68306L130.526 4.183ZM82.9575 4.27745L83.0887 1.77953C78.012 1.5501 67.5676 1.00611 56.9264 0.73395C46.3602 0.463713 35.3309 0.451271 29.174 1.33965L29.5129 3.81445L29.8518 6.28926C35.5148 5.47215 46.1096 5.46081 56.7617 5.73325C67.3388 6.00377 77.7068 6.54401 82.8263 6.77537L82.9575 4.27745ZM29.5129 3.81445L29.3233 1.32266C24.2149 1.74903 17.4267 2.49983 11.9361 3.14119C9.18646 3.46238 6.75429 3.75706 5.00941 3.97146C4.13689 4.07867 3.43601 4.16583 2.95297 4.22622C2.71144 4.25642 2.52436 4.27993 2.3975 4.29591C2.33407 4.3039 2.28569 4.31001 2.25309 4.31413C2.23678 4.31619 2.22443 4.31775 2.2161 4.31881C2.21194 4.31933 2.20879 4.31973 2.20666 4.32C2.20559 4.32014 2.20478 4.32024 2.20422 4.32031C2.20394 4.32035 2.20372 4.32038 2.20358 4.32039C2.20342 4.32041 2.20332 4.32043 2.49962 6.801C2.79591 9.28158 2.79594 9.28158 2.79604 9.28157C2.79616 9.28155 2.79632 9.28153 2.79656 9.2815C2.79703 9.28144 2.79776 9.28135 2.79874 9.28123C2.80071 9.28098 2.80369 9.2806 2.80768 9.28009C2.81567 9.27908 2.82768 9.27756 2.84364 9.27554C2.87555 9.27151 2.92322 9.26549 2.98592 9.25759C3.11134 9.2418 3.2969 9.21848 3.53683 9.18848C4.01672 9.12848 4.71406 9.04176 5.58271 8.93502C7.32018 8.72154 9.74216 8.42809 12.4797 8.10832C17.9635 7.46775 24.682 6.72528 29.7024 6.30625L29.5129 3.81445ZM2.49962 6.801C2.49283 9.30144 2.49292 9.30144 2.49309 9.30144C2.49326 9.30144 2.49352 9.30144 2.49387 9.30144C2.49456 9.30144 2.4956 9.30143 2.49698 9.30142C2.49974 9.30141 2.50388 9.30139 2.50936 9.30137C2.52032 9.30132 2.53668 9.30124 2.55826 9.30114C2.60143 9.30094 2.6655 9.30064 2.74908 9.30025C2.91626 9.29947 3.16153 9.29832 3.47389 9.29687C4.09863 9.29395 4.99175 9.28979 6.06531 9.28481C8.21244 9.27483 11.0813 9.26155 13.9682 9.2483C19.7524 9.22177 25.5829 9.19553 25.8611 9.19614L25.8851 6.69568L25.9091 4.19522C25.6083 4.19456 19.746 4.22098 13.9822 4.24742C11.0952 4.26067 8.22621 4.27395 6.07903 4.28393C5.00544 4.28892 4.11229 4.29308 3.48753 4.29599C3.17515 4.29744 2.92987 4.29859 2.76269 4.29937C2.67909 4.29976 2.61503 4.30006 2.57185 4.30026C2.55027 4.30036 2.53391 4.30044 2.52294 4.30049C2.51746 4.30051 2.51332 4.30053 2.51056 4.30055C2.50918 4.30055 2.50814 4.30056 2.50745 4.30056C2.5071 4.30056 2.50684 4.30056 2.50667 4.30056C2.50649 4.30057 2.5064 4.30057 2.49962 6.801ZM25.8851 6.69568L25.8611 9.19614C31.8599 9.20939 45.3396 8.12185 58.6004 7.06356C72.009 5.99346 85.1907 4.95359 90.9158 5.00253L90.9556 2.50215L90.9954 0.00177537C84.9865 -0.0495909 71.4994 1.02025 58.2394 2.07848C44.8316 3.14851 31.6431 4.20788 25.9091 4.19522L25.8851 6.69568ZM90.9556 2.50215L90.9158 5.00253C105.394 5.12629 119.822 5.54463 134.215 7.0608L134.495 4.57406L134.775 2.08732C120.144 0.546074 105.529 0.126012 90.9954 0.00177537L90.9556 2.50215ZM134.495 4.57406L134.215 7.0608C137.215 7.37677 139.958 7.68177 142.625 8.54623L143.411 6.16694L144.198 3.78766C140.961 2.73884 137.711 2.39666 134.775 2.08732L134.495 4.57406Z" fill="#EFA229"/>
</svg>
