<svg width="784" height="11" viewBox="0 0 784 11" fill="none" xmlns="http://www.w3.org/2000/svg">
<path d="M709.922 6.44158C711.303 6.43366 712.401 5.30818 712.375 3.92775C712.349 2.54732 711.209 1.43468 709.828 1.4426L709.875 3.94209L709.922 6.44158ZM447.133 4.59216L447.148 7.09162L447.133 4.59216ZM151.987 4.68148L152.067 7.18055L152.082 7.18026L152.098 7.17977L151.987 4.68148ZM2.50043 8.35425L2.39826 5.85569C1.03054 5.89381 -0.0379718 7.02466 0.000970527 8.39284C0.0399129 9.76103 1.17183 10.8579 2.54052 10.8538L2.50043 8.35425ZM131.675 7.96833L131.712 10.4679L131.675 7.96833ZM491.478 2.50106L491.511 5.00059L491.478 2.50106ZM731.761 4.33721L731.778 1.83816L731.761 4.33721ZM780.728 8.52387C782.108 8.61266 783.283 7.56789 783.354 6.1903C783.425 4.8127 782.364 3.62396 780.985 3.53516L780.857 6.02951L780.728 8.52387ZM709.875 3.94209L709.828 1.4426C666.772 1.68955 490.128 2.40031 447.118 2.09269L447.133 4.59216L447.148 7.09162C490.196 7.39952 666.878 6.68846 709.922 6.44158L709.875 3.94209ZM447.133 4.59216L447.118 2.09269C390.884 1.69048 217.386 0.125065 151.876 2.18318L151.987 4.68148L152.098 7.17977C217.482 5.12561 390.836 6.68885 447.148 7.09162L447.133 4.59216ZM151.987 4.68148L151.907 2.1824C123.885 2.71658 86.5062 3.63496 56.1371 4.41967C40.9516 4.81205 27.5171 5.17105 17.879 5.43195C13.0599 5.56241 9.18982 5.66834 6.5245 5.74165C5.19183 5.77831 4.16034 5.80682 3.46198 5.82616C3.1128 5.83583 2.84691 5.84321 2.66829 5.84818C2.57898 5.85066 2.51149 5.85254 2.46632 5.85379C2.44373 5.85442 2.42673 5.8549 2.41536 5.85521C2.40968 5.85537 2.40541 5.85549 2.40256 5.85557C2.40113 5.85561 2.40006 5.85564 2.39934 5.85566C2.39862 5.85568 2.39826 5.85569 2.50043 8.35425C2.6026 10.8528 2.60295 10.8528 2.60365 10.8528C2.60436 10.8528 2.60543 10.8527 2.60684 10.8527C2.60968 10.8526 2.61393 10.8525 2.6196 10.8523C2.63093 10.852 2.6479 10.8515 2.67045 10.8509C2.71555 10.8497 2.78297 10.8478 2.87221 10.8453C3.05068 10.8403 3.31643 10.833 3.66546 10.8233C4.36352 10.804 5.39469 10.7755 6.72703 10.7388C9.3917 10.6655 13.261 10.5596 18.0793 10.4292C27.7159 10.1683 41.1483 9.80938 56.3313 9.41706C86.699 8.63239 124.063 7.71439 152.067 7.18055L151.987 4.68148ZM2.50043 8.35425C2.54052 10.8538 2.541 10.8538 2.54196 10.8538C2.54292 10.8538 2.54436 10.8538 2.54627 10.8537C2.5501 10.8537 2.55584 10.8537 2.56347 10.8537C2.57873 10.8536 2.60156 10.8536 2.63184 10.8535C2.6924 10.8533 2.78277 10.853 2.902 10.8527C3.14046 10.852 3.49434 10.8509 3.95607 10.8495C4.87954 10.8467 6.23436 10.8426 7.95982 10.8374C11.4107 10.827 16.3442 10.8121 22.2743 10.7942C34.1346 10.7584 49.9816 10.7107 65.9286 10.6627C97.8246 10.5669 130.115 10.4704 131.712 10.4679L131.675 7.96833L131.639 5.4688C130.037 5.4714 97.7404 5.56789 65.8485 5.66371C49.9015 5.71163 34.0545 5.75938 22.1942 5.79516C16.264 5.81305 11.3306 5.82794 7.87965 5.83836C6.15419 5.84357 4.79936 5.84766 3.8759 5.85045C3.41417 5.85185 3.06028 5.85292 2.82182 5.85364C2.70259 5.854 2.61222 5.85427 2.55166 5.85445C2.52138 5.85454 2.49855 5.85461 2.48329 5.85466C2.47566 5.85468 2.46992 5.8547 2.46609 5.85471C2.46418 5.85472 2.46274 5.85472 2.46178 5.85472C2.46082 5.85473 2.46034 5.85473 2.50043 8.35425ZM131.675 7.96833L131.712 10.4679C164.139 10.4154 237.919 9.05317 311.655 7.70239C385.42 6.35104 459.14 5.01114 491.511 5.00059L491.478 2.50106L491.444 0.00152955C459.015 0.0121031 385.233 1.35338 311.498 2.70417C237.733 4.0555 164.012 5.41639 131.639 5.4688L131.675 7.96833ZM491.478 2.50106L491.511 5.00059C571.614 4.97447 651.763 5.28068 731.745 6.83627L731.761 4.33721L731.778 1.83816C651.746 0.281612 571.559 -0.024592 491.444 0.00152955L491.478 2.50106ZM731.761 4.33721L731.745 6.83627C748.117 7.15468 764.582 7.48425 780.728 8.52387L780.857 6.02951L780.985 3.53516C764.708 2.48715 748.132 2.15624 731.778 1.83816L731.761 4.33721Z" fill="#EFA229"/>
</svg>
