<svg width="410" height="12" viewBox="0 0 410 12" fill="none" xmlns="http://www.w3.org/2000/svg">
<path d="M332.743 11.3704C334.123 11.3831 335.252 10.2741 335.262 8.89345C335.273 7.51278 334.163 6.38327 332.782 6.3706L332.763 8.8705L332.743 11.3704ZM225.22 4.2728L225.14 6.77142L225.22 4.2728ZM19.3744 7.14582L19.4704 4.64778L19.3744 7.14582ZM2.50002 4.85145L2.41964 2.35263C1.12824 2.39253 0.0812551 3.40997 0.00445597 4.69967C-0.0723434 5.98937 0.84635 7.12637 2.1237 7.3225L2.50002 4.85145ZM34.8997 3.9336L34.8606 6.43325L34.8997 3.9336ZM249.35 2.615L249.305 5.11454L249.35 2.615ZM379.898 7.10167L380.036 4.60566L379.898 7.10167ZM406.204 11.8412C407.572 12.0346 408.836 11.0831 409.027 9.71598C409.219 8.34887 408.266 7.08384 406.898 6.89045L406.551 9.36582L406.204 11.8412ZM332.763 8.8705L332.782 6.3706C309.393 6.15595 248.853 2.56192 225.301 1.77418L225.22 4.2728L225.14 6.77142C248.344 7.54752 309.336 11.1556 332.743 11.3704L332.763 8.8705ZM225.22 4.2728L225.301 1.77418C209.922 1.25982 165.991 2.28508 122.229 3.2815C78.3478 4.28065 34.6455 5.25045 19.4704 4.64778L19.3744 7.14582L19.2784 9.64386C34.6566 10.2546 78.5902 9.2766 122.35 8.28023C166.229 7.28114 209.945 6.26319 225.14 6.77142L225.22 4.2728ZM19.3744 7.14582L19.4704 4.64778C18.3331 4.60261 14.2871 4.05764 10.3135 3.48536C8.37358 3.20598 6.5138 2.92967 5.13847 2.72312C4.45099 2.61987 3.88497 2.53412 3.49102 2.47421C3.29405 2.44425 3.14013 2.42076 3.03557 2.40478C2.98329 2.39679 2.94335 2.39068 2.91655 2.38657C2.90315 2.38452 2.89304 2.38297 2.8863 2.38193C2.88293 2.38142 2.88041 2.38103 2.87875 2.38078C2.87792 2.38065 2.8773 2.38055 2.8769 2.38049C2.8767 2.38046 2.87656 2.38044 2.87646 2.38042C2.87638 2.38041 2.87635 2.38041 2.50002 4.85145C2.1237 7.3225 2.12378 7.32251 2.12391 7.32253C2.12403 7.32255 2.12421 7.32258 2.12445 7.32261C2.12491 7.32268 2.1256 7.32279 2.12649 7.32293C2.12829 7.3232 2.13094 7.32361 2.13445 7.32415C2.14145 7.32522 2.15184 7.32681 2.16552 7.32891C2.19287 7.3331 2.23338 7.3393 2.28624 7.34738C2.39198 7.36354 2.54716 7.38723 2.74545 7.41738C3.14202 7.47769 3.71112 7.56391 4.40207 7.66768C5.78361 7.87516 7.65393 8.15304 9.60694 8.43431C13.4192 8.98335 17.8104 9.58556 19.2784 9.64386L19.3744 7.14582ZM2.50002 4.85145C2.5804 7.35027 2.58051 7.35027 2.58075 7.35026C2.58098 7.35026 2.58132 7.35025 2.58179 7.35023C2.58272 7.3502 2.58411 7.35016 2.58596 7.3501C2.58967 7.34999 2.59521 7.34982 2.60258 7.34959C2.6173 7.34913 2.63929 7.34846 2.6683 7.34756C2.72633 7.34577 2.81249 7.34311 2.92494 7.33965C3.14986 7.33272 3.48 7.32256 3.9008 7.30964C4.74242 7.2838 5.94671 7.24692 7.39731 7.20276C10.2986 7.11442 14.1848 6.99695 18.1252 6.88041C26.0695 6.64545 34.0686 6.41985 34.8606 6.43325L34.8997 3.9336L34.9388 1.43394C33.9927 1.41792 25.7919 1.65125 17.971 1.88257C14.0287 1.99917 10.1409 2.11668 7.23879 2.20504C5.78771 2.24923 4.58298 2.28612 3.74101 2.31197C3.32002 2.3249 2.98971 2.33506 2.76464 2.34199C2.6521 2.34546 2.56587 2.34812 2.50776 2.34991C2.47871 2.35081 2.45669 2.35149 2.44193 2.35194C2.43454 2.35217 2.42898 2.35234 2.42526 2.35246C2.42339 2.35251 2.42199 2.35256 2.42106 2.35259C2.42059 2.3526 2.42023 2.35261 2.42 2.35262C2.41976 2.35263 2.41964 2.35263 2.50002 4.85145ZM34.8997 3.9336L34.8606 6.43325C52.5137 6.73207 97.3739 6.23111 142.156 5.74202C186.992 5.25233 231.746 4.77459 249.305 5.11454L249.35 2.615L249.395 0.115454C231.739 -0.226398 186.876 0.253207 142.095 0.742292C97.259 1.23197 52.5014 1.73122 34.9388 1.43394L34.8997 3.9336ZM249.35 2.615L249.305 5.11454C292.828 5.95721 336.352 7.13999 379.759 9.59769L379.898 7.10167L380.036 4.60566C336.535 2.14271 292.939 0.958524 249.395 0.115454L249.35 2.615ZM379.898 7.10167L379.759 9.59769C388.662 10.1018 397.531 10.6145 406.204 11.8412L406.551 9.36582L406.898 6.89045C397.984 5.62958 388.907 5.10795 380.036 4.60566L379.898 7.10167Z" fill="#EFA229"/>
</svg>
