<svg width="809" height="13" viewBox="0 0 809 13" fill="none" xmlns="http://www.w3.org/2000/svg">
<path d="M65.2039 7.8112C63.8234 7.83184 62.7298 8.9676 62.7614 10.348C62.7929 11.7284 63.9376 12.8307 65.3181 12.81L65.261 10.3106L65.2039 7.8112ZM396.084 5.46705L396.13 7.9666L396.084 5.46705ZM485.668 5.17509L485.621 2.67555L485.668 5.17509ZM286.334 6.3863L286.373 8.88593L286.334 6.3863ZM25.6856 8.93642L25.6495 6.43677L25.6856 8.93642ZM3.6233 8.87534L3.37988 6.38568L3.6233 8.87534ZM59.4344 8.13659L59.4787 10.6362L59.4344 8.13659ZM359.492 5.33689L359.536 7.83647L359.492 5.33689ZM730.309 2.62031L730.279 0.120635L730.309 2.62031ZM806.043 5.11406C807.424 5.12512 808.543 4.01498 808.544 2.63448C808.544 1.25398 807.424 0.125896 806.044 0.114831L806.043 2.61445L806.043 5.11406ZM65.261 10.3106L65.3181 12.81C175.612 11.161 285.746 9.13678 396.13 7.9666L396.084 5.46705L396.038 2.9675C285.64 4.13782 175.475 6.16247 65.2039 7.8112L65.261 10.3106ZM396.084 5.46705L396.13 7.9666C411.086 7.80806 440.957 7.65325 463.352 7.579C474.551 7.54187 483.871 7.52492 488.52 7.53766C489.683 7.54085 490.544 7.54588 491.067 7.55276C491.342 7.55637 491.483 7.56007 491.528 7.56222C491.541 7.56283 491.511 7.56176 491.463 7.55711C491.446 7.55549 491.37 7.54828 491.27 7.53029C491.214 7.51928 491.06 7.4825 490.965 7.45458C490.781 7.38829 490.176 7.03997 489.813 6.6936C489.266 5.60964 489.645 3.63752 490.234 3.03903C490.487 2.87983 490.885 2.70541 491.013 2.66583C491.196 2.61494 491.345 2.59798 491.354 2.59676C491.398 2.5912 491.43 2.58844 491.441 2.58755C491.454 2.58641 491.463 2.5859 491.463 2.58588C491.464 2.58585 491.453 2.58647 491.428 2.58755C491.404 2.58858 491.372 2.58979 491.332 2.59114C491.25 2.59386 491.142 2.59686 491.004 2.60011C490.729 2.60661 490.351 2.61376 489.864 2.62156C488.889 2.63716 487.49 2.6551 485.621 2.67555L485.668 5.17509L485.715 7.67464C489.402 7.63431 491.376 7.60318 491.817 7.57538C491.848 7.57342 491.93 7.56816 492.024 7.55628C492.044 7.55373 492.2 7.53545 492.388 7.48326C492.519 7.44303 492.918 7.26796 493.172 7.10812C493.761 6.50898 494.141 4.53622 493.594 3.45163C493.229 3.10462 492.624 2.75567 492.438 2.68875C492.341 2.66021 492.184 2.6228 492.124 2.61118C492.018 2.59195 491.932 2.58352 491.903 2.5807C491.829 2.57364 491.763 2.57023 491.728 2.56856C491.583 2.5616 491.356 2.55725 491.093 2.5538C490.542 2.54656 489.659 2.54149 488.494 2.53829C483.828 2.52551 474.493 2.54252 463.296 2.57964C440.899 2.65389 411.013 2.80875 396.038 2.9675L396.084 5.46705ZM485.668 5.17509L485.621 2.67555C419.168 3.40241 352.734 3.39118 286.296 3.88668L286.334 6.3863L286.373 8.88593C352.744 8.39093 419.267 8.40145 485.715 7.67464L485.668 5.17509ZM286.334 6.3863L286.296 3.88668C199.375 4.53494 112.488 5.86716 25.6495 6.43677L25.6856 8.93642L25.7218 11.4361C112.461 10.8671 199.606 9.53304 286.373 8.88593L286.334 6.3863ZM25.6856 8.93642L25.6495 6.43677C21.9779 6.46086 14.8207 6.58473 9.52974 6.63192C6.83925 6.65592 4.63281 6.66024 3.48795 6.62647C3.19816 6.61792 3.02527 6.60816 2.94459 6.60091C2.88755 6.59578 2.95082 6.59837 3.06489 6.62278C3.09606 6.62945 3.31182 6.67305 3.57252 6.79675C3.69262 6.85374 4.00443 7.01071 4.30892 7.33062C4.65108 7.6901 5.10641 8.40816 4.98077 9.3788C4.87016 10.2334 4.36976 10.7352 4.16102 10.9178C3.92586 11.1235 3.70648 11.2347 3.61097 11.2803C3.40992 11.3762 3.24802 11.4174 3.21937 11.4249C3.1311 11.4479 3.09181 11.4507 3.16007 11.4407C3.27137 11.4242 3.4933 11.3986 3.86671 11.365L3.6233 8.87534L3.37988 6.38568C2.98415 6.42125 2.64761 6.45695 2.39141 6.49477C2.27592 6.51182 2.10063 6.54001 1.92164 6.58668C1.84763 6.60598 1.65168 6.65856 1.4276 6.76551C1.32057 6.8166 1.09243 6.93317 0.851217 7.14419C0.636432 7.33209 0.132692 7.8391 0.0214239 8.69875C-0.104869 9.67447 0.352472 10.3975 0.699284 10.7619C1.00843 11.0867 1.32753 11.2485 1.45753 11.3101C1.73801 11.4432 1.98394 11.4958 2.05537 11.5111C2.24997 11.5527 2.43412 11.571 2.53583 11.5802C2.77268 11.6015 3.06884 11.6145 3.37991 11.6237C4.63854 11.6608 6.94465 11.6549 9.61383 11.6311C15.0422 11.5827 21.9927 11.4605 25.7218 11.4361L25.6856 8.93642ZM3.6233 8.87534L3.86671 11.365C11.9868 10.635 54.39 10.6862 59.4787 10.6362L59.4344 8.13659L59.3901 5.63702C54.606 5.68403 11.7642 5.63194 3.37988 6.38568L3.6233 8.87534ZM59.4344 8.13659L59.4787 10.6362C159.497 9.65333 259.516 8.78441 359.536 7.83647L359.492 5.33689L359.449 2.83731C259.436 3.78517 159.408 4.65418 59.3901 5.63702L59.4344 8.13659ZM359.492 5.33689L359.536 7.83647C483.177 6.66466 606.898 5.63059 730.339 5.11998L730.309 2.62031L730.279 0.120635C606.825 0.631303 483.093 1.66547 359.449 2.83731L359.492 5.33689ZM730.309 2.62031L730.339 5.11998C755.589 5.01553 781.064 4.91391 806.043 5.11406L806.043 2.61445L806.044 0.114831C781.029 -0.0855999 755.524 0.0162086 730.279 0.120635L730.309 2.62031Z" fill="#EFA229"/>
</svg>
