<svg width="337" height="16" viewBox="0 0 337 16" fill="none" xmlns="http://www.w3.org/2000/svg">
<path d="M28.4108 10.746C27.0327 10.8374 25.9814 12.0285 26.0626 13.4065C26.1438 14.7844 27.3268 15.8274 28.7048 15.736L28.5578 13.241L28.4108 10.746ZM164.888 4.66324L164.916 7.16327L164.888 4.66324ZM201.896 6.94323L201.859 4.44338L201.896 6.94323ZM119.6 4.40504L119.542 6.9052L119.6 4.40504ZM12.0749 5.44826L12.1571 2.94861L12.0749 5.44826ZM2.94885 4.28648L1.28264 2.43497L1.28264 2.43497L2.94885 4.28648ZM25.9553 3.19318L25.9622 5.69352L25.9553 3.19318ZM149.75 2.60606L149.747 5.10647L149.75 2.60606ZM302.803 5.23599L302.951 2.7389L302.803 5.23599ZM333.64 10.7104C334.996 10.9603 336.306 10.0619 336.566 8.70369C336.825 7.34552 335.937 6.04192 334.581 5.79201L334.111 8.25119L333.64 10.7104ZM28.5578 13.241L28.7048 15.736C74.2763 12.7134 119.461 8.01092 164.916 7.16327L164.888 4.66324L164.86 2.16321C119.253 3.0137 73.7269 7.74035 28.4108 10.746L28.5578 13.241ZM164.888 4.66324L164.916 7.16327C170.982 7.05016 183.235 7.54543 192.48 8.10934C197.113 8.39193 200.89 8.68591 202.725 8.91887C203.198 8.97903 203.443 9.02322 203.522 9.04237C203.651 9.07325 203.367 9.02726 203.032 8.82159C202.924 8.7553 202.713 8.61471 202.501 8.37587C202.288 8.13673 201.961 7.66969 201.894 6.98456C201.742 5.42959 202.956 4.69066 203.084 4.61369C203.369 4.44315 203.61 4.38189 203.643 4.37301C203.716 4.35354 203.758 4.34753 203.747 4.34923C203.728 4.35236 203.647 4.36336 203.475 4.37673C203.139 4.40286 202.614 4.42651 201.859 4.44338L201.896 6.94323L201.934 9.44307C202.721 9.42547 203.354 9.39936 203.826 9.36257C204.058 9.34449 204.294 9.32074 204.508 9.28612C204.615 9.26893 204.753 9.24329 204.901 9.20347C205.011 9.17424 205.307 9.0919 205.629 8.8996C205.793 8.80088 207.024 8.0395 206.87 6.46143C206.801 5.76475 206.469 5.286 206.245 5.03499C206.022 4.78427 205.796 4.63166 205.668 4.55318C205.254 4.29877 204.817 4.20156 204.723 4.17902C204.358 4.09133 203.88 4.01985 203.39 3.95768C201.372 3.70132 197.44 3.39938 192.821 3.11766C183.563 2.55296 171.139 2.04611 164.86 2.16321L164.888 4.66324ZM201.896 6.94323L201.859 4.44338C188.249 4.7474 174.601 4.22464 160.886 3.56786C147.197 2.91227 133.413 2.12138 119.657 1.90488L119.6 4.40504L119.542 6.9052C133.193 7.12005 146.855 7.90435 160.611 8.56308C174.341 9.2206 188.137 9.75126 201.934 9.44307L201.896 6.94323ZM119.6 4.40504L119.657 1.90488C101.674 1.62186 83.6951 2.1134 65.7876 2.55883C47.8608 3.00474 29.9996 3.40468 12.1571 2.94861L12.0749 5.44826L11.9926 7.94791C29.9777 8.40763 47.9571 8.0039 65.8749 7.55822C83.8119 7.11206 101.681 6.62409 119.542 6.9052L119.6 4.40504ZM12.0749 5.44826L12.1571 2.94861C11.2717 2.92597 10.0465 2.99228 8.89557 3.05321C7.68402 3.11736 6.47541 3.18108 5.44862 3.18134C4.93704 3.18147 4.51815 3.16545 4.19873 3.13386C3.834 3.09779 3.77193 3.05673 3.86824 3.09685C3.92201 3.11925 4.16751 3.22487 4.42528 3.49763C4.72789 3.81784 4.99405 4.32012 4.99896 4.94092C5.00333 5.494 4.79705 5.86864 4.70972 6.00528C4.61951 6.14644 4.55744 6.18995 4.61505 6.13798L2.94885 4.28648L1.28264 2.43497C1.02845 2.66424 0.740979 2.96231 0.503682 3.3336C0.269268 3.70038 -0.00578011 4.28076 4.39956e-05 5.01742C0.0138993 6.76995 1.42868 7.51197 1.91742 7.71558C2.51369 7.96398 3.16774 8.06085 3.67057 8.11058C4.21871 8.16478 4.81882 8.18242 5.41295 8.18227C6.59759 8.18197 7.94724 8.1094 9.12299 8.04715C10.3594 7.98169 11.3505 7.9315 11.9926 7.94791L12.0749 5.44826ZM2.94885 4.28648L4.61505 6.13798C4.60081 6.15083 4.64855 6.10518 4.81037 6.02694C4.9683 5.95057 5.19361 5.86301 5.49909 5.77371C6.11653 5.59321 6.93247 5.44253 7.92966 5.33038C9.92187 5.10632 12.3745 5.06364 14.8721 5.11598C17.355 5.16802 19.8094 5.31196 21.7879 5.4434C23.6527 5.56728 25.3257 5.69999 25.9622 5.69352L25.9553 3.19318L25.9483 0.692844C25.5667 0.696726 24.273 0.594098 22.1558 0.453446C20.1524 0.320348 17.6097 0.170554 15.0137 0.116148C12.4324 0.0620493 9.72435 0.100223 7.40742 0.360803C6.25004 0.490972 5.12429 0.68356 4.12961 0.974336C3.17986 1.25198 2.11447 1.68468 1.28264 2.43497L2.94885 4.28648ZM25.9553 3.19318L25.9622 5.69352C67.2255 5.27381 108.446 5.36878 149.747 5.10647L149.75 2.60606L149.752 0.105643C108.529 0.367453 67.2045 0.273212 25.9483 0.692844L25.9553 3.19318ZM149.75 2.60606L149.747 5.10647C200.74 4.78262 251.739 5.08399 302.655 7.73309L302.803 5.23599L302.951 2.7389C251.891 0.0822563 200.778 -0.218423 149.752 0.105643L149.75 2.60606ZM302.803 5.23599L302.655 7.73309C313.106 8.27685 323.474 8.83643 333.64 10.7104L334.111 8.25119L334.581 5.79201C324.045 3.84985 313.356 3.28026 302.951 2.7389L302.803 5.23599Z" fill="#EFA229"/>
</svg>
