<svg width="534" height="12" viewBox="0 0 534 12" fill="none" xmlns="http://www.w3.org/2000/svg">
<path d="M482.98 6.85132C484.361 6.83805 485.478 5.70798 485.475 4.32723C485.472 2.94648 484.35 1.83792 482.969 1.85118L482.975 4.35125L482.98 6.85132ZM304.517 5.02387L304.465 7.52382L304.517 5.02387ZM104.055 4.99981L104.12 7.49859L104.148 7.49767L104.175 7.49614L104.055 4.99981ZM2.4998 9.40022L2.39531 6.90306C1.03754 6.96992 -0.0261487 8.109 0.000461985 9.46766C0.027073 10.8263 1.13423 11.9068 2.49319 11.9004L2.4998 9.40022ZM90.2374 8.98886L90.2245 11.489L90.2374 8.98886ZM334.65 2.50016L334.631 5.00034L334.65 2.50016ZM497.837 4.84173L497.944 2.34312L497.837 4.84173ZM530.865 9.4059C532.235 9.56491 533.483 8.58189 533.652 7.21026C533.821 5.83863 532.848 4.59781 531.478 4.4388L531.171 6.92235L530.865 9.4059ZM482.975 4.35125L482.969 1.85118C453.718 2.13228 333.757 2.91715 304.57 2.52391L304.517 5.02387L304.465 7.52382C333.723 7.91801 453.75 7.13222 482.98 6.85132L482.975 4.35125ZM304.517 5.02387L304.57 2.52391C266.421 2.00995 148.512 0.0255337 103.935 2.50348L104.055 4.99981L104.175 7.49614C148.528 5.03069 266.178 7.00799 304.465 7.52382L304.517 5.02387ZM104.055 4.99981L103.99 2.50103C84.9439 3.13855 59.5423 4.23925 38.9097 5.18017C28.5918 5.6507 19.4636 6.0814 12.9148 6.39448C9.64036 6.55102 7.01072 6.67815 5.19959 6.76616C4.29402 6.81016 3.59307 6.84438 3.11846 6.8676C2.88115 6.87921 2.70042 6.88808 2.57899 6.89404C2.51828 6.89702 2.47239 6.89927 2.44166 6.90078C2.4263 6.90154 2.41472 6.90211 2.40698 6.90249C2.40311 6.90268 2.4002 6.90282 2.39825 6.90292C2.39728 6.90297 2.39654 6.903 2.39606 6.90303C2.39556 6.90305 2.39531 6.90306 2.4998 9.40022C2.60429 11.8974 2.60452 11.8974 2.605 11.8973C2.60547 11.8973 2.60619 11.8973 2.60715 11.8972C2.60906 11.8971 2.61194 11.897 2.61578 11.8968C2.62346 11.8964 2.63497 11.8959 2.65027 11.8951C2.68087 11.8936 2.72664 11.8914 2.78722 11.8884C2.9084 11.8824 3.08886 11.8736 3.3259 11.862C3.79998 11.8388 4.50037 11.8046 5.40535 11.7606C7.21531 11.6727 9.84363 11.5456 13.1166 11.3891C19.6627 11.0762 28.7871 10.6457 39.1006 10.1753C59.7306 9.23454 85.1066 8.13504 104.12 7.49859L104.055 4.99981ZM2.4998 9.40022C2.49319 11.9004 2.49351 11.9004 2.49416 11.9004C2.49481 11.9004 2.49579 11.9004 2.49709 11.9004C2.49969 11.9003 2.50359 11.9003 2.50877 11.9003C2.51914 11.9003 2.53464 11.9002 2.55521 11.9001C2.59634 11.8999 2.65772 11.8996 2.73871 11.8992C2.90067 11.8984 3.14103 11.8973 3.45465 11.8958C4.08188 11.8928 5.00209 11.8885 6.17405 11.8829C8.51797 11.8718 11.8688 11.8559 15.8967 11.8368C23.9524 11.7986 34.7159 11.7476 45.5473 11.6965C67.2139 11.5943 89.1425 11.4915 90.2245 11.489L90.2374 8.98886L90.2503 6.48869C89.16 6.49112 67.2198 6.59399 45.5607 6.69621C34.7292 6.74732 23.9657 6.79829 15.91 6.83647C11.8821 6.85557 8.53123 6.87146 6.1873 6.88259C5.01534 6.88815 4.09512 6.89252 3.46789 6.8955C3.15427 6.89699 2.9139 6.89813 2.75194 6.8989C2.67096 6.89928 2.60958 6.89957 2.56844 6.89977C2.54787 6.89987 2.53237 6.89994 2.522 6.89999C2.51682 6.90002 2.51292 6.90003 2.51032 6.90005C2.50902 6.90005 2.50804 6.90006 2.50739 6.90006C2.50674 6.90006 2.50641 6.90006 2.4998 9.40022ZM90.2374 8.98886L90.2245 11.489C112.279 11.4397 162.433 9.81462 212.506 8.20519C262.633 6.59402 312.677 4.99863 334.631 5.00034L334.65 2.50016L334.669 -2.64486e-05C312.611 -0.0017482 262.455 1.59798 212.382 3.2074C162.255 4.81856 112.208 6.43956 90.2503 6.48869L90.2374 8.98886ZM334.65 2.50016L334.631 5.00034C389.031 5.00459 443.444 5.4131 497.73 7.34034L497.837 4.84173L497.944 2.34312C443.57 0.412752 389.088 0.00422181 334.669 -2.64486e-05L334.65 2.50016ZM497.837 4.84173L497.73 7.34034C508.857 7.73535 519.976 8.14226 530.865 9.4059L531.171 6.92235L531.478 4.4388C520.358 3.14842 509.041 2.73706 497.944 2.34312L497.837 4.84173Z" fill="#EFA229"/>
</svg>
