<svg width="576" height="414" viewBox="0 0 576 414" fill="none" xmlns="http://www.w3.org/2000/svg">
<path d="M468.318 346.48L468.843 345.075C468.675 345.012 468.497 344.98 468.318 344.98V346.48ZM371.318 346.48H369.818C369.818 347.308 370.489 347.98 371.318 347.98V346.48ZM363.318 289.98C363.318 294.398 366.9 297.98 371.318 297.98C375.736 297.98 379.318 294.398 379.318 289.98C379.318 285.562 375.736 281.98 371.318 281.98C366.9 281.98 363.318 285.562 363.318 289.98ZM513.818 363.48L514.343 362.075L468.843 345.075L468.318 346.48L467.793 347.885L513.293 364.885L513.818 363.48ZM468.318 346.48V344.98H371.318V346.48V347.98H468.318V346.48ZM371.318 346.48H372.818V289.98H371.318H369.818V346.48H371.318Z" fill="#E9DECD"/>
<path d="M575.818 362.48C575.818 384.571 557.909 402.48 535.818 402.48C513.726 402.48 495.818 384.571 495.818 362.48C495.818 340.389 513.726 322.48 535.818 322.48C557.909 322.48 575.818 340.389 575.818 362.48Z" fill="#E9DECD"/>
<path d="M527.673 359.47C522.94 353.846 523.077 348.38 528.072 343.384C530.426 341.031 533.384 339.48 535.521 339.48C537.659 339.48 540.617 341.031 542.971 343.384C548.215 348.628 548.362 355.594 543.326 360.261C541.375 362.07 540.023 363.711 540.321 363.91C540.62 364.108 543.088 365.281 545.808 366.515C551.794 369.234 554.889 373.645 555.854 380.836L556.121 382.832C556.362 384.631 554.963 386.23 553.148 386.23H535.698C515.121 386.23 514.818 386.187 514.818 383.313C514.818 377.651 519.999 369.367 525.194 366.726C527.935 365.331 530.403 364.066 530.678 363.913C530.953 363.761 529.602 361.761 527.673 359.47Z" fill="#20450D"/>
<path d="M298.592 122.176L165.204 125.575C162.207 125.651 159.818 128.102 159.818 131.1V273.722C159.818 276.893 162.479 279.413 165.644 279.242L306.652 271.597C309.914 271.42 312.319 268.483 311.85 265.25C309.977 252.344 305.703 221.388 304.451 199.41C303.172 176.96 303.914 141.692 304.282 127.865C304.366 124.686 301.771 122.095 298.592 122.176Z" fill="#46742E" stroke="#E9DECD" stroke-width="5.55423" stroke-linecap="round" stroke-linejoin="round"/>
<path d="M185.612 179.143L281.42 175.458" stroke="#E9DECD" stroke-width="5.55423" stroke-linecap="round" stroke-linejoin="round"/>
<path d="M181.927 204.938L286.948 201.253" stroke="#E9DECD" stroke-width="5.55423" stroke-linecap="round" stroke-linejoin="round"/>
<path d="M203.115 227.047L254.705 225.205" stroke="#E9DECD" stroke-width="5.55423" stroke-linecap="round" stroke-linejoin="round"/>
<path d="M403.321 167.176L490.547 169.398C493.544 169.475 495.934 171.926 495.934 174.924V268.444C495.934 271.614 493.273 274.135 490.107 273.963L397.908 268.965C394.646 268.788 392.242 265.838 392.703 262.604C394.083 252.944 396.668 233.669 397.463 219.712C398.28 205.356 397.885 183.301 397.626 172.874C397.547 169.695 400.143 167.095 403.321 167.176Z" fill="#EFA229" stroke="#E9DECD" stroke-width="5.55423" stroke-linecap="round" stroke-linejoin="round"/>
<path d="M472.886 207.029H417.612" stroke="#E9DECD" stroke-width="5.55423" stroke-linecap="round" stroke-linejoin="round"/>
<path d="M467.359 232.824L423.139 230.982" stroke="#E9DECD" stroke-width="5.55423" stroke-linecap="round" stroke-linejoin="round"/>
<path d="M27.9636 227.307L179.68 233.875C183.176 234.026 185.857 237.035 185.606 240.525L175.901 375.535C175.781 377.207 174.99 378.76 173.707 379.84L138.43 409.547C137.121 410.649 135.417 411.162 133.717 410.966L8.28101 396.493C4.76103 396.087 2.29019 392.844 2.85927 389.347C5.08377 375.676 10.4863 342.462 15.2738 312.94C20.0993 283.182 21.1755 247.801 21.4155 233.5C21.4748 229.965 24.4315 227.154 27.9636 227.307Z" fill="#7EAA00" stroke="#E9DECD" stroke-width="5.55423" stroke-linecap="round" stroke-linejoin="round"/>
<path d="M136.38 410.238L175.713 377.115L145.673 374.54C142.255 374.247 139.247 376.78 138.955 380.197L136.38 410.238Z" fill="#46742E" stroke="#E9DECD" stroke-width="5.55423" stroke-linecap="round" stroke-linejoin="round"/>
<path d="M43.2214 281.886L157.082 296.378" stroke="#E9DECD" stroke-width="5.55423" stroke-linecap="round" stroke-linejoin="round"/>
<path d="M41.1511 315.009L150.871 329.501" stroke="#E9DECD" stroke-width="5.55423" stroke-linecap="round" stroke-linejoin="round"/>
<path d="M41.1511 348.132L139.485 358.483" stroke="#E9DECD" stroke-width="5.55423" stroke-linecap="round" stroke-linejoin="round"/>
<path d="M437.478 2.77891L350.252 5.00123C347.255 5.07758 344.865 7.52898 344.865 10.5268V104.047C344.865 107.217 347.526 109.738 350.692 109.566L442.892 104.567C446.154 104.391 448.558 101.441 448.096 98.207C446.717 88.5468 444.132 69.272 443.337 55.3151C442.519 40.9584 442.915 18.9034 443.174 8.47637C443.253 5.29754 440.657 2.69792 437.478 2.77891Z" fill="#7EAA00" stroke="#E9DECD" stroke-width="5.55423" stroke-linecap="round" stroke-linejoin="round"/>
<path d="M367.913 32.1091H423.187" stroke="#E9DECD" stroke-width="5.55423" stroke-linecap="round" stroke-linejoin="round"/>
<path d="M374.345 48.6911L418.564 46.8486" stroke="#E9DECD" stroke-width="5.55423" stroke-linecap="round" stroke-linejoin="round"/>
<path d="M374.345 65.2732L419.485 67.1157" stroke="#E9DECD" stroke-width="5.55423" stroke-linecap="round" stroke-linejoin="round"/>
<path d="M238.63 332.816C238.63 332.933 238.611 333.07 238.572 333.226C238.552 333.363 238.523 333.509 238.484 333.666C238.445 333.822 238.406 333.939 238.366 334.017C238.347 334.076 238.337 334.144 238.337 334.222C238.357 334.3 238.357 334.359 238.337 334.398C238.298 334.496 238.249 334.593 238.191 334.691C238.152 334.789 238.113 334.886 238.073 334.984C238.034 335.082 237.995 335.189 237.956 335.306C237.937 335.404 237.907 335.492 237.868 335.57C237.829 335.628 237.771 335.677 237.693 335.716C237.634 335.755 237.615 335.824 237.634 335.921C237.439 336 237.282 336.087 237.165 336.185C237.068 336.263 236.99 336.341 236.931 336.419C236.872 336.498 236.794 336.576 236.697 336.654C236.657 336.693 236.599 336.732 236.521 336.771C236.443 336.81 236.365 336.849 236.286 336.888C236.13 336.986 236.013 337.064 235.935 337.123C235.876 337.162 235.827 337.201 235.788 337.24C235.749 337.259 235.691 337.269 235.613 337.269C235.554 337.269 235.505 337.289 235.466 337.328C235.329 337.425 235.183 337.503 235.027 337.562C234.89 337.601 234.773 337.669 234.675 337.767C234.597 337.787 234.529 337.787 234.47 337.767C234.411 337.748 234.353 337.748 234.294 337.767C234.099 337.826 233.972 337.875 233.913 337.914C233.874 337.933 233.825 337.953 233.767 337.972C233.65 338.011 233.552 338.041 233.474 338.06C233.415 338.06 233.347 338.08 233.269 338.119C233.034 338.197 232.839 338.236 232.683 338.236C232.527 338.236 232.38 338.255 232.243 338.294C232.146 338.333 232.068 338.353 232.009 338.353C231.97 338.353 231.931 338.363 231.892 338.382C231.853 338.382 231.794 338.402 231.716 338.441C231.657 338.46 231.609 338.48 231.57 338.5C231.413 338.46 231.277 338.451 231.159 338.47C231.062 338.47 230.964 338.47 230.866 338.47C230.73 338.47 230.573 338.48 230.398 338.5C230.222 338.519 230.056 338.539 229.9 338.558C229.782 338.558 229.656 338.548 229.519 338.529C229.402 338.509 229.275 338.509 229.138 338.529C229.001 338.548 228.845 338.578 228.669 338.617C228.513 338.656 228.366 338.607 228.23 338.47C228.113 338.548 227.986 338.568 227.849 338.529C227.732 338.49 227.605 338.48 227.468 338.5C227.331 338.519 227.204 338.568 227.087 338.646C226.99 338.724 226.863 338.744 226.706 338.705C226.57 338.822 226.462 338.89 226.384 338.91C226.306 338.91 226.247 338.919 226.208 338.939C226.052 338.998 225.886 339.066 225.71 339.144C225.554 339.222 225.368 339.193 225.154 339.056C225.017 339.115 224.841 339.125 224.626 339.085C224.509 338.968 224.382 338.792 224.245 338.558C224.245 338.402 224.275 338.265 224.333 338.148C224.392 338.011 224.421 337.875 224.421 337.738C224.421 337.621 224.392 337.513 224.333 337.416C224.294 337.318 224.265 337.21 224.245 337.093C224.226 336.996 224.216 336.908 224.216 336.83C224.236 336.732 224.245 336.634 224.245 336.537C224.245 336.439 224.236 336.351 224.216 336.273C224.197 336.195 224.177 336.107 224.157 336.009C224.138 335.853 224.128 335.716 224.128 335.599C224.128 335.462 224.148 335.316 224.187 335.16C224.206 335.082 224.206 334.984 224.187 334.867C224.187 334.73 224.226 334.583 224.304 334.427C224.284 334.369 224.265 334.31 224.245 334.251C224.226 334.173 224.216 334.095 224.216 334.017C224.216 333.919 224.226 333.822 224.245 333.724C224.284 333.626 224.304 333.529 224.304 333.431C224.323 333.333 224.323 333.226 224.304 333.109C224.284 332.992 224.275 332.875 224.275 332.757C224.294 332.66 224.304 332.572 224.304 332.494C224.323 332.396 224.333 332.308 224.333 332.23C224.353 332.171 224.363 332.103 224.363 332.025C224.363 331.947 224.392 331.898 224.45 331.878C224.411 331.8 224.382 331.742 224.363 331.703C224.363 331.644 224.363 331.576 224.363 331.498V331.117C224.363 331.039 224.372 330.97 224.392 330.912C224.431 330.853 224.46 330.785 224.48 330.707C224.48 330.667 224.47 330.619 224.45 330.56C224.431 330.501 224.421 330.443 224.421 330.384C224.46 330.228 224.47 330.121 224.45 330.062C224.431 329.984 224.431 329.916 224.45 329.857V329.125C224.45 329.046 224.46 328.968 224.48 328.89C224.499 328.812 224.509 328.734 224.509 328.656C224.509 328.578 224.49 328.5 224.45 328.421C224.431 328.343 224.421 328.265 224.421 328.187C224.421 327.894 224.431 327.591 224.45 327.279C224.49 326.966 224.46 326.664 224.363 326.371C224.46 326.292 224.49 326.205 224.45 326.107C224.431 326.009 224.421 325.912 224.421 325.814C224.441 325.775 224.45 325.716 224.45 325.638C224.45 325.541 224.45 325.443 224.45 325.345C224.411 325.111 224.392 324.847 224.392 324.554C224.411 324.261 224.441 323.949 224.48 323.617C224.519 323.421 224.519 323.294 224.48 323.236C224.46 323.177 224.45 323.119 224.45 323.06C224.431 323.001 224.421 322.943 224.421 322.884C224.441 322.826 224.45 322.777 224.45 322.738C224.431 322.582 224.402 322.416 224.363 322.24C224.343 322.064 224.382 321.869 224.48 321.654C224.421 321.615 224.392 321.556 224.392 321.478C224.411 321.4 224.411 321.322 224.392 321.244C224.372 321.166 224.343 321.097 224.304 321.039C224.284 320.98 224.265 320.912 224.245 320.833C224.284 320.58 224.284 320.365 224.245 320.189C224.206 320.013 224.236 319.876 224.333 319.779C224.294 319.681 224.255 319.613 224.216 319.574C224.177 319.535 224.157 319.466 224.157 319.369C224.177 319.271 224.177 319.154 224.157 319.017C224.138 318.88 224.157 318.783 224.216 318.724C224.177 318.646 224.128 318.578 224.07 318.519C224.011 318.46 224.001 318.353 224.04 318.197C224.001 318.119 223.923 318.011 223.806 317.875C223.708 317.738 223.728 317.611 223.865 317.494C223.943 317.396 224.06 317.328 224.216 317.289C224.392 317.25 224.568 317.23 224.743 317.23C224.919 317.21 225.085 317.201 225.241 317.201C225.417 317.201 225.554 317.191 225.652 317.171C225.808 317.113 225.925 317.064 226.003 317.025C226.101 316.966 226.257 316.927 226.472 316.908C226.55 316.908 226.609 316.908 226.648 316.908C226.706 316.888 226.775 316.878 226.853 316.878C226.911 316.878 226.98 316.888 227.058 316.908C227.136 316.927 227.195 316.937 227.234 316.937C227.292 316.937 227.351 316.927 227.409 316.908C227.468 316.869 227.517 316.849 227.556 316.849C227.654 316.849 227.781 316.869 227.937 316.908H228.728C228.884 316.908 228.982 316.898 229.021 316.878C229.06 316.859 229.079 316.859 229.079 316.878C229.118 316.937 229.187 316.947 229.284 316.908C229.382 316.869 229.48 316.849 229.577 316.849C229.812 316.83 230.066 316.82 230.339 316.82C230.632 316.82 230.906 316.839 231.159 316.878C231.433 316.917 231.628 316.957 231.745 316.996C231.882 317.015 232.019 317.083 232.156 317.201C232.546 317.22 232.907 317.308 233.24 317.464C233.572 317.601 233.874 317.748 234.148 317.904C234.265 317.982 234.343 318.041 234.382 318.08C234.441 318.119 234.519 318.187 234.616 318.285C234.656 318.324 234.695 318.373 234.734 318.431C234.792 318.49 234.841 318.539 234.88 318.578C234.919 318.617 234.939 318.675 234.939 318.753C234.958 318.812 234.988 318.861 235.027 318.9C235.144 319.017 235.202 319.095 235.202 319.134C235.222 319.154 235.232 319.173 235.232 319.193C235.349 319.349 235.417 319.466 235.437 319.544C235.476 319.623 235.515 319.71 235.554 319.808C235.652 319.906 235.73 320.013 235.788 320.13C235.847 320.248 235.925 320.355 236.023 320.453C236.003 320.57 236.003 320.677 236.023 320.775C236.042 320.873 236.062 320.97 236.081 321.068C236.12 321.166 236.15 321.253 236.169 321.332C236.208 321.39 236.247 321.458 236.286 321.537C236.286 321.595 236.286 321.664 236.286 321.742C236.286 321.8 236.296 321.859 236.316 321.917C236.374 322.25 236.355 322.562 236.257 322.855C236.218 322.914 236.179 322.972 236.14 323.031C236.12 323.07 236.091 323.119 236.052 323.177C236.013 323.255 235.993 323.333 235.993 323.412C235.993 323.49 235.974 323.558 235.935 323.617C235.896 323.714 235.837 323.822 235.759 323.939C235.681 324.037 235.613 324.134 235.554 324.232C235.515 324.291 235.476 324.349 235.437 324.408C235.417 324.447 235.388 324.496 235.349 324.554C235.31 324.632 235.251 324.72 235.173 324.818C235.115 324.896 235.056 324.974 234.997 325.052C234.939 325.13 234.88 325.208 234.822 325.287C234.763 325.345 234.685 325.404 234.587 325.462C234.431 325.58 234.333 325.677 234.294 325.755C234.255 325.814 234.226 325.853 234.206 325.873C234.167 326.048 234.187 326.156 234.265 326.195C234.343 326.214 234.402 326.234 234.441 326.253C234.519 326.273 234.587 326.283 234.646 326.283C234.724 326.263 234.792 326.273 234.851 326.312C234.988 326.351 235.105 326.419 235.202 326.517C235.3 326.615 235.398 326.703 235.495 326.781C235.73 326.996 235.915 327.162 236.052 327.279C236.189 327.396 236.335 327.503 236.491 327.601C236.609 327.796 236.736 327.962 236.872 328.099C237.029 328.236 237.146 328.412 237.224 328.626C237.341 328.744 237.419 328.851 237.458 328.949C237.497 329.027 237.556 329.095 237.634 329.154C237.654 329.193 237.673 329.242 237.693 329.3C237.732 329.359 237.771 329.408 237.81 329.447C237.907 329.564 237.986 329.72 238.044 329.916C238.122 330.091 238.2 330.267 238.279 330.443C238.318 330.541 238.337 330.638 238.337 330.736C238.337 330.833 238.357 330.97 238.396 331.146C238.435 331.341 238.493 331.595 238.572 331.908C238.65 332.22 238.669 332.523 238.63 332.816ZM232.419 322.621C232.341 322.503 232.312 322.347 232.331 322.152C232.351 321.957 232.341 321.771 232.302 321.595C232.243 321.498 232.214 321.429 232.214 321.39C232.234 321.351 232.234 321.312 232.214 321.273C232.136 321.156 232.087 321.087 232.068 321.068C232.068 321.029 232.058 320.98 232.038 320.921C231.882 320.843 231.765 320.746 231.687 320.628C231.609 320.492 231.511 320.375 231.394 320.277C231.257 320.238 231.179 320.199 231.159 320.16C231.14 320.121 231.111 320.091 231.072 320.072C230.857 320.033 230.661 320.013 230.486 320.013C230.329 319.994 230.173 319.974 230.017 319.955C229.861 319.935 229.704 319.916 229.548 319.896C229.392 319.876 229.236 319.876 229.079 319.896C228.884 319.935 228.747 319.955 228.669 319.955C228.611 319.935 228.562 319.925 228.523 319.925C228.269 320.023 228.064 320.072 227.907 320.072C227.751 320.072 227.595 320.091 227.439 320.13C227.4 320.267 227.39 320.404 227.409 320.541C227.448 320.677 227.468 320.824 227.468 320.98C227.488 321.058 227.488 321.126 227.468 321.185C227.468 321.244 227.468 321.312 227.468 321.39C227.468 321.488 227.478 321.585 227.497 321.683C227.536 321.781 227.556 321.878 227.556 321.976C227.556 322.074 227.546 322.171 227.527 322.269C227.507 322.367 227.497 322.464 227.497 322.562C227.478 322.679 227.478 322.806 227.497 322.943C227.517 323.08 227.527 323.177 227.527 323.236C227.507 323.451 227.507 323.607 227.527 323.705C227.566 323.783 227.605 323.871 227.644 323.968C227.546 324.222 227.536 324.486 227.615 324.759C227.693 325.013 227.771 325.248 227.849 325.462C227.947 325.443 228.044 325.414 228.142 325.375C228.259 325.335 228.366 325.306 228.464 325.287C228.62 325.248 228.767 325.238 228.904 325.257C229.06 325.277 229.216 325.267 229.372 325.228C229.49 325.189 229.607 325.14 229.724 325.082C229.861 325.023 230.007 325.013 230.163 325.052C230.398 324.876 230.691 324.789 231.042 324.789C231.081 324.691 231.159 324.623 231.277 324.583C231.394 324.544 231.501 324.505 231.599 324.466C231.638 324.408 231.677 324.359 231.716 324.32C231.775 324.261 231.823 324.203 231.863 324.144C231.941 324.027 231.999 323.958 232.038 323.939C232.097 323.9 232.136 323.861 232.156 323.822C232.195 323.763 232.204 323.695 232.185 323.617C232.185 323.519 232.234 323.441 232.331 323.382C232.292 323.246 232.282 323.119 232.302 323.001C232.341 322.865 232.38 322.738 232.419 322.621ZM234.47 331.673C234.392 331.576 234.323 331.458 234.265 331.322C234.226 331.185 234.187 331.039 234.148 330.882C234.109 330.804 234.06 330.755 234.001 330.736C233.962 330.716 233.923 330.677 233.884 330.619C233.806 330.462 233.728 330.355 233.65 330.296C233.572 330.238 233.513 330.189 233.474 330.15C233.376 330.052 233.298 329.984 233.24 329.945C233.181 329.906 233.103 329.857 233.005 329.798C232.849 329.701 232.702 329.623 232.566 329.564C232.429 329.486 232.302 329.398 232.185 329.3C231.853 329.222 231.521 329.164 231.189 329.125C230.876 329.085 230.573 329.046 230.281 329.007C229.89 328.988 229.548 329.027 229.255 329.125C228.962 329.203 228.601 329.232 228.171 329.212C228.132 329.291 228.073 329.349 227.995 329.388C227.937 329.408 227.888 329.457 227.849 329.535C227.868 330.14 227.839 330.746 227.761 331.351C227.683 331.957 227.673 332.523 227.732 333.05C227.693 333.343 227.683 333.607 227.702 333.841C227.741 334.056 227.751 334.212 227.732 334.31C227.712 334.466 227.722 334.603 227.761 334.72C227.8 334.818 227.82 334.916 227.82 335.013C227.82 335.052 227.81 335.101 227.79 335.16C227.771 335.218 227.761 335.277 227.761 335.335C227.761 335.414 227.751 335.482 227.732 335.541C227.732 335.58 227.751 335.638 227.79 335.716C228.005 335.716 228.21 335.687 228.406 335.628C228.62 335.55 228.845 335.492 229.079 335.453C229.236 335.414 229.392 335.384 229.548 335.365C229.704 335.345 229.861 335.326 230.017 335.306C230.115 335.287 230.183 335.267 230.222 335.248C230.281 335.228 230.329 335.218 230.368 335.218C230.427 335.199 230.486 335.189 230.544 335.189C230.603 335.189 230.661 335.179 230.72 335.16C231.111 335.082 231.472 335.003 231.804 334.925C232.156 334.828 232.497 334.691 232.829 334.515C232.907 334.496 232.976 334.486 233.034 334.486C233.113 334.466 233.2 334.447 233.298 334.427C233.396 334.33 233.493 334.222 233.591 334.105C233.708 333.968 233.845 333.861 234.001 333.783C234.04 333.724 234.06 333.656 234.06 333.578C234.06 333.5 234.109 333.451 234.206 333.431C234.226 333.333 234.245 333.255 234.265 333.197C234.304 333.138 234.343 333.08 234.382 333.021C234.441 332.748 234.45 332.494 234.411 332.259C234.392 332.025 234.411 331.83 234.47 331.673ZM252.37 326.048C252.253 326.185 252.175 326.253 252.136 326.253C252.116 326.253 252.087 326.273 252.048 326.312C251.814 326.449 251.687 326.507 251.667 326.488C251.511 326.468 251.404 326.39 251.345 326.253C251.286 326.117 251.179 326.009 251.023 325.931C250.925 325.97 250.827 325.98 250.73 325.96C250.632 325.941 250.534 325.941 250.437 325.96C250.339 325.98 250.251 326.009 250.173 326.048C250.095 326.087 250.007 326.126 249.909 326.166C249.636 326.263 249.45 326.341 249.353 326.4C249.255 326.439 249.157 326.488 249.06 326.546C248.982 326.625 248.923 326.703 248.884 326.781C248.845 326.839 248.777 326.917 248.679 327.015C248.562 327.113 248.425 327.21 248.269 327.308C248.132 327.386 248.015 327.474 247.917 327.572C247.878 327.63 247.849 327.708 247.829 327.806C247.81 327.884 247.771 327.962 247.712 328.041C247.575 328.158 247.497 328.236 247.478 328.275C247.458 328.314 247.439 328.343 247.419 328.363C247.361 328.46 247.331 328.539 247.331 328.597C247.351 328.656 247.351 328.705 247.331 328.744C247.312 328.783 247.273 328.851 247.214 328.949C247.156 329.027 247.146 329.125 247.185 329.242C247.068 329.398 247.009 329.515 247.009 329.593C247.009 329.652 246.999 329.701 246.98 329.74C246.882 329.837 246.823 329.925 246.804 330.003C246.804 330.062 246.784 330.121 246.745 330.179C246.648 330.355 246.599 330.492 246.599 330.589C246.618 330.667 246.618 330.746 246.599 330.824C246.54 331.039 246.511 331.205 246.511 331.322C246.511 331.419 246.501 331.517 246.482 331.615C246.462 331.751 246.433 331.888 246.394 332.025C246.355 332.142 246.316 332.279 246.277 332.435C246.257 332.533 246.257 332.64 246.277 332.757C246.296 332.855 246.286 332.972 246.247 333.109C246.247 333.167 246.228 333.226 246.189 333.285C246.169 333.343 246.159 333.421 246.159 333.519C246.14 333.675 246.15 333.822 246.189 333.958C246.228 334.095 246.179 334.222 246.042 334.339C246.101 334.457 246.13 334.632 246.13 334.867C246.15 335.082 246.111 335.238 246.013 335.335C246.091 335.55 246.12 335.785 246.101 336.039C246.101 336.292 246.091 336.556 246.072 336.83C246.052 337.083 246.032 337.347 246.013 337.621C246.013 337.875 246.042 338.119 246.101 338.353C246.14 338.49 246.228 338.568 246.365 338.587C246.501 338.587 246.618 338.626 246.716 338.705C246.716 338.763 246.736 338.822 246.775 338.88C246.833 338.919 246.882 338.988 246.921 339.085C246.941 339.222 246.902 339.359 246.804 339.496C246.706 339.632 246.609 339.72 246.511 339.759C246.433 339.798 246.355 339.798 246.277 339.759C246.198 339.74 246.081 339.75 245.925 339.789C245.847 339.808 245.759 339.837 245.661 339.876C245.564 339.935 245.466 339.984 245.368 340.023C245.212 340.082 245.027 340.13 244.812 340.169C244.597 340.228 244.382 340.277 244.167 340.316C244.07 340.335 243.972 340.345 243.874 340.345C243.777 340.365 243.679 340.384 243.581 340.404C243.464 340.443 243.347 340.482 243.23 340.521C243.113 340.58 243.005 340.599 242.907 340.58C242.712 340.541 242.575 340.433 242.497 340.257C242.419 340.082 242.38 339.886 242.38 339.671C242.38 339.574 242.39 339.476 242.409 339.378C242.448 339.3 242.458 339.212 242.439 339.115C242.439 339.017 242.419 338.929 242.38 338.851C242.361 338.753 242.341 338.656 242.322 338.558C242.282 338.304 242.273 338.05 242.292 337.796C242.312 337.523 242.322 337.25 242.322 336.976C242.322 336.898 242.331 336.83 242.351 336.771C242.37 336.693 242.38 336.625 242.38 336.566C242.361 336.488 242.341 336.419 242.322 336.361C242.302 336.283 242.292 336.205 242.292 336.126C242.253 335.97 242.224 335.833 242.204 335.716C242.185 335.599 242.165 335.453 242.146 335.277C242.146 335.218 242.136 335.15 242.116 335.072C242.116 334.994 242.116 334.925 242.116 334.867C242.116 334.73 242.126 334.613 242.146 334.515C242.185 334.398 242.214 334.281 242.234 334.164C242.195 333.949 242.185 333.753 242.204 333.578C242.243 333.402 242.263 333.246 242.263 333.109C242.243 332.992 242.214 332.875 242.175 332.757C242.156 332.64 242.136 332.523 242.116 332.406C242.116 332.347 242.116 332.279 242.116 332.201C242.136 332.103 242.146 332.044 242.146 332.025C242.087 331.771 242.048 331.566 242.029 331.41C242.029 331.253 242.019 331.126 241.999 331.029C241.98 330.814 241.98 330.667 241.999 330.589C242.038 330.492 242.068 330.394 242.087 330.296C242.126 330.101 242.126 329.906 242.087 329.71C242.068 329.496 242.068 329.291 242.087 329.095C242.107 328.939 242.136 328.792 242.175 328.656C242.234 328.519 242.263 328.373 242.263 328.216C242.263 328.158 242.253 328.099 242.234 328.041C242.234 327.962 242.234 327.894 242.234 327.835C242.234 327.777 242.243 327.718 242.263 327.66C242.282 327.582 242.292 327.513 242.292 327.455C242.273 327.416 242.253 327.367 242.234 327.308C242.214 327.23 242.204 327.162 242.204 327.103C242.165 326.966 242.165 326.839 242.204 326.722C242.243 326.585 242.263 326.439 242.263 326.283C242.263 326.185 242.253 326.087 242.234 325.99C242.214 325.892 242.195 325.794 242.175 325.697C242.175 325.658 242.175 325.609 242.175 325.55C242.195 325.472 242.195 325.414 242.175 325.375C242.136 325.179 242.126 325.023 242.146 324.906C242.185 324.769 242.204 324.642 242.204 324.525C242.204 324.369 242.195 324.222 242.175 324.085C242.156 323.949 242.185 323.802 242.263 323.646C242.263 323.548 242.234 323.47 242.175 323.412C242.116 323.333 242.068 323.255 242.029 323.177C242.107 323.021 242.116 322.865 242.058 322.708C242.019 322.552 242.019 322.396 242.058 322.24C242.214 322.083 242.37 322.015 242.527 322.035C242.683 322.035 242.79 322.083 242.849 322.181C242.907 322.259 242.976 322.328 243.054 322.386C243.269 322.445 243.464 322.464 243.64 322.445C243.816 322.406 244.011 322.386 244.226 322.386C244.343 322.386 244.45 322.396 244.548 322.416C244.665 322.435 244.773 322.445 244.87 322.445C245.027 322.425 245.163 322.386 245.281 322.328C245.417 322.25 245.603 322.25 245.837 322.328C245.915 322.367 245.954 322.425 245.954 322.503C245.974 322.562 246.013 322.64 246.072 322.738C246.091 322.894 246.111 322.992 246.13 323.031C246.15 323.05 246.159 323.08 246.159 323.119C246.12 323.294 246.081 323.46 246.042 323.617C246.003 323.773 246.013 323.949 246.072 324.144C246.189 324.144 246.277 324.115 246.335 324.056C246.413 323.978 246.491 323.9 246.57 323.822C246.609 323.783 246.648 323.744 246.687 323.705C246.745 323.646 246.794 323.597 246.833 323.558C246.99 323.421 247.097 323.314 247.156 323.236C247.234 323.158 247.302 323.099 247.361 323.06C247.419 323.001 247.488 322.953 247.566 322.914C247.644 322.875 247.702 322.816 247.741 322.738C247.917 322.699 248.093 322.63 248.269 322.533C248.445 322.416 248.64 322.396 248.855 322.474C248.952 322.376 249.099 322.298 249.294 322.24C249.509 322.162 249.675 322.181 249.792 322.298C250.163 322.298 250.486 322.24 250.759 322.123C251.032 322.005 251.286 321.976 251.521 322.035C251.618 322.054 251.687 322.093 251.726 322.152C251.784 322.191 251.853 322.23 251.931 322.269C251.99 322.289 252.048 322.308 252.107 322.328C252.185 322.347 252.253 322.376 252.312 322.416C252.448 322.63 252.488 322.865 252.429 323.119C252.39 323.353 252.361 323.597 252.341 323.851C252.361 324.085 252.361 324.261 252.341 324.378C252.322 324.496 252.312 324.603 252.312 324.701C252.312 324.916 252.322 325.14 252.341 325.375C252.361 325.589 252.37 325.814 252.37 326.048ZM259.226 318.08C259.265 318.119 259.275 318.255 259.255 318.49C259.236 318.724 259.206 318.89 259.167 318.988C259.148 319.046 259.118 319.105 259.079 319.164C259.04 319.203 259.001 319.242 258.962 319.281C258.923 319.515 258.865 319.701 258.786 319.837C258.708 319.974 258.65 320.091 258.611 320.189C258.513 320.228 258.415 320.287 258.318 320.365C258.24 320.423 258.152 320.472 258.054 320.511C257.82 320.589 257.624 320.667 257.468 320.746C257.312 320.804 257.156 320.833 256.999 320.833C256.921 320.833 256.853 320.824 256.794 320.804C256.736 320.765 256.677 320.736 256.618 320.716C256.521 320.697 256.423 320.687 256.325 320.687C256.228 320.687 256.13 320.677 256.032 320.658C255.935 320.482 255.818 320.326 255.681 320.189C255.564 320.033 255.476 319.847 255.417 319.632C255.359 319.554 255.271 319.457 255.154 319.339C255.154 319.183 255.124 319.046 255.066 318.929C255.007 318.792 254.978 318.646 254.978 318.49C254.978 318.373 255.017 318.216 255.095 318.021C255.115 317.923 255.124 317.826 255.124 317.728C255.144 317.63 255.163 317.562 255.183 317.523C255.32 317.367 255.417 317.279 255.476 317.259C255.534 317.22 255.583 317.171 255.622 317.113C255.7 316.976 255.74 316.888 255.74 316.849C255.74 316.81 255.749 316.771 255.769 316.732C255.827 316.654 255.906 316.585 256.003 316.527C256.12 316.449 256.228 316.38 256.325 316.322C256.423 316.244 256.55 316.214 256.706 316.234C256.863 316.234 257.048 316.224 257.263 316.205C257.341 316.361 257.468 316.468 257.644 316.527C257.82 316.585 257.956 316.693 258.054 316.849C258.21 316.888 258.308 316.917 258.347 316.937C258.386 316.937 258.425 316.957 258.464 316.996C258.796 317.23 259.04 317.542 259.197 317.933L259.226 318.08ZM259.314 323.148C259.275 323.343 259.236 323.539 259.197 323.734C259.177 323.91 259.177 324.115 259.197 324.349C259.197 324.447 259.206 324.535 259.226 324.613C259.265 324.691 259.284 324.779 259.284 324.876C259.284 325.013 259.265 325.16 259.226 325.316C259.187 325.453 259.167 325.599 259.167 325.755C259.167 325.912 259.167 326.058 259.167 326.195C259.167 326.312 259.177 326.449 259.197 326.605C259.197 326.683 259.206 326.742 259.226 326.781C259.245 326.8 259.236 326.849 259.197 326.927C259.079 327.201 259.05 327.552 259.109 327.982C259.167 328.412 259.197 328.792 259.197 329.125C259.177 329.32 259.148 329.515 259.109 329.71C259.07 329.906 259.04 330.111 259.021 330.326C258.982 330.775 258.952 331.224 258.933 331.673C258.933 332.103 258.913 332.533 258.874 332.962C258.855 333.08 258.845 333.207 258.845 333.343C258.865 333.46 258.865 333.568 258.845 333.666C258.825 333.939 258.796 334.203 258.757 334.457C258.738 334.71 258.708 334.955 258.669 335.189C258.65 335.365 258.65 335.541 258.669 335.716C258.689 335.873 258.698 336.039 258.698 336.214C258.698 336.312 258.698 336.4 258.698 336.478C258.718 336.556 258.728 336.644 258.728 336.742C258.747 336.82 258.767 336.898 258.786 336.976C258.806 337.035 258.816 337.113 258.816 337.21C258.796 337.289 258.786 337.357 258.786 337.416C258.786 337.455 258.786 337.494 258.786 337.533C258.786 337.572 258.796 337.601 258.816 337.621C258.777 337.777 258.767 337.884 258.786 337.943C258.806 337.982 258.816 338.021 258.816 338.06C258.796 338.119 258.767 338.187 258.728 338.265C258.708 338.324 258.698 338.402 258.698 338.5C258.698 338.656 258.708 338.812 258.728 338.968C258.767 339.105 258.767 339.251 258.728 339.408C258.591 339.466 258.464 339.525 258.347 339.583C258.23 339.662 258.064 339.671 257.849 339.613C257.751 339.574 257.693 339.496 257.673 339.378C257.654 339.261 257.605 339.164 257.527 339.085C257.37 339.066 257.234 339.037 257.116 338.998C257.019 338.958 256.921 338.91 256.823 338.851C256.745 338.89 256.638 338.9 256.501 338.88C256.384 338.841 256.257 338.812 256.12 338.792C255.964 338.753 255.818 338.734 255.681 338.734C255.544 338.734 255.437 338.714 255.359 338.675C255.241 338.519 255.173 338.382 255.154 338.265C255.154 338.128 255.115 338.031 255.036 337.972C255.115 337.796 255.163 337.64 255.183 337.503C255.222 337.308 255.222 337.132 255.183 336.976C255.144 336.8 255.134 336.615 255.154 336.419C255.154 336.361 255.173 336.253 255.212 336.097C255.232 335.96 255.241 335.843 255.241 335.746C255.241 335.648 255.251 335.55 255.271 335.453C255.29 335.296 255.31 335.208 255.329 335.189C255.349 335.15 255.368 335.111 255.388 335.072C255.407 334.74 255.417 334.398 255.417 334.046C255.437 333.695 255.456 333.441 255.476 333.285C255.476 333.187 255.476 333.119 255.476 333.08C255.495 333.021 255.505 332.943 255.505 332.845C255.505 332.455 255.515 332.123 255.534 331.849C255.573 331.556 255.583 331.253 255.564 330.941C255.544 330.726 255.544 330.531 255.564 330.355C255.603 330.179 255.622 330.003 255.622 329.828C255.642 329.613 255.632 329.427 255.593 329.271C255.573 329.095 255.613 328.919 255.71 328.744C255.632 328.548 255.603 328.353 255.622 328.158C255.661 327.962 255.681 327.777 255.681 327.601C255.681 327.445 255.681 327.298 255.681 327.162C255.681 327.025 255.691 326.878 255.71 326.722C255.71 326.625 255.7 326.527 255.681 326.429C255.661 326.312 255.671 326.205 255.71 326.107C255.73 325.892 255.74 325.746 255.74 325.667C255.759 325.57 255.769 325.501 255.769 325.462C255.769 325.384 255.749 325.316 255.71 325.257C255.691 325.199 255.681 325.14 255.681 325.082C255.681 325.003 255.681 324.935 255.681 324.876C255.7 324.818 255.7 324.759 255.681 324.701C255.642 324.466 255.613 324.31 255.593 324.232C255.593 324.134 255.603 324.056 255.622 323.998C255.603 323.9 255.544 323.841 255.447 323.822C255.349 323.802 255.281 323.753 255.241 323.675C255.202 323.519 255.163 323.353 255.124 323.177C255.085 322.982 255.134 322.835 255.271 322.738C255.368 322.699 255.456 322.689 255.534 322.708C255.632 322.708 255.749 322.718 255.886 322.738C256.003 322.777 256.081 322.787 256.12 322.767C256.159 322.748 256.198 322.748 256.238 322.767C256.296 322.787 256.355 322.816 256.413 322.855C256.491 322.875 256.57 322.894 256.648 322.914C256.843 322.933 257.068 322.933 257.322 322.914C257.575 322.894 257.82 322.875 258.054 322.855C258.308 322.816 258.532 322.796 258.728 322.796C258.923 322.777 259.06 322.796 259.138 322.855C259.197 322.894 259.226 322.953 259.226 323.031C259.226 323.089 259.255 323.128 259.314 323.148ZM279.323 331.029C279.304 331.302 279.304 331.488 279.323 331.585C279.343 331.683 279.323 331.791 279.265 331.908C279.226 331.986 279.148 332.044 279.031 332.083C278.933 332.123 278.865 332.181 278.825 332.259C278.708 332.22 278.581 332.21 278.445 332.23C278.308 332.23 278.191 332.25 278.093 332.289C277.956 332.171 277.761 332.123 277.507 332.142C277.273 332.162 277.077 332.113 276.921 331.996C276.804 332.054 276.697 332.083 276.599 332.083C276.325 332.123 276.032 332.113 275.72 332.054C275.427 331.996 275.124 331.947 274.812 331.908C274.597 331.888 274.372 331.878 274.138 331.878C273.904 331.878 273.698 331.878 273.523 331.878C273.327 331.917 273.171 331.937 273.054 331.937C272.898 331.917 272.751 331.878 272.615 331.82C272.497 331.761 272.361 331.732 272.204 331.732C272.087 331.712 271.96 331.722 271.823 331.761C271.706 331.781 271.589 331.791 271.472 331.791C271.355 331.791 271.198 331.771 271.003 331.732C270.847 331.751 270.74 331.761 270.681 331.761C270.622 331.742 270.573 331.732 270.534 331.732C270.398 331.732 270.261 331.742 270.124 331.761C270.007 331.781 269.9 331.732 269.802 331.615C269.724 331.673 269.656 331.712 269.597 331.732C269.538 331.751 269.431 331.761 269.275 331.761C269.177 331.742 269.099 331.732 269.04 331.732C269.001 331.712 268.962 331.703 268.923 331.703C268.786 331.742 268.669 331.751 268.572 331.732C268.493 331.712 268.415 331.742 268.337 331.82C268.298 331.781 268.23 331.771 268.132 331.791C268.034 331.791 267.966 331.771 267.927 331.732C267.673 331.693 267.468 331.693 267.312 331.732C267.156 331.771 266.99 331.791 266.814 331.791C266.657 331.791 266.501 331.771 266.345 331.732C266.208 331.693 266.032 331.693 265.818 331.732C265.72 331.908 265.681 332.132 265.7 332.406C265.74 332.66 265.818 332.865 265.935 333.021C265.954 333.119 265.945 333.197 265.906 333.255C265.886 333.314 265.876 333.392 265.876 333.49C266.032 333.705 266.159 333.861 266.257 333.958C266.374 334.056 266.462 334.154 266.521 334.251C266.618 334.408 266.736 334.554 266.872 334.691C267.009 334.828 267.136 334.984 267.253 335.16C267.292 335.257 267.341 335.335 267.4 335.394C267.478 335.453 267.546 335.531 267.605 335.628C267.761 335.667 267.888 335.726 267.986 335.804C268.103 335.882 268.24 335.97 268.396 336.068C268.611 336.185 268.757 336.292 268.835 336.39C268.933 336.468 269.05 336.537 269.187 336.595C269.284 336.634 269.363 336.654 269.421 336.654C269.48 336.634 269.538 336.634 269.597 336.654C269.695 336.693 269.802 336.761 269.919 336.859C270.036 336.957 270.163 337.015 270.3 337.035C270.515 337.015 270.671 337.015 270.769 337.035C270.866 337.035 270.954 337.044 271.032 337.064C271.286 337.083 271.521 337.025 271.736 336.888C271.833 336.888 271.911 336.888 271.97 336.888C272.029 336.888 272.107 336.878 272.204 336.859C272.38 336.742 272.507 336.683 272.585 336.683C272.683 336.683 272.761 336.664 272.82 336.625C272.878 336.566 272.927 336.537 272.966 336.537C273.025 336.517 273.073 336.498 273.113 336.478C273.23 336.439 273.327 336.39 273.406 336.332C273.503 336.273 273.601 336.205 273.698 336.126C273.835 336.048 273.962 335.96 274.079 335.863C274.275 335.746 274.441 335.58 274.577 335.365C274.734 335.15 274.9 334.964 275.075 334.808C275.095 334.574 275.134 334.378 275.193 334.222C275.251 334.066 275.329 333.919 275.427 333.783C275.427 333.568 275.447 333.402 275.486 333.285C275.544 333.148 275.613 333.021 275.691 332.904C275.788 332.884 275.876 332.865 275.954 332.845C276.032 332.826 276.13 332.835 276.247 332.875C276.306 332.914 276.355 332.953 276.394 332.992C276.452 333.011 276.531 333.041 276.628 333.08C276.687 333.119 276.745 333.148 276.804 333.167C276.882 333.167 276.99 333.187 277.126 333.226C277.263 333.285 277.361 333.314 277.419 333.314C277.478 333.314 277.536 333.324 277.595 333.343C277.751 333.421 277.888 333.451 278.005 333.431C278.142 333.412 278.259 333.421 278.357 333.46C278.572 333.617 278.698 333.734 278.738 333.812C278.738 334.046 278.669 334.261 278.532 334.457C278.435 334.671 278.386 334.808 278.386 334.867C278.406 334.906 278.406 334.974 278.386 335.072C278.366 335.13 278.337 335.179 278.298 335.218C278.259 335.257 278.23 335.316 278.21 335.394C278.171 335.511 278.142 335.628 278.122 335.746C278.103 335.843 278.064 335.951 278.005 336.068C277.849 336.263 277.722 336.41 277.624 336.507C277.546 336.585 277.458 336.644 277.361 336.683C277.4 336.781 277.38 336.859 277.302 336.917C277.224 336.957 277.165 336.996 277.126 337.035C277.068 337.171 276.98 337.279 276.863 337.357C276.765 337.435 276.648 337.523 276.511 337.621C276.355 337.757 276.189 337.875 276.013 337.972C275.857 338.07 275.7 338.167 275.544 338.265C275.329 338.441 275.183 338.568 275.105 338.646C275.027 338.705 274.929 338.753 274.812 338.792C274.714 338.832 274.636 338.871 274.577 338.91C274.538 338.929 274.509 338.939 274.49 338.939C274.392 338.978 274.284 338.998 274.167 338.998C274.05 338.998 273.933 339.017 273.816 339.056C273.601 339.134 273.415 339.183 273.259 339.203C273.103 339.242 272.947 339.281 272.79 339.32C272.693 339.359 272.605 339.388 272.527 339.408C272.448 339.427 272.331 339.427 272.175 339.408C271.98 339.369 271.833 339.378 271.736 339.437C271.638 339.496 271.54 339.486 271.443 339.408C271.228 339.447 271.042 339.486 270.886 339.525C270.749 339.564 270.622 339.574 270.505 339.554C270.447 339.554 270.388 339.544 270.329 339.525C270.271 339.505 270.212 339.486 270.154 339.466C269.782 339.408 269.48 339.369 269.245 339.349C269.031 339.33 268.835 339.291 268.659 339.232C268.601 339.212 268.542 339.203 268.484 339.203C268.425 339.203 268.376 339.164 268.337 339.085C268.142 339.125 267.956 339.105 267.781 339.027C267.624 338.929 267.497 338.832 267.4 338.734C267.341 338.734 267.282 338.724 267.224 338.705C267.185 338.685 267.136 338.666 267.077 338.646C266.941 338.587 266.804 338.529 266.667 338.47C266.531 338.392 266.423 338.275 266.345 338.119C266.189 338.119 266.072 338.08 265.993 338.001C265.935 337.923 265.857 337.845 265.759 337.767C265.603 337.767 265.456 337.728 265.32 337.65C265.202 337.552 265.105 337.445 265.027 337.328C264.87 337.132 264.724 336.976 264.587 336.859C264.372 336.644 264.206 336.468 264.089 336.332C263.972 336.175 263.825 336.068 263.65 336.009C263.611 335.892 263.552 335.794 263.474 335.716C263.396 335.638 263.318 335.55 263.24 335.453C263.142 335.257 263.073 335.13 263.034 335.072C262.995 335.013 262.956 334.964 262.917 334.925C262.878 334.769 262.839 334.623 262.8 334.486C262.781 334.33 262.751 334.173 262.712 334.017C262.654 333.802 262.624 333.646 262.624 333.548C262.624 333.451 262.615 333.353 262.595 333.255C262.575 333.197 262.546 333.138 262.507 333.08C262.488 333.021 262.468 332.962 262.448 332.904C262.429 332.806 262.419 332.708 262.419 332.611C262.439 332.513 262.439 332.406 262.419 332.289C262.4 332.191 262.38 332.103 262.361 332.025C262.341 331.927 262.331 331.83 262.331 331.732C262.331 331.595 262.341 331.458 262.361 331.322C262.38 331.166 262.39 331.009 262.39 330.853C262.39 330.814 262.38 330.765 262.361 330.707C262.361 330.628 262.361 330.57 262.361 330.531C262.38 330.433 262.409 330.335 262.448 330.238C262.507 330.121 262.546 330.013 262.566 329.916C262.527 329.74 262.517 329.613 262.536 329.535C262.575 329.457 262.575 329.398 262.536 329.359C262.575 329.32 262.605 329.271 262.624 329.212C262.644 329.134 262.663 329.076 262.683 329.037C262.702 328.978 262.712 328.91 262.712 328.832C262.712 328.753 262.732 328.666 262.771 328.568C262.868 328.412 262.927 328.324 262.947 328.304C262.986 328.265 263.015 328.236 263.034 328.216C263.054 328.08 263.073 327.992 263.093 327.953C263.113 327.894 263.142 327.845 263.181 327.806C263.279 327.611 263.337 327.494 263.357 327.455C263.396 327.416 263.425 327.376 263.445 327.337C263.464 327.181 263.484 327.093 263.503 327.074C263.523 327.054 263.542 327.025 263.562 326.986C263.601 326.869 263.62 326.771 263.62 326.693C263.64 326.595 263.669 326.498 263.708 326.4C263.747 326.302 263.796 326.205 263.855 326.107C263.913 325.99 263.991 325.892 264.089 325.814C264.187 325.58 264.275 325.384 264.353 325.228C264.431 325.052 264.509 324.886 264.587 324.73C264.763 324.593 264.909 324.437 265.027 324.261C265.163 324.085 265.32 323.929 265.495 323.792C265.534 323.753 265.573 323.734 265.613 323.734C265.671 323.714 265.74 323.685 265.818 323.646C266.032 323.49 266.189 323.373 266.286 323.294C266.384 323.197 266.501 323.119 266.638 323.06C266.755 323.021 266.931 323.001 267.165 323.001C267.419 322.982 267.595 322.904 267.693 322.767C267.81 322.767 267.927 322.748 268.044 322.708C268.161 322.65 268.279 322.591 268.396 322.533C268.474 322.494 268.562 322.455 268.659 322.416C268.757 322.357 268.894 322.337 269.07 322.357C269.206 322.376 269.333 322.386 269.45 322.386C269.587 322.367 269.734 322.337 269.89 322.298C269.968 322.279 270.056 322.259 270.154 322.24C270.251 322.22 270.359 322.21 270.476 322.21C270.769 322.25 270.993 322.269 271.15 322.269C271.325 322.269 271.521 322.279 271.736 322.298C271.833 322.298 271.931 322.289 272.029 322.269C272.146 322.23 272.263 322.21 272.38 322.21C272.478 322.23 272.566 322.24 272.644 322.24C272.741 322.24 272.839 322.25 272.937 322.269C273.073 322.308 273.152 322.328 273.171 322.328C273.21 322.328 273.24 322.328 273.259 322.328C273.357 322.347 273.435 322.386 273.493 322.445C273.572 322.484 273.659 322.523 273.757 322.562C273.796 322.601 273.845 322.621 273.904 322.621C273.982 322.621 274.04 322.64 274.079 322.679C274.157 322.699 274.275 322.748 274.431 322.826C274.568 322.865 274.695 322.904 274.812 322.943C274.929 322.982 275.007 323.07 275.046 323.207C275.261 323.265 275.417 323.343 275.515 323.441C275.632 323.539 275.74 323.617 275.837 323.675C275.915 323.734 275.993 323.822 276.072 323.939C276.15 324.037 276.238 324.115 276.335 324.173C276.355 324.232 276.374 324.281 276.394 324.32C276.433 324.359 276.462 324.417 276.482 324.496C276.638 324.593 276.775 324.72 276.892 324.876C277.009 325.013 277.175 325.121 277.39 325.199C277.448 325.335 277.517 325.453 277.595 325.55C277.673 325.648 277.722 325.785 277.741 325.96C277.781 326.019 277.82 326.087 277.859 326.166C277.917 326.224 277.976 326.302 278.034 326.4C278.054 326.439 278.083 326.488 278.122 326.546C278.181 326.605 278.22 326.664 278.24 326.722C278.337 326.937 278.445 327.142 278.562 327.337C278.601 327.396 278.65 327.464 278.708 327.542C278.786 327.621 278.845 327.708 278.884 327.806C278.904 327.884 278.913 327.962 278.913 328.041C278.913 328.119 278.923 328.197 278.943 328.275C278.982 328.373 279.011 328.46 279.031 328.539C279.05 328.597 279.07 328.646 279.089 328.685C279.128 328.841 279.138 328.998 279.118 329.154C279.099 329.291 279.099 329.437 279.118 329.593C279.138 329.71 279.148 329.837 279.148 329.974C279.167 330.091 279.187 330.208 279.206 330.326C279.206 330.482 279.216 330.609 279.236 330.707L279.323 331.029ZM275.134 328.685C275.173 328.646 275.173 328.578 275.134 328.48C275.115 328.382 275.066 328.314 274.988 328.275C274.948 328.138 274.89 328.06 274.812 328.041C274.753 328.001 274.753 327.943 274.812 327.865C274.753 327.806 274.675 327.757 274.577 327.718C274.48 327.679 274.441 327.601 274.46 327.484C274.363 327.503 274.294 327.484 274.255 327.425C274.236 327.347 274.206 327.298 274.167 327.279C274.031 327.181 273.943 327.083 273.904 326.986C273.865 326.888 273.806 326.81 273.728 326.751C273.669 326.712 273.601 326.712 273.523 326.751C273.464 326.771 273.435 326.722 273.435 326.605C273.122 326.625 272.878 326.576 272.702 326.458C272.546 326.322 272.39 326.175 272.234 326.019C272.058 326.058 271.863 326.068 271.648 326.048C271.433 326.029 271.228 326.029 271.032 326.048C270.876 325.951 270.73 325.912 270.593 325.931C270.476 325.931 270.329 325.902 270.154 325.843C270.075 325.824 270.027 325.785 270.007 325.726C270.007 325.648 269.958 325.609 269.861 325.609C269.724 325.667 269.587 325.667 269.45 325.609C269.333 325.55 269.197 325.511 269.04 325.492C268.884 325.589 268.718 325.658 268.542 325.697C268.366 325.716 268.191 325.755 268.015 325.814C267.917 325.853 267.81 325.951 267.693 326.107C267.575 326.244 267.488 326.341 267.429 326.4C267.292 326.556 267.156 326.712 267.019 326.869C266.882 327.025 266.755 327.181 266.638 327.337C266.657 327.455 266.648 327.552 266.609 327.63C266.57 327.689 266.56 327.767 266.579 327.865C266.443 327.962 266.345 328.119 266.286 328.333C266.247 328.529 266.208 328.724 266.169 328.919C266.306 328.939 266.462 328.939 266.638 328.919C266.814 328.9 266.999 328.88 267.195 328.861C267.253 328.841 267.312 328.832 267.37 328.832C267.448 328.832 267.517 328.832 267.575 328.832C267.868 328.773 268.122 328.753 268.337 328.773C268.552 328.773 268.747 328.763 268.923 328.744C269.118 328.744 269.304 328.734 269.48 328.714C269.675 328.675 269.851 328.695 270.007 328.773C270.222 328.675 270.466 328.636 270.74 328.656C271.032 328.675 271.267 328.695 271.443 328.714C271.599 328.714 271.687 328.705 271.706 328.685C271.726 328.666 271.745 328.666 271.765 328.685C272.331 328.646 272.888 328.666 273.435 328.744C274.001 328.802 274.568 328.783 275.134 328.685ZM291.775 318.431C291.618 318.529 291.452 318.626 291.277 318.724C291.12 318.822 291.013 318.968 290.954 319.164C290.798 319.32 290.7 319.447 290.661 319.544C290.622 319.623 290.573 319.691 290.515 319.75C290.398 319.75 290.3 319.759 290.222 319.779C290.144 319.798 290.056 319.798 289.958 319.779C289.802 319.74 289.685 319.652 289.607 319.515C289.548 319.378 289.47 319.261 289.372 319.164C289.216 319.125 289.06 319.085 288.904 319.046C288.767 318.988 288.63 318.978 288.493 319.017C288.337 319.056 288.24 319.115 288.2 319.193C288.161 319.251 288.083 319.3 287.966 319.339C287.966 319.457 287.947 319.574 287.907 319.691C287.888 319.808 287.868 319.935 287.849 320.072C287.849 320.267 287.849 320.462 287.849 320.658C287.849 320.853 287.829 321.058 287.79 321.273C287.751 321.468 287.702 321.654 287.644 321.83C287.605 321.986 287.615 322.152 287.673 322.328C287.868 322.425 288.064 322.455 288.259 322.416C288.454 322.376 288.659 322.376 288.874 322.416C288.991 322.435 289.109 322.464 289.226 322.503C289.343 322.542 289.46 322.582 289.577 322.621C289.734 322.601 289.851 322.601 289.929 322.621C290.027 322.621 290.124 322.66 290.222 322.738C290.378 322.835 290.447 322.982 290.427 323.177C290.427 323.353 290.447 323.558 290.486 323.792C290.525 324.085 290.534 324.339 290.515 324.554C290.495 324.769 290.495 324.984 290.515 325.199C290.456 325.238 290.407 325.296 290.368 325.375C290.329 325.433 290.29 325.482 290.251 325.521C290.036 325.56 289.792 325.58 289.519 325.58C289.245 325.58 289.011 325.57 288.816 325.55C288.777 325.55 288.708 325.57 288.611 325.609C288.532 325.628 288.474 325.589 288.435 325.492C288.337 325.55 288.21 325.58 288.054 325.58C287.898 325.58 287.741 325.58 287.585 325.58C287.488 325.814 287.439 326.097 287.439 326.429C287.458 326.761 287.419 327.044 287.322 327.279C287.4 327.494 287.439 327.777 287.439 328.128C287.478 328.343 287.488 328.49 287.468 328.568C287.448 328.626 287.439 328.675 287.439 328.714C287.458 329.027 287.448 329.281 287.409 329.476C287.39 329.652 287.361 329.808 287.322 329.945C287.38 330.042 287.4 330.169 287.38 330.326C287.361 330.462 287.351 330.599 287.351 330.736C287.351 330.892 287.351 331.039 287.351 331.175C287.351 331.292 287.341 331.419 287.322 331.556C287.302 331.673 287.273 331.81 287.234 331.966C287.214 332.103 287.195 332.259 287.175 332.435C287.156 332.591 287.146 332.757 287.146 332.933C287.165 333.109 287.126 333.255 287.029 333.373C287.029 333.47 287.068 333.597 287.146 333.753C287.185 334.046 287.185 334.369 287.146 334.72C287.107 335.052 287.107 335.384 287.146 335.716C287.146 335.775 287.146 335.853 287.146 335.951C287.165 336.048 287.175 336.126 287.175 336.185C287.234 336.361 287.253 336.488 287.234 336.566C287.214 336.644 287.204 336.722 287.204 336.8C287.224 336.898 287.253 337.005 287.292 337.123C287.331 337.24 287.361 337.357 287.38 337.474C287.419 337.63 287.429 337.806 287.409 338.001C287.39 338.177 287.39 338.343 287.409 338.5C287.507 338.988 287.497 339.32 287.38 339.496C287.361 339.535 287.312 339.574 287.234 339.613C287.156 339.671 287.087 339.73 287.029 339.789H286.413H285.886C285.847 339.789 285.779 339.798 285.681 339.818C285.603 339.857 285.554 339.828 285.534 339.73C285.476 339.75 285.407 339.779 285.329 339.818C285.251 339.857 285.173 339.857 285.095 339.818C285.056 339.876 285.007 339.916 284.948 339.935C284.909 339.955 284.87 339.984 284.831 340.023C284.695 340.062 284.607 340.052 284.568 339.994C284.548 339.955 284.509 339.916 284.45 339.876C284.431 340.111 284.304 340.238 284.07 340.257C283.855 340.277 283.65 340.257 283.454 340.199C283.493 340.101 283.474 340.023 283.396 339.964C283.337 339.906 283.308 339.828 283.308 339.73C283.288 339.613 283.308 339.476 283.366 339.32C283.445 339.183 283.484 339.076 283.484 338.998C283.523 338.744 283.532 338.48 283.513 338.207C283.513 337.933 283.562 337.708 283.659 337.533C283.601 337.435 283.591 337.328 283.63 337.21C283.669 337.093 283.689 336.986 283.689 336.888C283.669 336.712 283.65 336.556 283.63 336.419C283.611 336.283 283.601 336.097 283.601 335.863C283.601 335.414 283.611 335.003 283.63 334.632C283.669 334.242 283.679 333.871 283.659 333.519C283.64 333.285 283.62 333.07 283.601 332.875C283.601 332.66 283.601 332.445 283.601 332.23C283.698 332.113 283.738 332.005 283.718 331.908C283.698 331.791 283.689 331.654 283.689 331.498C283.689 331.439 283.698 331.38 283.718 331.322C283.738 331.263 283.747 331.205 283.747 331.146C283.747 331.009 283.728 330.892 283.689 330.794C283.669 330.697 283.679 330.589 283.718 330.472C283.738 330.355 283.757 330.277 283.777 330.238C283.796 330.179 283.816 330.13 283.835 330.091C283.796 329.935 283.796 329.808 283.835 329.71C283.894 329.613 283.913 329.544 283.894 329.505C283.874 329.408 283.874 329.33 283.894 329.271C283.913 329.193 283.933 329.125 283.952 329.066C283.952 328.91 283.923 328.744 283.865 328.568C283.825 328.373 283.845 328.216 283.923 328.099C283.962 328.001 283.972 327.835 283.952 327.601C283.952 327.347 283.943 327.142 283.923 326.986C283.962 326.888 283.972 326.791 283.952 326.693C283.933 326.595 283.962 326.517 284.04 326.458C283.943 326.302 283.913 326.087 283.952 325.814C283.991 325.541 283.982 325.287 283.923 325.052C283.845 324.994 283.757 324.974 283.659 324.994C283.581 324.994 283.474 324.994 283.337 324.994C283.142 324.974 283.005 324.994 282.927 325.052C282.849 325.091 282.761 325.121 282.663 325.14C282.468 325.179 282.273 325.189 282.077 325.169C281.902 325.15 281.716 325.13 281.521 325.111C281.501 325.052 281.462 325.013 281.404 324.994C281.345 324.974 281.335 324.916 281.374 324.818C281.277 324.505 281.247 324.271 281.286 324.115C281.325 323.958 281.394 323.822 281.491 323.705C281.472 323.548 281.472 323.412 281.491 323.294C281.531 323.177 281.57 323.05 281.609 322.914C281.648 322.777 281.677 322.679 281.697 322.621C281.736 322.542 281.804 322.455 281.902 322.357C282.038 322.279 282.116 322.22 282.136 322.181C282.156 322.123 282.185 322.093 282.224 322.093C282.38 322.074 282.546 322.074 282.722 322.093C282.898 322.093 283.064 322.074 283.22 322.035C283.474 321.957 283.679 321.927 283.835 321.947C284.011 321.947 284.157 321.898 284.275 321.8C284.275 321.703 284.275 321.605 284.275 321.507C284.294 321.41 284.284 321.322 284.245 321.244C284.206 321.146 284.206 320.951 284.245 320.658C284.304 320.365 284.363 320.16 284.421 320.042C284.402 319.984 284.392 319.925 284.392 319.867C284.392 319.808 284.372 319.759 284.333 319.72C284.411 319.505 284.47 319.3 284.509 319.105C284.568 318.89 284.616 318.675 284.656 318.46C284.792 318.285 284.87 318.158 284.89 318.08C284.909 318.001 284.939 317.943 284.978 317.904C285.075 317.767 285.134 317.689 285.154 317.669C285.173 317.63 285.193 317.601 285.212 317.582C285.29 317.445 285.368 317.347 285.447 317.289C285.525 317.21 285.593 317.132 285.652 317.054C285.71 316.976 285.769 316.908 285.827 316.849C285.906 316.771 285.964 316.693 286.003 316.615C286.101 316.615 286.169 316.605 286.208 316.585C286.247 316.546 286.306 316.537 286.384 316.556C286.423 316.458 286.443 316.39 286.443 316.351C286.443 316.292 286.491 316.234 286.589 316.175C286.628 316.136 286.687 316.097 286.765 316.058C286.843 316.019 286.902 315.98 286.941 315.941C287.038 315.941 287.136 315.951 287.234 315.97C287.331 315.97 287.429 315.941 287.527 315.882C287.566 315.863 287.624 315.843 287.702 315.824C287.781 315.785 287.868 315.755 287.966 315.736C288.083 315.716 288.21 315.716 288.347 315.736C288.503 315.736 288.65 315.746 288.786 315.765C289.118 315.804 289.402 315.902 289.636 316.058C289.87 316.214 290.124 316.341 290.398 316.439C290.476 316.576 290.583 316.673 290.72 316.732C290.876 316.791 290.984 316.888 291.042 317.025C291.198 317.064 291.316 317.142 291.394 317.259C291.472 317.376 291.589 317.455 291.745 317.494C291.823 317.748 291.833 318.06 291.775 318.431ZM297.722 318.08C297.761 318.119 297.771 318.255 297.751 318.49C297.732 318.724 297.702 318.89 297.663 318.988C297.644 319.046 297.615 319.105 297.575 319.164C297.536 319.203 297.497 319.242 297.458 319.281C297.419 319.515 297.361 319.701 297.282 319.837C297.204 319.974 297.146 320.091 297.107 320.189C297.009 320.228 296.911 320.287 296.814 320.365C296.736 320.423 296.648 320.472 296.55 320.511C296.316 320.589 296.12 320.667 295.964 320.746C295.808 320.804 295.652 320.833 295.495 320.833C295.417 320.833 295.349 320.824 295.29 320.804C295.232 320.765 295.173 320.736 295.115 320.716C295.017 320.697 294.919 320.687 294.822 320.687C294.724 320.687 294.626 320.677 294.529 320.658C294.431 320.482 294.314 320.326 294.177 320.189C294.06 320.033 293.972 319.847 293.913 319.632C293.855 319.554 293.767 319.457 293.65 319.339C293.65 319.183 293.62 319.046 293.562 318.929C293.503 318.792 293.474 318.646 293.474 318.49C293.474 318.373 293.513 318.216 293.591 318.021C293.611 317.923 293.62 317.826 293.62 317.728C293.64 317.63 293.659 317.562 293.679 317.523C293.816 317.367 293.913 317.279 293.972 317.259C294.031 317.22 294.079 317.171 294.118 317.113C294.197 316.976 294.236 316.888 294.236 316.849C294.236 316.81 294.245 316.771 294.265 316.732C294.323 316.654 294.402 316.585 294.499 316.527C294.616 316.449 294.724 316.38 294.822 316.322C294.919 316.244 295.046 316.214 295.202 316.234C295.359 316.234 295.544 316.224 295.759 316.205C295.837 316.361 295.964 316.468 296.14 316.527C296.316 316.585 296.452 316.693 296.55 316.849C296.706 316.888 296.804 316.917 296.843 316.937C296.882 316.937 296.921 316.957 296.96 316.996C297.292 317.23 297.536 317.542 297.693 317.933L297.722 318.08ZM297.81 323.148C297.771 323.343 297.732 323.539 297.693 323.734C297.673 323.91 297.673 324.115 297.693 324.349C297.693 324.447 297.702 324.535 297.722 324.613C297.761 324.691 297.781 324.779 297.781 324.876C297.781 325.013 297.761 325.16 297.722 325.316C297.683 325.453 297.663 325.599 297.663 325.755C297.663 325.912 297.663 326.058 297.663 326.195C297.663 326.312 297.673 326.449 297.693 326.605C297.693 326.683 297.702 326.742 297.722 326.781C297.741 326.8 297.732 326.849 297.693 326.927C297.575 327.201 297.546 327.552 297.605 327.982C297.663 328.412 297.693 328.792 297.693 329.125C297.673 329.32 297.644 329.515 297.605 329.71C297.566 329.906 297.536 330.111 297.517 330.326C297.478 330.775 297.448 331.224 297.429 331.673C297.429 332.103 297.409 332.533 297.37 332.962C297.351 333.08 297.341 333.207 297.341 333.343C297.361 333.46 297.361 333.568 297.341 333.666C297.322 333.939 297.292 334.203 297.253 334.457C297.234 334.71 297.204 334.955 297.165 335.189C297.146 335.365 297.146 335.541 297.165 335.716C297.185 335.873 297.195 336.039 297.195 336.214C297.195 336.312 297.195 336.4 297.195 336.478C297.214 336.556 297.224 336.644 297.224 336.742C297.243 336.82 297.263 336.898 297.282 336.976C297.302 337.035 297.312 337.113 297.312 337.21C297.292 337.289 297.282 337.357 297.282 337.416C297.282 337.455 297.282 337.494 297.282 337.533C297.282 337.572 297.292 337.601 297.312 337.621C297.273 337.777 297.263 337.884 297.282 337.943C297.302 337.982 297.312 338.021 297.312 338.06C297.292 338.119 297.263 338.187 297.224 338.265C297.204 338.324 297.195 338.402 297.195 338.5C297.195 338.656 297.204 338.812 297.224 338.968C297.263 339.105 297.263 339.251 297.224 339.408C297.087 339.466 296.96 339.525 296.843 339.583C296.726 339.662 296.56 339.671 296.345 339.613C296.247 339.574 296.189 339.496 296.169 339.378C296.15 339.261 296.101 339.164 296.023 339.085C295.866 339.066 295.73 339.037 295.613 338.998C295.515 338.958 295.417 338.91 295.32 338.851C295.241 338.89 295.134 338.9 294.997 338.88C294.88 338.841 294.753 338.812 294.616 338.792C294.46 338.753 294.314 338.734 294.177 338.734C294.04 338.734 293.933 338.714 293.855 338.675C293.738 338.519 293.669 338.382 293.65 338.265C293.65 338.128 293.611 338.031 293.532 337.972C293.611 337.796 293.659 337.64 293.679 337.503C293.718 337.308 293.718 337.132 293.679 336.976C293.64 336.8 293.63 336.615 293.65 336.419C293.65 336.361 293.669 336.253 293.708 336.097C293.728 335.96 293.738 335.843 293.738 335.746C293.738 335.648 293.747 335.55 293.767 335.453C293.786 335.296 293.806 335.208 293.825 335.189C293.845 335.15 293.865 335.111 293.884 335.072C293.904 334.74 293.913 334.398 293.913 334.046C293.933 333.695 293.952 333.441 293.972 333.285C293.972 333.187 293.972 333.119 293.972 333.08C293.991 333.021 294.001 332.943 294.001 332.845C294.001 332.455 294.011 332.123 294.031 331.849C294.07 331.556 294.079 331.253 294.06 330.941C294.04 330.726 294.04 330.531 294.06 330.355C294.099 330.179 294.118 330.003 294.118 329.828C294.138 329.613 294.128 329.427 294.089 329.271C294.07 329.095 294.109 328.919 294.206 328.744C294.128 328.548 294.099 328.353 294.118 328.158C294.157 327.962 294.177 327.777 294.177 327.601C294.177 327.445 294.177 327.298 294.177 327.162C294.177 327.025 294.187 326.878 294.206 326.722C294.206 326.625 294.197 326.527 294.177 326.429C294.157 326.312 294.167 326.205 294.206 326.107C294.226 325.892 294.236 325.746 294.236 325.667C294.255 325.57 294.265 325.501 294.265 325.462C294.265 325.384 294.245 325.316 294.206 325.257C294.187 325.199 294.177 325.14 294.177 325.082C294.177 325.003 294.177 324.935 294.177 324.876C294.197 324.818 294.197 324.759 294.177 324.701C294.138 324.466 294.109 324.31 294.089 324.232C294.089 324.134 294.099 324.056 294.118 323.998C294.099 323.9 294.04 323.841 293.943 323.822C293.845 323.802 293.777 323.753 293.738 323.675C293.698 323.519 293.659 323.353 293.62 323.177C293.581 322.982 293.63 322.835 293.767 322.738C293.865 322.699 293.952 322.689 294.031 322.708C294.128 322.708 294.245 322.718 294.382 322.738C294.499 322.777 294.577 322.787 294.616 322.767C294.656 322.748 294.695 322.748 294.734 322.767C294.792 322.787 294.851 322.816 294.909 322.855C294.988 322.875 295.066 322.894 295.144 322.914C295.339 322.933 295.564 322.933 295.818 322.914C296.072 322.894 296.316 322.875 296.55 322.855C296.804 322.816 297.029 322.796 297.224 322.796C297.419 322.777 297.556 322.796 297.634 322.855C297.693 322.894 297.722 322.953 297.722 323.031C297.722 323.089 297.751 323.128 297.81 323.148ZM318.083 339.378C318.103 339.476 318.073 339.535 317.995 339.554C317.937 339.574 317.888 339.623 317.849 339.701C317.81 339.74 317.781 339.789 317.761 339.847C317.761 339.925 317.722 339.964 317.644 339.964C317.507 339.964 317.419 339.974 317.38 339.994C317.341 340.013 317.302 340.013 317.263 339.994C317.204 339.994 317.146 339.974 317.087 339.935C317.029 339.896 316.95 339.867 316.853 339.847C316.657 339.828 316.462 339.837 316.267 339.876C316.091 339.916 315.915 339.935 315.74 339.935C315.681 339.935 315.613 339.925 315.534 339.906C315.476 339.886 315.417 339.876 315.359 339.876C315.163 339.876 314.978 339.876 314.802 339.876C314.626 339.896 314.441 339.886 314.245 339.847C314.167 339.828 314.089 339.798 314.011 339.759C313.952 339.72 313.874 339.71 313.777 339.73C313.757 339.632 313.708 339.564 313.63 339.525C313.572 339.486 313.532 339.417 313.513 339.32C313.474 339.144 313.493 338.958 313.572 338.763C313.65 338.568 313.669 338.382 313.63 338.207C313.747 337.992 313.816 337.777 313.835 337.562C313.816 337.464 313.806 337.376 313.806 337.298C313.825 337.201 313.835 337.132 313.835 337.093C313.874 336.996 313.884 336.849 313.865 336.654C313.845 336.458 313.845 336.273 313.865 336.097C313.884 335.902 313.894 335.707 313.894 335.511C313.894 335.296 313.894 335.062 313.894 334.808C313.874 334.593 313.855 334.447 313.835 334.369C313.816 334.271 313.796 334.183 313.777 334.105C313.816 333.91 313.825 333.802 313.806 333.783C313.786 333.744 313.777 333.695 313.777 333.636C313.796 333.441 313.786 333.304 313.747 333.226C313.728 333.148 313.708 333.07 313.689 332.992C313.689 332.933 313.698 332.884 313.718 332.845C313.738 332.787 313.747 332.728 313.747 332.669C313.747 332.455 313.738 332.298 313.718 332.201C313.698 332.083 313.679 331.976 313.659 331.878C313.659 331.8 313.669 331.722 313.689 331.644C313.708 331.546 313.669 331.478 313.572 331.439C313.611 331.38 313.63 331.273 313.63 331.117C313.591 330.902 313.572 330.746 313.572 330.648C313.572 330.55 313.572 330.472 313.572 330.414C313.532 330.277 313.513 330.199 313.513 330.179C313.513 330.14 313.513 330.111 313.513 330.091C313.493 330.013 313.464 329.925 313.425 329.828C313.406 329.71 313.376 329.603 313.337 329.505C313.376 329.388 313.376 329.281 313.337 329.183C313.318 329.066 313.288 328.949 313.249 328.832C313.21 328.675 313.171 328.587 313.132 328.568C313.113 328.529 313.093 328.49 313.073 328.451C312.956 328.158 312.849 327.894 312.751 327.66C312.673 327.406 312.615 327.123 312.575 326.81C312.478 326.693 312.37 326.585 312.253 326.488C312.156 326.39 312.077 326.263 312.019 326.107C311.804 325.99 311.618 325.892 311.462 325.814C311.325 325.716 311.091 325.687 310.759 325.726C310.7 325.726 310.632 325.746 310.554 325.785C310.476 325.804 310.398 325.824 310.32 325.843C310.163 325.902 310.017 325.951 309.88 325.99C309.763 326.009 309.636 326.058 309.499 326.136C309.382 326.234 309.294 326.283 309.236 326.283C309.197 326.283 309.167 326.292 309.148 326.312C309.089 326.351 309.04 326.41 309.001 326.488C308.962 326.546 308.923 326.595 308.884 326.634C308.786 326.751 308.718 326.839 308.679 326.898C308.659 326.937 308.63 326.976 308.591 327.015C308.552 327.074 308.493 327.152 308.415 327.25C308.337 327.328 308.259 327.386 308.181 327.425C308.181 327.503 308.152 327.562 308.093 327.601C308.034 327.64 307.986 327.689 307.947 327.748C307.907 327.865 307.868 327.933 307.829 327.953C307.79 327.972 307.761 327.992 307.741 328.011C307.683 328.109 307.634 328.226 307.595 328.363C307.556 328.5 307.478 328.597 307.361 328.656C307.341 328.832 307.302 328.968 307.243 329.066C307.185 329.164 307.107 329.261 307.009 329.359C307.029 329.632 306.98 329.828 306.863 329.945C306.745 330.062 306.648 330.208 306.57 330.384C306.531 330.599 306.491 330.775 306.452 330.912C306.433 331.029 306.404 331.136 306.365 331.234C306.325 331.332 306.296 331.439 306.277 331.556C306.257 331.654 306.218 331.742 306.159 331.82C306.198 332.093 306.169 332.357 306.072 332.611C305.974 332.865 305.906 333.138 305.866 333.431C305.847 333.49 305.837 333.558 305.837 333.636C305.857 333.714 305.857 333.783 305.837 333.841C305.818 334.017 305.798 334.232 305.779 334.486C305.759 334.72 305.74 334.945 305.72 335.16C305.72 335.199 305.72 335.248 305.72 335.306C305.74 335.365 305.749 335.423 305.749 335.482C305.749 335.619 305.73 335.755 305.691 335.892C305.671 336.009 305.661 336.136 305.661 336.273C305.642 336.371 305.652 336.478 305.691 336.595C305.73 336.693 305.74 336.791 305.72 336.888C305.7 337.064 305.691 337.201 305.691 337.298C305.71 337.396 305.73 337.484 305.749 337.562C305.769 337.64 305.779 337.718 305.779 337.796C305.798 337.855 305.837 337.904 305.896 337.943C305.857 338.119 305.857 338.285 305.896 338.441C305.935 338.597 305.993 338.744 306.072 338.88C306.15 338.998 306.13 339.144 306.013 339.32C305.857 339.535 305.632 339.613 305.339 339.554C305.046 339.515 304.734 339.505 304.402 339.525C304.245 339.525 304.109 339.535 303.991 339.554C303.874 339.574 303.757 339.583 303.64 339.583C303.503 339.603 303.366 339.623 303.23 339.642C303.093 339.662 302.966 339.652 302.849 339.613C302.79 339.613 302.732 339.593 302.673 339.554C302.615 339.535 302.566 339.505 302.527 339.466C302.37 339.408 302.273 339.359 302.234 339.32C302.175 339.222 302.146 339.125 302.146 339.027C302.165 338.91 302.165 338.802 302.146 338.705C302.146 338.646 302.126 338.587 302.087 338.529C302.068 338.451 302.058 338.373 302.058 338.294C302.058 338.138 302.068 337.982 302.087 337.826C302.107 337.669 302.126 337.513 302.146 337.357C302.146 337.201 302.156 337.064 302.175 336.947C302.195 336.81 302.204 336.683 302.204 336.566C302.204 336.468 302.195 336.361 302.175 336.244C302.175 336.126 302.224 336.019 302.322 335.921C302.263 335.765 302.243 335.667 302.263 335.628C302.302 335.57 302.322 335.531 302.322 335.511C302.322 335.414 302.302 335.287 302.263 335.13V334.134C302.243 333.939 302.224 333.744 302.204 333.548C302.185 333.353 302.165 333.128 302.146 332.875C302.146 332.777 302.136 332.699 302.116 332.64C302.097 332.582 302.087 332.533 302.087 332.494C302.126 332.337 302.126 332.23 302.087 332.171C302.068 332.093 302.058 332.025 302.058 331.966C302.058 331.81 302.077 331.634 302.116 331.439C302.136 331.38 302.156 331.332 302.175 331.292C302.195 331.234 302.214 331.175 302.234 331.117C302.195 330.96 302.185 330.853 302.204 330.794C302.224 330.736 302.234 330.687 302.234 330.648C302.214 330.492 302.185 330.316 302.146 330.121C302.126 329.925 302.165 329.72 302.263 329.505C302.224 329.408 302.185 329.3 302.146 329.183C302.107 329.066 302.136 328.968 302.234 328.89C302.195 328.792 302.156 328.705 302.116 328.626C302.077 328.529 302.058 328.412 302.058 328.275C302.097 328.001 302.097 327.728 302.058 327.455C302.038 327.181 302.077 326.976 302.175 326.839C302.077 326.683 302.048 326.498 302.087 326.283C302.126 326.048 302.136 325.814 302.116 325.58C302.097 325.521 302.077 325.462 302.058 325.404C302.038 325.345 302.029 325.287 302.029 325.228C301.99 325.072 301.98 324.916 301.999 324.759C302.019 324.603 302.019 324.457 301.999 324.32C301.902 324.046 301.843 323.792 301.823 323.558C301.804 323.304 301.765 323.099 301.706 322.943C301.765 322.904 301.804 322.855 301.823 322.796C301.863 322.738 301.902 322.679 301.941 322.621C302.077 322.582 302.234 322.572 302.409 322.591C302.605 322.611 302.732 322.679 302.79 322.796C302.888 322.718 302.986 322.689 303.083 322.708C303.2 322.728 303.318 322.748 303.435 322.767C303.513 322.767 303.62 322.767 303.757 322.767C303.894 322.748 304.031 322.738 304.167 322.738C304.363 322.718 304.538 322.708 304.695 322.708C304.851 322.708 305.007 322.708 305.163 322.708C305.222 322.767 305.271 322.816 305.31 322.855C305.349 322.894 305.388 322.953 305.427 323.031C305.525 323.207 305.583 323.46 305.603 323.792C305.642 324.105 305.681 324.398 305.72 324.671C305.818 324.691 305.866 324.662 305.866 324.583C305.886 324.505 305.915 324.447 305.954 324.408C306.052 324.349 306.15 324.291 306.247 324.232C306.345 324.173 306.443 324.095 306.54 323.998C306.618 323.978 306.677 323.958 306.716 323.939C306.775 323.9 306.853 323.89 306.95 323.91C307.009 323.871 307.058 323.822 307.097 323.763C307.136 323.685 307.175 323.626 307.214 323.587C307.312 323.568 307.429 323.49 307.566 323.353C307.605 323.333 307.663 323.314 307.741 323.294C307.82 323.275 307.859 323.226 307.859 323.148C307.976 323.148 308.073 323.119 308.152 323.06C308.249 322.982 308.347 322.914 308.445 322.855C308.64 322.757 308.767 322.689 308.825 322.65C308.884 322.591 308.933 322.552 308.972 322.533C309.011 322.513 309.06 322.513 309.118 322.533C309.197 322.533 309.284 322.523 309.382 322.503L309.734 322.416C309.929 322.376 310.066 322.347 310.144 322.328C310.222 322.308 310.29 322.298 310.349 322.298C310.447 322.279 310.544 322.269 310.642 322.269C310.74 322.25 310.818 322.24 310.876 322.24C311.032 322.298 311.189 322.328 311.345 322.328C311.501 322.328 311.628 322.337 311.726 322.357C311.941 322.435 312.107 322.484 312.224 322.503C312.361 322.523 312.478 322.542 312.575 322.562C312.673 322.64 312.781 322.689 312.898 322.708C313.073 322.767 313.191 322.816 313.249 322.855C313.327 322.875 313.425 322.943 313.542 323.06C313.581 323.099 313.62 323.148 313.659 323.207C313.698 323.246 313.718 323.294 313.718 323.353C313.835 323.451 313.943 323.539 314.04 323.617C314.157 323.695 314.275 323.792 314.392 323.91C314.431 323.949 314.46 323.998 314.48 324.056C314.499 324.115 314.529 324.164 314.568 324.203C314.626 324.261 314.685 324.31 314.743 324.349C314.822 324.388 314.89 324.437 314.948 324.496C315.007 324.535 315.056 324.593 315.095 324.671C315.134 324.75 315.193 324.798 315.271 324.818C315.271 324.955 315.32 325.072 315.417 325.169C315.534 325.248 315.613 325.335 315.652 325.433C315.691 325.531 315.71 325.638 315.71 325.755C315.73 325.853 315.788 325.951 315.886 326.048C315.906 326.224 315.954 326.39 316.032 326.546C316.13 326.703 316.218 326.869 316.296 327.044C316.335 327.142 316.365 327.24 316.384 327.337C316.404 327.416 316.433 327.503 316.472 327.601C316.511 327.699 316.54 327.787 316.56 327.865C316.579 327.923 316.609 327.992 316.648 328.07C316.706 328.285 316.736 328.431 316.736 328.509C316.736 328.568 316.745 328.626 316.765 328.685C316.921 328.998 317.038 329.349 317.116 329.74C317.156 329.935 317.185 330.062 317.204 330.121C317.224 330.179 317.234 330.228 317.234 330.267C317.253 330.365 317.263 330.453 317.263 330.531C317.263 330.609 317.273 330.697 317.292 330.794C317.292 330.873 317.302 330.951 317.322 331.029C317.341 331.107 317.351 331.185 317.351 331.263C317.37 331.341 317.37 331.419 317.351 331.498C317.331 331.556 317.331 331.634 317.351 331.732C317.37 331.888 317.4 332.054 317.439 332.23C317.478 332.386 317.517 332.542 317.556 332.699C317.595 332.796 317.585 332.865 317.527 332.904C317.488 332.943 317.468 333.001 317.468 333.08C317.507 333.158 317.536 333.246 317.556 333.343C317.595 333.441 317.624 333.539 317.644 333.636C317.644 333.675 317.634 333.724 317.615 333.783C317.595 333.841 317.585 333.9 317.585 333.958C317.585 334.076 317.595 334.203 317.615 334.339C317.634 334.476 317.585 334.593 317.468 334.691C317.566 334.867 317.624 335.072 317.644 335.306C317.663 335.541 317.634 335.755 317.556 335.951C317.517 336.048 317.527 336.107 317.585 336.126C317.644 336.126 317.663 336.175 317.644 336.273C317.566 336.429 317.536 336.576 317.556 336.712C317.595 336.83 317.595 336.966 317.556 337.123C317.556 337.22 317.536 337.298 317.497 337.357C317.478 337.396 317.468 337.455 317.468 337.533C317.429 337.611 317.439 337.699 317.497 337.796C317.556 337.875 317.546 337.962 317.468 338.06C317.488 338.158 317.517 338.246 317.556 338.324C317.615 338.382 317.624 338.5 317.585 338.675C317.624 338.734 317.673 338.783 317.732 338.822C317.79 338.841 317.849 338.871 317.907 338.91C317.868 339.046 317.888 339.125 317.966 339.144C318.044 339.183 318.083 339.261 318.083 339.378ZM338.591 322.445C338.63 322.66 338.65 322.875 338.65 323.089C338.65 323.285 338.62 323.5 338.562 323.734C338.523 323.929 338.503 324.066 338.503 324.144C338.503 324.203 338.484 324.261 338.445 324.32C338.386 324.574 338.357 324.798 338.357 324.994C338.376 325.169 338.366 325.326 338.327 325.462C338.327 325.794 338.298 326.029 338.24 326.166C338.2 326.341 338.152 326.517 338.093 326.693C338.054 326.869 337.986 327.064 337.888 327.279C337.947 327.533 337.947 327.826 337.888 328.158C337.868 328.236 337.839 328.314 337.8 328.392C337.781 328.47 337.761 328.548 337.741 328.626C337.722 328.666 337.712 328.714 337.712 328.773C337.732 328.832 337.732 328.89 337.712 328.949C337.673 329.125 337.654 329.261 337.654 329.359C337.654 329.437 337.654 329.505 337.654 329.564C337.634 329.896 337.605 330.15 337.566 330.326C337.546 330.501 337.517 330.667 337.478 330.824C337.439 331.156 337.37 331.458 337.273 331.732C337.292 331.81 337.312 331.878 337.331 331.937C337.37 331.996 337.4 332.054 337.419 332.113C337.419 332.308 337.4 332.425 337.361 332.464C337.419 332.562 337.458 332.64 337.478 332.699C337.497 332.757 337.497 332.855 337.478 332.992C337.478 333.148 337.458 333.285 337.419 333.402C337.4 333.519 337.39 333.626 337.39 333.724C337.39 333.802 337.4 333.88 337.419 333.958C337.458 334.017 337.488 334.085 337.507 334.164C337.546 334.32 337.556 334.486 337.536 334.662C337.536 334.837 337.507 334.994 337.448 335.13C337.507 335.365 337.536 335.687 337.536 336.097C337.556 336.488 337.546 336.849 337.507 337.181C337.448 337.357 337.419 337.523 337.419 337.679C337.439 337.835 337.439 337.982 337.419 338.119C337.419 338.197 337.409 338.265 337.39 338.324C337.39 338.382 337.38 338.451 337.361 338.529C337.361 338.607 337.37 338.685 337.39 338.763C337.409 338.822 337.419 338.89 337.419 338.968C337.38 339.125 337.312 339.291 337.214 339.466C337.195 339.564 337.165 339.652 337.126 339.73C337.087 339.808 337.058 339.886 337.038 339.964C336.999 340.082 336.98 340.208 336.98 340.345C336.98 340.501 336.96 340.648 336.921 340.785C336.882 340.824 336.843 340.873 336.804 340.931C336.784 341.009 336.745 341.058 336.687 341.078C336.687 341.214 336.667 341.361 336.628 341.517C336.511 341.615 336.394 341.722 336.277 341.839C336.179 341.957 336.042 342.044 335.866 342.103C335.866 342.201 335.827 342.269 335.749 342.308C335.671 342.347 335.613 342.396 335.573 342.455C335.534 342.494 335.505 342.542 335.486 342.601C335.486 342.66 335.466 342.708 335.427 342.748C335.349 342.767 335.3 342.816 335.281 342.894C335.261 342.972 335.232 343.031 335.193 343.07C334.822 343.265 334.46 343.441 334.109 343.597C333.777 343.773 333.464 343.988 333.171 344.242C333.073 344.222 332.927 344.251 332.732 344.33C332.634 344.349 332.536 344.359 332.439 344.359C332.361 344.378 332.263 344.408 332.146 344.447C331.97 344.486 331.833 344.515 331.736 344.535C331.638 344.574 331.57 344.603 331.531 344.623C331.433 344.662 331.325 344.681 331.208 344.681C331.091 344.681 330.964 344.681 330.827 344.681C330.73 344.681 330.622 344.681 330.505 344.681C330.407 344.701 330.31 344.71 330.212 344.71C330.154 344.71 330.095 344.691 330.036 344.652C329.978 344.632 329.929 344.623 329.89 344.623C329.558 344.701 329.284 344.74 329.07 344.74C328.855 344.74 328.63 344.75 328.396 344.769C328.337 344.769 328.269 344.779 328.191 344.798C328.132 344.837 328.073 344.857 328.015 344.857C327.976 344.857 327.917 344.847 327.839 344.828C327.781 344.808 327.732 344.798 327.693 344.798H327.312C327.234 344.779 327.165 344.759 327.107 344.74C327.048 344.72 326.999 344.701 326.96 344.681C326.863 344.681 326.765 344.691 326.667 344.71C326.57 344.73 326.472 344.74 326.374 344.74C326.218 344.701 326.072 344.681 325.935 344.681C325.876 344.642 325.808 344.623 325.73 344.623C325.652 344.623 325.593 344.613 325.554 344.593C325.515 344.574 325.447 344.535 325.349 344.476C325.271 344.417 325.202 344.369 325.144 344.33C325.066 344.31 324.988 344.3 324.909 344.3C324.851 344.32 324.773 344.31 324.675 344.271C324.519 344.232 324.402 344.193 324.323 344.154C324.245 344.115 324.128 344.056 323.972 343.978C323.855 343.919 323.747 343.861 323.65 343.802C323.572 343.744 323.474 343.675 323.357 343.597C323.318 343.558 323.279 343.509 323.24 343.451C323.2 343.412 323.161 343.373 323.122 343.333C323.005 343.236 322.917 343.167 322.859 343.128C322.82 343.089 322.781 343.06 322.741 343.041C322.644 342.923 322.575 342.855 322.536 342.835C322.517 342.835 322.497 342.816 322.478 342.777C322.419 342.718 322.351 342.65 322.273 342.572C322.214 342.494 322.165 342.406 322.126 342.308C322.029 342.093 321.941 341.957 321.863 341.898C321.804 341.839 321.755 341.771 321.716 341.693C321.56 341.283 321.472 340.863 321.452 340.433C321.433 340.023 321.404 339.623 321.365 339.232C321.482 339.076 321.628 338.988 321.804 338.968C321.999 338.949 322.204 338.919 322.419 338.88C322.517 338.841 322.605 338.802 322.683 338.763C322.781 338.705 322.878 338.695 322.976 338.734C323.034 338.695 323.103 338.666 323.181 338.646C323.259 338.626 323.337 338.597 323.415 338.558C323.513 338.539 323.601 338.519 323.679 338.5C323.757 338.48 323.835 338.47 323.913 338.47C324.031 338.49 324.118 338.529 324.177 338.587C324.236 338.646 324.304 338.724 324.382 338.822C324.48 338.978 324.558 339.095 324.616 339.173C324.675 339.251 324.743 339.339 324.822 339.437C324.939 339.593 325.017 339.701 325.056 339.759C325.115 339.818 325.173 339.867 325.232 339.906C325.388 340.023 325.505 340.101 325.583 340.14C325.681 340.199 325.769 340.248 325.847 340.287C325.964 340.365 326.032 340.404 326.052 340.404C326.091 340.423 326.14 340.453 326.198 340.492C326.316 340.589 326.443 340.687 326.579 340.785C326.736 340.902 326.921 340.96 327.136 340.96C327.214 341.058 327.292 341.126 327.37 341.166C327.468 341.205 327.566 341.253 327.663 341.312C327.741 341.351 327.81 341.371 327.868 341.371C327.927 341.39 327.986 341.419 328.044 341.458C328.142 341.556 328.21 341.615 328.249 341.634C328.288 341.654 328.327 341.673 328.366 341.693C328.484 341.771 328.65 341.839 328.865 341.898C329.099 341.976 329.323 341.996 329.538 341.957C329.753 341.917 329.909 341.908 330.007 341.927C330.105 341.947 330.173 341.947 330.212 341.927C330.349 341.927 330.486 341.908 330.622 341.869C330.779 341.83 330.925 341.791 331.062 341.751C331.12 341.732 331.179 341.712 331.238 341.693C331.316 341.673 331.384 341.634 331.443 341.576C331.579 341.537 331.657 341.498 331.677 341.458C331.697 341.419 331.716 341.4 331.736 341.4C332.009 341.263 332.204 341.126 332.322 340.99C332.458 340.873 332.595 340.775 332.732 340.697C332.771 340.541 332.839 340.404 332.937 340.287C333.034 340.189 333.122 340.072 333.2 339.935C333.259 339.818 333.308 339.74 333.347 339.701C333.366 339.681 333.386 339.671 333.406 339.671C333.425 339.554 333.454 339.476 333.493 339.437C333.552 339.417 333.601 339.388 333.64 339.349C333.698 339.232 333.767 339.017 333.845 338.705C333.884 338.666 333.923 338.617 333.962 338.558C334.001 338.5 334.04 338.441 334.079 338.382C334.04 338.246 334.04 338.08 334.079 337.884C334.138 337.689 334.206 337.542 334.284 337.445C334.245 337.406 334.226 337.357 334.226 337.298C334.245 337.22 334.255 337.132 334.255 337.035C334.138 336.996 334.04 337.035 333.962 337.152C333.884 337.25 333.806 337.328 333.728 337.386C333.63 337.445 333.532 337.513 333.435 337.591C333.357 337.65 333.269 337.699 333.171 337.738C333.015 337.796 332.888 337.855 332.79 337.914C332.712 337.972 332.624 338.021 332.527 338.06C332.488 338.099 332.439 338.128 332.38 338.148C332.322 338.148 332.253 338.167 332.175 338.207C332.097 338.246 332.009 338.294 331.911 338.353C331.833 338.412 331.745 338.46 331.648 338.5C331.55 338.539 331.452 338.568 331.355 338.587C331.257 338.587 331.15 338.607 331.032 338.646C330.915 338.666 330.798 338.685 330.681 338.705C330.564 338.724 330.417 338.744 330.241 338.763C330.163 338.763 330.085 338.763 330.007 338.763C329.948 338.744 329.87 338.734 329.773 338.734C329.538 338.753 329.333 338.763 329.157 338.763C328.982 338.763 328.816 338.685 328.659 338.529C328.542 338.509 328.484 338.548 328.484 338.646C328.503 338.724 328.445 338.744 328.308 338.705C327.976 338.705 327.673 338.666 327.4 338.587C327.146 338.509 326.902 338.421 326.667 338.324C326.531 338.265 326.404 338.216 326.286 338.177C326.208 338.138 326.13 338.119 326.052 338.119C325.974 338.119 325.906 338.099 325.847 338.06C325.769 338.001 325.671 337.953 325.554 337.914C325.437 337.875 325.398 337.796 325.437 337.679C325.281 337.601 325.154 337.562 325.056 337.562C324.978 337.542 324.9 337.513 324.822 337.474C324.685 337.376 324.577 337.298 324.499 337.24C324.421 337.181 324.343 337.123 324.265 337.064L323.913 336.712C323.855 336.654 323.796 336.595 323.738 336.537C323.698 336.458 323.63 336.41 323.532 336.39C323.532 336.292 323.503 336.224 323.445 336.185C323.386 336.146 323.357 336.087 323.357 336.009C323.279 335.931 323.21 335.863 323.152 335.804C323.093 335.726 323.025 335.648 322.947 335.57C322.888 335.472 322.829 335.414 322.771 335.394C322.712 335.355 322.663 335.316 322.624 335.277C322.527 335.179 322.429 335.101 322.331 335.042C322.253 334.984 322.204 334.935 322.185 334.896C322.126 334.701 322.068 334.583 322.009 334.544C321.97 334.486 321.941 334.437 321.921 334.398C321.863 334.3 321.804 334.222 321.745 334.164C321.706 334.085 321.667 334.007 321.628 333.929C321.589 333.812 321.56 333.734 321.54 333.695C321.521 333.636 321.491 333.587 321.452 333.548C321.413 333.451 321.355 333.353 321.277 333.255C321.218 333.138 321.189 333.011 321.189 332.875C321.15 332.835 321.111 332.796 321.072 332.757C321.032 332.699 320.984 332.63 320.925 332.552C320.847 332.435 320.798 332.328 320.779 332.23C320.759 332.113 320.73 332.005 320.691 331.908C320.671 331.83 320.642 331.761 320.603 331.703C320.583 331.625 320.554 331.546 320.515 331.468C320.495 331.41 320.486 331.351 320.486 331.292C320.505 331.214 320.505 331.136 320.486 331.058C320.447 330.843 320.417 330.697 320.398 330.619C320.378 330.541 320.368 330.462 320.368 330.384C320.329 330.189 320.3 330.091 320.281 330.091C320.281 330.072 320.31 330.013 320.368 329.916C320.407 329.857 320.427 329.73 320.427 329.535C320.427 329.32 320.447 329.154 320.486 329.037C320.505 328.978 320.534 328.929 320.573 328.89C320.613 328.832 320.652 328.763 320.691 328.685C320.73 328.587 320.74 328.5 320.72 328.421C320.72 328.324 320.74 328.246 320.779 328.187C320.876 328.07 320.925 327.992 320.925 327.953C320.945 327.914 320.974 327.875 321.013 327.835C321.052 327.757 321.12 327.669 321.218 327.572C321.218 327.396 321.238 327.21 321.277 327.015C321.335 326.82 321.413 326.654 321.511 326.517V326.166C321.57 326.107 321.618 326.039 321.657 325.96C321.697 325.882 321.736 325.804 321.775 325.726C321.853 325.57 321.931 325.404 322.009 325.228C322.107 325.033 322.214 324.857 322.331 324.701C322.409 324.564 322.458 324.496 322.478 324.496C322.517 324.476 322.546 324.457 322.566 324.437C322.722 324.3 322.849 324.164 322.947 324.027C323.044 323.89 323.132 323.792 323.21 323.734C323.269 323.695 323.337 323.666 323.415 323.646C323.513 323.607 323.601 323.568 323.679 323.529C323.738 323.451 323.786 323.382 323.825 323.324C323.884 323.246 323.962 323.207 324.06 323.207C324.157 323.031 324.314 322.865 324.529 322.708C324.607 322.65 324.704 322.601 324.822 322.562C324.958 322.523 325.075 322.484 325.173 322.445C325.31 322.367 325.417 322.328 325.495 322.328C325.573 322.308 325.642 322.289 325.7 322.269C325.935 322.132 326.169 322.044 326.404 322.005C326.638 321.947 326.833 321.859 326.99 321.742C327.224 321.761 327.439 321.722 327.634 321.625C327.849 321.527 328.064 321.458 328.279 321.419C328.337 321.419 328.396 321.429 328.454 321.449C328.513 321.449 328.581 321.449 328.659 321.449C328.796 321.429 328.923 321.419 329.04 321.419C329.177 321.4 329.294 321.458 329.392 321.595C329.431 321.517 329.49 321.468 329.568 321.449C329.646 321.429 329.724 321.4 329.802 321.361C330.017 321.4 330.232 321.419 330.447 321.419C330.661 321.4 330.866 321.41 331.062 321.449C331.257 321.488 331.423 321.546 331.56 321.625C331.716 321.703 331.882 321.742 332.058 321.742C332.195 321.839 332.322 321.917 332.439 321.976C332.575 322.035 332.722 322.113 332.878 322.21C333.015 322.289 333.122 322.357 333.2 322.416C333.298 322.474 333.415 322.552 333.552 322.65C333.689 322.787 333.786 322.875 333.845 322.914C333.904 322.933 333.952 322.943 333.991 322.943C334.031 323.099 334.099 323.226 334.197 323.324C334.294 323.421 334.392 323.519 334.49 323.617C334.529 323.539 334.548 323.441 334.548 323.324C334.568 323.207 334.597 323.099 334.636 323.001C334.597 322.923 334.558 322.865 334.519 322.826C334.499 322.767 334.499 322.66 334.519 322.503C334.519 322.269 334.568 322.123 334.665 322.064C334.763 322.005 334.89 321.986 335.046 322.005C335.202 322.005 335.378 322.044 335.573 322.123C335.769 322.181 335.984 322.22 336.218 322.24C336.394 322.259 336.599 322.269 336.833 322.269C337.068 322.269 337.282 322.259 337.478 322.24C337.575 322.22 337.663 322.191 337.741 322.152C337.839 322.113 337.927 322.103 338.005 322.123C338.142 322.162 338.249 322.22 338.327 322.298C338.425 322.376 338.513 322.425 338.591 322.445ZM334.577 330.765C334.597 330.609 334.597 330.492 334.577 330.414C334.577 330.316 334.568 330.208 334.548 330.091C334.529 330.013 334.509 329.945 334.49 329.886C334.47 329.808 334.47 329.72 334.49 329.623C334.411 329.564 334.363 329.476 334.343 329.359C334.343 329.222 334.323 329.125 334.284 329.066C334.226 328.91 334.187 328.802 334.167 328.744C334.167 328.685 334.157 328.646 334.138 328.626C334.079 328.529 334.001 328.46 333.904 328.421C333.825 328.382 333.786 328.294 333.786 328.158C333.669 328.099 333.552 328.031 333.435 327.953C333.318 327.875 333.24 327.787 333.2 327.689C333.044 327.455 332.898 327.269 332.761 327.132C332.624 326.996 332.488 326.878 332.351 326.781C332.195 326.664 332.058 326.585 331.941 326.546C331.823 326.507 331.716 326.468 331.618 326.429C331.56 326.371 331.511 326.292 331.472 326.195C331.433 326.097 331.394 325.99 331.355 325.873C331.218 325.853 331.052 325.814 330.857 325.755C330.681 325.677 330.525 325.619 330.388 325.58C330.212 325.56 330.085 325.541 330.007 325.521C329.929 325.501 329.851 325.482 329.773 325.462C329.675 325.462 329.577 325.472 329.48 325.492C329.382 325.492 329.284 325.482 329.187 325.462C329.089 325.443 328.991 325.423 328.894 325.404C328.796 325.384 328.698 325.365 328.601 325.345C328.386 325.384 328.191 325.394 328.015 325.375C327.859 325.355 327.732 325.355 327.634 325.375C327.497 325.394 327.361 325.443 327.224 325.521C327.107 325.599 326.98 325.638 326.843 325.638C326.804 325.736 326.745 325.804 326.667 325.843C326.609 325.882 326.54 325.931 326.462 325.99C326.306 326.087 326.159 326.166 326.023 326.224C325.886 326.283 325.779 326.39 325.7 326.546C325.564 326.664 325.466 326.732 325.407 326.751C325.368 326.771 325.339 326.8 325.32 326.839C325.261 326.976 325.202 327.074 325.144 327.132C325.085 327.191 325.036 327.24 324.997 327.279C325.036 327.376 325.007 327.474 324.909 327.572C324.812 327.65 324.743 327.708 324.704 327.748C324.685 327.962 324.656 328.119 324.616 328.216C324.519 328.314 324.46 328.402 324.441 328.48C324.421 328.558 324.392 328.636 324.353 328.714C324.216 328.988 324.148 329.261 324.148 329.535C324.167 329.808 324.177 330.072 324.177 330.326C324.138 330.482 324.128 330.599 324.148 330.677C324.167 330.736 324.177 330.785 324.177 330.824C324.157 331 324.138 331.156 324.118 331.292C324.118 331.41 324.148 331.546 324.206 331.703C324.226 331.742 324.255 331.82 324.294 331.937C324.333 332.054 324.363 332.113 324.382 332.113C324.46 332.269 324.529 332.376 324.587 332.435C324.646 332.494 324.704 332.572 324.763 332.669C324.841 332.787 324.9 332.914 324.939 333.05C324.997 333.167 325.046 333.294 325.085 333.431C325.163 333.509 325.232 333.587 325.29 333.666C325.368 333.744 325.427 333.841 325.466 333.958C325.7 334.076 325.866 334.173 325.964 334.251C326.081 334.33 326.189 334.398 326.286 334.457C326.501 334.574 326.667 334.681 326.784 334.779C326.902 334.857 327.009 334.916 327.107 334.955C327.478 335.091 327.82 335.16 328.132 335.16C328.191 335.179 328.24 335.179 328.279 335.16C328.337 335.14 328.396 335.13 328.454 335.13C328.962 335.169 329.343 335.179 329.597 335.16C329.851 335.14 330.105 335.111 330.359 335.072C330.573 335.033 330.769 335.003 330.945 334.984C331.14 334.945 331.306 334.886 331.443 334.808C331.618 334.671 331.745 334.603 331.823 334.603C331.902 334.583 331.97 334.554 332.029 334.515C332.224 334.417 332.351 334.349 332.409 334.31C332.468 334.251 332.527 334.203 332.585 334.164C332.702 334.066 332.81 333.988 332.907 333.929C333.025 333.871 333.103 333.773 333.142 333.636C333.2 333.597 333.259 333.568 333.318 333.548C333.396 333.509 333.464 333.451 333.523 333.373C333.62 333.216 333.669 333.099 333.669 333.021C333.669 332.943 333.689 332.875 333.728 332.816C333.767 332.757 333.806 332.708 333.845 332.669C333.884 332.611 333.923 332.552 333.962 332.494C334.001 332.435 334.031 332.386 334.05 332.347C334.07 332.289 334.089 332.23 334.109 332.171C334.148 331.996 334.197 331.888 334.255 331.849C334.314 331.791 334.333 331.712 334.314 331.615C334.353 331.458 334.392 331.322 334.431 331.205C334.49 331.068 334.538 330.921 334.577 330.765Z" fill="#E9DECD"/>
</svg>
