<svg width="44" height="44" viewBox="0 0 44 44" fill="none" xmlns="http://www.w3.org/2000/svg">
<circle cx="22" cy="22" r="20" stroke="#E9DECD" stroke-width="2.22222"/>
<path d="M22.2597 21.4079C22.5779 21.6598 22.9288 21.8418 23.213 21.9632C23.2419 21.9756 23.2744 21.9793 23.3147 21.9696C23.358 21.9592 23.4107 21.9325 23.4581 21.8838C23.9696 21.3592 24.7776 21.2173 25.4491 21.5341L25.8744 21.7347C26.2752 21.9238 26.6398 22.2419 26.8411 22.642C27.0527 23.0626 27.086 23.5985 26.7359 24.0761C26.5266 24.3617 26.2184 24.6333 25.7797 24.795C24.7486 25.1751 23.618 24.9778 22.6615 24.6008C21.6936 24.2193 20.7998 23.6143 20.1726 23.0225C19.6147 22.4961 18.8754 21.6884 18.4214 20.7918C17.9709 19.9022 17.7274 18.7569 18.5002 17.7543C18.7574 17.4206 19.0645 17.2095 19.3798 17.091C19.9083 16.8924 20.3948 17.0457 20.7371 17.2936C21.0619 17.529 21.294 17.8674 21.4363 18.1829L21.6835 18.7311C21.9191 19.2535 21.8538 19.8562 21.5113 20.3208C21.4748 20.3703 21.4593 20.4184 21.4563 20.4544C21.4536 20.4873 21.4607 20.5096 21.4722 20.5276C21.64 20.7886 21.8998 21.1229 22.2597 21.4079Z" fill="#E9DECD"/>
<path fill-rule="evenodd" clip-rule="evenodd" d="M22.4966 11.0869C17.0868 11.0869 12.7013 15.4654 12.7013 20.8666C12.7013 22.529 13.1171 24.0956 13.8507 25.4672L12.1704 29.8423C11.8411 30.6997 12.6876 31.5399 13.5444 31.2062L17.9056 29.5077C19.2754 30.2346 20.8384 30.6463 22.4966 30.6463C27.9063 30.6463 32.2918 26.2678 32.2918 20.8666C32.2918 15.4654 27.9063 11.0869 22.4966 11.0869Z" stroke="#E9DECD" stroke-width="2" stroke-linecap="round" stroke-linejoin="round"/>
</svg>
